<ttFont>
          <CharString index="0">
            -25 2 18 -21 26 hhcurveto
            5 9 1 1 6 hvcurveto
            45 vlineto
            -15 -7 8 17 hvcurveto
            254 vlineto
            127 -77 78 -125 -61 -63 -23 -45 -66 vhcurveto
            19 -34 rlineto
            40 58 58 22 51 hhcurveto
            96 60 -63 -98 hvcurveto
            -51 vlineto
            17 -45 -61 11 -55 hhcurveto
            -128 -89 -64 -90 hvcurveto
            return
          </CharString>
          <CharString index="1">
            rmoveto
            145 109 124 145 146 -111 124 -143 -144 -110 -124 -146 -145 108 -124 146 hvcurveto
            -204 267 rmoveto
            124 93 103 111 111 92 -102 -122 -124 -92 -101 -112 -112 -91 99 123 vhcurveto
            return
          </CharString>
          <CharString index="2">
            rmoveto
            55 -58 -71 28 -92 hhcurveto
            -149 -102 -71 -128 -116 82 -34 151 -32 hvcurveto
            150 -32 73 -32 -94 vvcurveto
            -91 -75 -46 -123 -108 -89 40 62 -59 vhcurveto
            -27 -41 rlineto
            -71 77 93 -35 111 hhcurveto
            151 103 63 62 callsubr
            -97 38 -153 32 hvcurveto
            -146 31 -62 23 91 vvcurveto
            89 60 57 139 85 64 -26 -51 46 vhcurveto
            return
          </CharString>
          <CharString index="3">
            121 79 60 93 90 -72 23 -131 31 hvcurveto
            -96 23 -40 12 60 vvcurveto
            75 63 32 77 62 60 -20 -40 34 vhcurveto
            28 27 rlineto
            43 -34 -66 30 -81 hhcurveto
            -104 -87 -50 -104 -82 54 -19 118 -28 hvcurveto
            109 -26 57 -17 -65 vvcurveto
            -68 -61 -40 -90 -71 -59 24 50 -56 vhcurveto
            -25 -34 rlineto
            -53 54 77 -27 80 hhcurveto
            return
          </CharString>
          <CharString index="4">
            14 hmoveto
            55 hlineto
            99 234 rlineto
            339 hlineto
            99 -234 rlineto
            54 hlineto
            -300 710 rlineto
            -44 hlineto
            -136 -434 rmoveto
            158 372 155 -372 rlineto
            return
          </CharString>
          <CharString index="5">
            rmoveto
            -180 137 -186 194 109 126 58 107 47 vhcurveto
            -44 21 rlineto
            -97 -49 -99 -42 -86 hhcurveto
            -160 -124 149 167 150 101 160 180 83 91 -34 -98 50 hvcurveto
            42 24 rlineto
            90 -44 -92 65 -126 hhcurveto
            -213 -123 -183 -171 hvcurveto
            return
          </CharString>
          <CharString index="6">
            -94 -31 -84 -63 -87 hhcurveto
            -88 -43 63 129 hvcurveto
            293 -50 -300 vlineto
            -152 57 -78 109 vhcurveto
            return
          </CharString>
          <CharString index="7">
            -67 callgsubr
            hintmask 01111100
            -97 callsubr
            hintmask 10111100
            -101 callsubr
            return
          </CharString>
          <CharString index="8">
            rmoveto
            -148 111 -124 146 97 87 54 73 27 vhcurveto
            -49 14 rlineto
            -51 -16 -76 -45 -72 hhcurveto
            -112 -93 102 62 callsubr
            90 96 114 68 60 -35 -57 31 hvcurveto
            49 16 rlineto
            75 -36 -76 46 -94 hhcurveto
            -149 -107 -119 -148 hvcurveto
            return
          </CharString>
          <CharString index="9">
            113 -222 rmoveto
            -1 7 6 0 5 hhcurveto
            56 31 22 37 15 hvcurveto
            285 684 rlineto
            -49 hlineto
            -193 -471 -207 471 rlineto
            -52 hlineto
            232 -520 -63 -153 -8 -11 -15 -7 rlinecurve
            -5 -11 -11 -1 -13 hhcurveto
            -5 -5 0 1 -5 hvcurveto
            return
          </CharString>
          <CharString index="10">
            -28 25 -18 26 3 5 0 1 7 -69 callsubr
            450 -50 -328 vlineto
            return
          </CharString>
          <CharString index="11">
            68 -47 -66 54 -91 hhcurveto
            -143 -99 -128 -142 -136 103 -131 143 hvcurveto
            12 43 rmoveto
            -115 -92 104 119 109 74 117 125 80 81 -58 -80 31 hvcurveto
            -171 vlineto
            -67 -10 -86 -73 -88 hhcurveto
            return
          </CharString>
          <CharString index="12">
            rmoveto
            295 361 44 -361 279 413 46 -464 -710 return
          </CharString>
          <CharString index="13">
            rmoveto
            72 74 45 callgsubr
            -50 -26 -29 5 19 -22 vhcurveto
            -27 -33 rlineto
            -27 29 38 -10 42 hhcurveto
            146 815 rmoveto
            92 -50 -92 vlineto
            return
          </CharString>
          <CharString index="14">
            rmoveto
            -99 callgsubr
          </CharString>
          <CharString index="15">
            rmoveto
            77 77 45 67 42 hvcurveto
            -114 vlineto
            -114 -89 -58 -106 -80 -76 32 70 -41 vhcurveto
            -34 -23 rlineto
            -73 44 66 -47 121 hhcurveto
            131 114 72 141 hvcurveto
            530 -46 -113 vlineto
            return
          </CharString>
          <CharString index="16">
            -29 -27 31 33 hvcurveto
            -33 hlineto
            -51 40 -41 49 48 41 41 51 vhcurveto
            -33 hlineto
            return
          </CharString>
          <CharString index="17">
            -138 105 -131 145 vhcurveto
            9 45 rmoveto
            -116 -92 104 119 114 78 112 121 76 88 -62 -76 28 hvcurveto
            -171 vlineto
            -76 -9 -101 -64 -73 hhcurveto
            endchar
          </CharString>
          <CharString index="18">
            rmoveto
            -37 29 -26 39 39 29 26 37 36 -29 26 -39 -39 -29 -26 -36 vhcurveto
            68 39 rmoveto
            23 18 -15 -24 -23 -20 -17 -21 -23 -17 18 22 24 18 15 22 hvcurveto
            return
          </CharString>
          <CharString index="19">
            hstem
            42 52 409 48 vstem
            -104 callgsubr
            return
          </CharString>
          <CharString index="20">
            422 39 -365 hlineto
            367 445 rlineto
            36 -418 -39 362 vlineto
            -368 -445 rlineto
            return
          </CharString>
          <CharString index="21">
            rmoveto
            275 348 279 345 -28 23 -274 -348 -279 -344 rlineto
            return
          </CharString>
          <CharString index="22">
            -29 42 51 -15 61 hhcurveto
            199 25 144 216 hvcurveto
            361 -51 -361 vlineto
            -198 -19 -115 -154 -57 -48 16 22 -33 vhcurveto
            return
          </CharString>
          <CharString index="23">
            -95 callsubr
            473 46 vlineto
            return
          </CharString>
          <CharString index="24">
            19 12 callgsubr
            279 -440 rlineto
            -270 51 268 vlineto
            280 442 11 callsubr
            -249 -393 -248 393 rlineto
            return
          </CharString>
          <CharString index="25">
            5 -7 44 322 41 264 46 hstemhm
            51 51 -26 26 -26 51 335 51 -26 26 -26 50 hintmask 1111000010000000
            537 194 rmoveto
            91 -67 68 -84 28 vhcurveto
            hintmask 1110100100000000
            68 25 59 54 74 vvcurveto
            114 -113 62 -105 -105 -114 -63 -114 -73 58 -54 68 -25 vhcurveto
            hintmask 1111000010000000
            -74 -24 -77 -66 -94 vvcurveto
            -111 98 -93 142 132 114 78 123 vhcurveto
            -50 4 rmoveto
            -98 -99 -63 -92 -90 -104 59 101 98 98 64 93 90 104 -59 -102 vhcurveto
            hintmask 1110011000000000
            -360 333 rmoveto
            83 80 50 86 86 83 -48 -83 -85 -91 -48 -77 -76 -91 47 84 vhcurveto
            endchar
          </CharString>
          <CharString index="26">
            296 -10 -106 callsubr
            return
          </CharString>
          <CharString index="27">
            563 46 -499 hlineto
            501 622 rlineto
            42 -558 -46 498 vlineto
            -505 -622 rlineto
            return
          </CharString>
          <CharString index="28">
            rlineto
            5 18 35 9 28 hhcurveto
            29 20 -9 -27 -26 -20 -11 -38 -34 -34 10 9 -19 hvcurveto
            endchar
          </CharString>
          <CharString index="29">
            rmoveto
            34 16 -62 85 11 callsubr
            endchar
          </CharString>
          <CharString index="30">
            rmoveto
            -4 -6 -34 -20 -41 hhcurveto
            -33 -32 19 39 hvcurveto
            380 121 41 -121 178 -50 -178 -73 -41 73 -392 vlineto
            -60 47 -33 55 56 43 36 callsubr
          </CharString>
          <CharString index="31">
            21 -46 callsubr
            return
          </CharString>
          <CharString index="32">
            59 13 31 29 46 vvcurveto
            61 -64 47 -86 -62 -57 -25 -39 -23 vhcurveto
            25 -26 rlineto
            34 19 43 24 55 hhcurveto
            62 50 -32 -46 -47 -50 -24 -85 hvcurveto
            -23 -32 23 hlineto
            return
          </CharString>
          <CharString index="33">
            45 vlineto
            -14 -7 9 16 hvcurveto
            return
          </CharString>
          <CharString index="34">
            -74 callsubr
            660 -50 -323 vlineto
            66 -40 -73 56 -90 hhcurveto
            -138 -101 -125 -145 hvcurveto
            return
          </CharString>
          <CharString index="35">
            92 27 91 69 88 hhcurveto
            82 37 -59 -134 58 callgsubr
            return
          </CharString>
          <CharString index="36">
            -101 callsubr
            endchar
          </CharString>
          <CharString index="37">
            182 0 47 620 48 hstem
            54 52 554 52 vstem
            47 hmoveto
            289 47 hlineto
            -147 35 -83 150 133 vvcurveto
            150 106 152 171 171 106 -152 -150 -133 -83 -150 -147 -35 vhcurveto
            -47 289 47 -202 vlineto
            121 59 74 123 136 vvcurveto
            184 -140 166 -189 -189 -140 -166 -184 -136 73 -123 121 -59 vhcurveto
            -201 hlineto
            endchar
          </CharString>
          <CharString index="38">
            vhcurveto
            -74 callsubr
            return
          </CharString>
          <CharString index="39">
            90 59 -30 -49 -45 -53 -31 -67 -73 -53 39 38 -4 hvcurveto
            -23 return
          </CharString>
          <CharString index="40">
            44 14 36 29 41 vvcurveto
            62 -72 36 -68 -68 -73 -36 -63 -41 37 -28 42 -14 vhcurveto
            return
          </CharString>
          <CharString index="41">
            vmoveto
            -65 callgsubr
          </CharString>
          <CharString index="42">
            128 -48 -520 50 325 vlineto
            28 91 75 56 93 3 rrcurveto
            return
          </CharString>
          <CharString index="43">
            28 0 -45 callsubr
            return
          </CharString>
          <CharString index="44">
            136 0 46 290 42 286 46 hstem
            100 51 471 51 vstem
            336 15 callsubr
            -332 -65 -42 65 -336 hlineto
            522 356 rmoveto
            -176 -99 -134 -187 vhcurveto
            -185 290 178 42 -178 286 185 hlineto
            183 103 -129 -179 hvcurveto
            endchar
          </CharString>
          <CharString index="45">
            16 30 rlineto
            -33 5 -16 16 24 vvcurveto
            30 return
          </CharString>
          <CharString index="46">
            437 rmoveto
            81 64 63 78 79 -64 63 -81 -80 -65 -63 -79 -78 65 -63 80 hvcurveto
            32 vmoveto
            -57 -48 49 60 58 46 52 59 56 50 -49 -61 -57 -47 -52 -59 hvcurveto
            322 -479 rmoveto
            81 64 63 79 78 -64 63 -81 -80 -65 -63 -78 -79 65 -63 80 hvcurveto
            32 vmoveto
            -58 -47 49 61 57 46 52 59 56 50 -49 -60 -59 -47 -51 -59 hvcurveto
            return
          </CharString>
          <CharString index="47">
            vmoveto
            -59 callsubr
          </CharString>
          <CharString index="48">
            -106 callgsubr
            endchar
          </CharString>
          <CharString index="49">
            rmoveto
            -7 -11 0 -1 -13 hvcurveto
            -67 -7 -64 -49 -36 -73 rrcurveto
            return
          </CharString>
          <CharString index="50">
            91 21 -40 callsubr
            return
          </CharString>
          <CharString index="51">
            rmoveto
            74 -69 58 -88 -57 -55 -28 -43 -20 vhcurveto
            109 1 53 63 78 hhcurveto
            50 44 -25 -37 18 hvcurveto
            22 22 rlineto
            46 -22 -51 27 -60 hhcurveto
            -99 -68 -77 -160 -103 68 -62 95 89 71 60 76 hvcurveto
            -159 -103 rmoveto
            -69 -58 47 56 55 57 47 69 69 57 -47 -56 -55 -56 -47 -69 hvcurveto
            endchar
          </CharString>
          <CharString index="52">
            rmoveto
            -74 69 -59 88 58 54 29 42 20 vhcurveto
            -108 -1 -53 -63 -78 hhcurveto
            -50 -44 24 38 -17 hvcurveto
            -24 -22 rlineto
            -46 23 52 -27 59 hhcurveto
            100 67 76 161 102 -68 62 -95 -89 -71 -60 -75 hvcurveto
            159 103 rmoveto
            69 57 -48 -55 -55 -56 -47 -69 -68 -57 47 56 55 56 47 68 hvcurveto
            endchar
          </CharString>
          <CharString index="53">
            hvcurveto
            -150 199 rmoveto
            69 49 95 101 94 55 -87 -77 -69 -49 -95 -100 -97 -53 87 77 vhcurveto
            endchar
          </CharString>
          <CharString index="54">
            hmoveto
            -87 callsubr
            return
          </CharString>
          <CharString index="55">
            -44 callsubr
            230 -20 hstem
            return
          </CharString>
          <CharString index="56">
            -212 rmoveto
            48 294 hlineto
            -57 21 43 -35 68 hhcurveto
            87 83 56 77 39 hvcurveto
            -75 vlineto
            hintmask 10111100
            -29 22 -20 29 4 4 0 1 7 -69 callsubr
            450 -50 -328 vlineto
            hintmask 11011100
            -94 -31 -84 -63 -87 hhcurveto
            -89 -43 63 129 hvcurveto
            293 -50 vlineto
            endchar
          </CharString>
          <CharString index="57">
            -39 callsubr
            228 -43 callgsubr
            return
          </CharString>
          <CharString index="58">
            -36 -4 -25 -28 -27 hhcurveto
            endchar
          </CharString>
          <CharString index="59">
            -46 -105 vlineto
            hintmask 11101100
            65 -40 -76 49 -81 hhcurveto
            -139 -110 -126 -144 -139 95 -130 143 hvcurveto
            13 45 rmoveto
            -116 -84 104 119 113 85 113 121 80 94 -68 -77 11 hvcurveto
            -170 vlineto
            -72 -38 -65 -62 -88 hhcurveto
            endchar
          </CharString>
          <CharString index="60">
            -100 callgsubr
            endchar
          </CharString>
          <CharString index="61">
            -21 710 -20 return
          </CharString>
          <CharString index="62">
            46 295 44 279 46 return
          </CharString>
          <CharString index="63">
            -21 520 -20 return
          </CharString>
          <CharString index="64">
            44 -33 callsubr
            7 12 callgsubr
            279 -360 -271 -350 rlineto
            59 hlineto
            241 313 240 -313 rlineto
            58 hlineto
            -271 350 279 360 rlineto
            -58 hlineto
            -248 -323 -249 323 rlineto
            endchar
          </CharString>
          <CharString index="65">
            45 -15 -21 521 -20 return
          </CharString>
          <CharString index="66">
            12 -41 -50 8 -47 hhcurveto
            -127 -89 -64 -90 -91 75 -70 96 hvcurveto
            10 40 rmoveto
            -75 -58 54 70 69 70 47 104 46 45 -7 -13 41 hvcurveto
            1 -35 8 -40 15 -30 -1 -11 -6 -12 -9 -12 rrcurveto
            -49 -33 -71 -31 -77 hhcurveto
            return
          </CharString>
          <CharString index="67">
            -21 234 42 434 -20 return
          </CharString>
          <CharString index="68">
            172 -5 8 callsubr
            return
          </CharString>
          <CharString index="69">
            -97 callsubr
            hintmask 10110111
            -101 callsubr
            return
          </CharString>
          <CharString index="70">
            288 -8 -92 callsubr
            return
          </CharString>
          <CharString index="71">
            hmoveto
            268 247 vlineto
            120 81 108 114 108 -87 112 -120 hvcurveto
            -292 -710 hlineto
            51 664 rmoveto
            239 hlineto
            86 71 -81 -93 -90 -58 -85 -93 hvcurveto
            -245 hlineto
            endchar
          </CharString>
          <CharString index="72">
            44 345 -205 -41 161 -137 hlineto
            return
          </CharString>
          <CharString index="73">
            rmoveto
            244 -172 rlineto
            45 vlineto
            -202 143 202 144 rlineto
            45 vlineto
            -244 -175 rlineto
            return
          </CharString>
          <CharString index="74">
            -76 callsubr
            hstem
            return
          </CharString>
          <CharString index="75">
            94 hmoveto
            234 hlineto
            139 87 89 127 132 -84 83 -144 hvcurveto
            -181 279 -51 hlineto
            51 -324 rmoveto
            181 hlineto
            129 48 -76 -94 -93 -53 -77 -122 hvcurveto
            -183 hlineto
            return
          </CharString>
          <CharString index="76">
            rmoveto
            -49 -520 47 hlineto
            329 442 rlineto
            -442 50 520 -42 vlineto
            -335 -450 rlineto
            return
          </CharString>
          <CharString index="77">
            46 -424 664 -26 callgsubr
            vlineto
            return
          </CharString>
          <CharString index="78">
            133 -5 47 -21 -21 304 41 323 47 return
          </CharString>
          <CharString index="79">
            -71 callgsubr
            -10 callsubr
            52 return
          </CharString>
          <CharString index="80">
            45 449 45 return
          </CharString>
          <CharString index="81">
            vvcurveto
            63 -46 52 -94 -98 -52 -57 -10 -7 vhcurveto
            24 -24 rlineto
            22 19 40 35 69 hhcurveto
            72 34 -37 -43 -65 -77 -17 -61 -23 hvcurveto
            -81 -31 -44 -47 -101 vvcurveto
            endchar
          </CharString>
          <CharString index="82">
            219 vlineto
            145 149 285 -368 rlineto
            58 hlineto
            -310 399 295 311 rlineto
            -59 hlineto
            -414 -431 rlineto
            431 -26 callgsubr
            vlineto
            endchar
          </CharString>
          <CharString index="83">
            -96 callgsubr
            endchar
          </CharString>
          <CharString index="84">
            33 27 31 29 vhcurveto
            return
          </CharString>
          <CharString index="85">
            rmoveto
            77 78 45 69 42 hvcurveto
            -58 vlineto
            return
          </CharString>
          <CharString index="86">
            -224 308 217 211 rlineto
            -58 hlineto
            -316 -299 rlineto
            510 -50 -730 50 165 vlineto
            123 113 203 -278 rlineto
            endchar
          </CharString>
          <CharString index="87">
            -28 callsubr
            409 48 vstem
            return
          </CharString>
          <CharString index="88">
            -88 callgsubr
            endchar
          </CharString>
          <CharString index="89">
            35 328 35 hstem
            39 37 299 36 vstem
            226 return
          </CharString>
          <CharString index="90">
            41 hlineto
            231 393 rlineto
            -309 -35 return
          </CharString>
          <CharString index="91">
            hstemhm
            73 50 333 50 return
          </CharString>
          <CharString index="92">
            rmoveto
            -83 233 -49 -520 49 247 87 hlineto
            188 -247 rlineto
            57 hlineto
            -210 270 191 250 rlineto
            -58 hlineto
            endchar
          </CharString>
          <CharString index="93">
            -243 21 49 callsubr
            228 -5 callgsubr
            hintmask 10111000
            return
          </CharString>
          <CharString index="94">
            239 -10 -67 callgsubr
            return
          </CharString>
          <CharString index="95">
            -38 callgsubr
            78 50 vstem
            return
          </CharString>
          <CharString index="96">
            43 callgsubr
            391 50 return
          </CharString>
          <CharString index="97">
            -6 callsubr
            42 return
          </CharString>
          <CharString index="98">
            17 callsubr
            21 25 59 38 vhcurveto
            return
          </CharString>
          <CharString index="99">
            0 46 618 33 callsubr
            return
          </CharString>
          <CharString index="100">
            65 20 callgsubr
            return
          </CharString>
          <CharString index="101">
            201 -20 hstem
            return
          </CharString>
          <CharString index="102">
            203 -222 rmoveto
            -39 -36 11 21 -31 hvcurveto
            236 364 rlineto
            45 -41 29 -62 -68 vvcurveto
            -124 -92 -101 -112 vhcurveto
            return
          </CharString>
          <CharString index="103">
            rmoveto
            365 -35 vlineto
            -3 -2 -55 -52 -44 hhcurveto
            -35 vlineto
            34 52 30 18 15 hvcurveto
            -323 -87 -34 204 34 vlineto
            endchar
          </CharString>
          <CharString index="104">
            rmoveto
            85 71 42 65 51 -40 40 -62 10 hvcurveto
            return
          </CharString>
          <CharString index="105">
            33 -49 -58 20 -65 hhcurveto
            -189 -144 -171 -189 -106 45 -103 76 -69 hvcurveto
            -50 -77 rlineto
            57 hlineto
            31 48 rlineto
            return
          </CharString>
          <CharString index="106">
            -52 callsubr
            78 50 vstem
            -30 callgsubr
            50 638 rmoveto
            92 -50 -92 vlineto
            return
          </CharString>
          <CharString index="107">
            -20 hstem
            79 49 return
          </CharString>
          <CharString index="108">
            rmoveto
            -245 175 rlineto
            -45 vlineto
            203 -144 -203 -143 rlineto
            -45 vlineto
            245 172 rlineto
            endchar
          </CharString>
          <CharString index="109">
            253 -20 hstem
            255 35 vstem
            290 return
          </CharString>
          <CharString index="110">
            hstemhm
            35 48 330 50 return
          </CharString>
          <CharString index="111">
            206 -10 rmoveto
            return
          </CharString>
          <CharString index="112">
            45 37 callgsubr
            280 -10 rmoveto
            80 70 42 80 54 hvcurveto
            return
          </CharString>
          <CharString index="113">
            -134 179 rmoveto
            81 61 63 73 74 61 -62 -80 -79 -61 -65 -74 -74 -60 64 78 vhcurveto
            endchar
          </CharString>
          <CharString index="114">
            -20 hstem
            94 51 return
          </CharString>
          <CharString index="115">
            47 668 -20 return
          </CharString>
          <CharString index="116">
            -40 callgsubr
            230 -11 callsubr
            hintmask 11011110
            return
          </CharString>
          <CharString index="117">
            -25 13 callgsubr
          </CharString>
          <CharString index="118">
            rlineto
            -57 hlineto
            return
          </CharString>
          <CharString index="119">
            -21 callgsubr
            hintmask 1110100100000000
            44 14 36 29 41 vvcurveto
            62 -72 36 -68 -68 -73 return
          </CharString>
          <CharString index="120">
            -407 269 -21 101 -20 hstem
            67 44 vstem
            111 248 rmoveto
            101 -44 -101 vlineto
            endchar
          </CharString>
          <CharString index="121">
            vstem
            79 hmoveto
            175 hlineto
            100 71 65 101 103 -70 61 -101 hvcurveto
            -126 190 -49 hlineto
            return
          </CharString>
          <CharString index="122">
            hmoveto
            206 131 141 215 196 -112 158 -225 hvcurveto
            -236 return
          </CharString>
          <CharString index="123">
            -477 rmoveto
            244 126 vlineto
            84 37 -52 -69 -69 -39 -54 -82 hvcurveto
            endchar
          </CharString>
          <CharString index="124">
            rmoveto
            -62 callsubr
            return
          </CharString>
          <CharString index="125">
            21 99 rlineto
            91 -52 -91 19 vlineto
            -15 -99 rlineto
            return
          </CharString>
          <CharString index="126">
            hstem
            -10 callgsubr
            vstem
            return
          </CharString>
          <CharString index="127">
            0 42 callgsubr
            return
          </CharString>
          <CharString index="128">
            -130 -21 172 -21 return
          </CharString>
          <CharString index="129">
            15 -2 rmoveto
            95 3 47 78 34 282 14 118 rcurveline
            192 hlineto
            return
          </CharString>
          <CharString index="130">
            47 438 41 178 -20 hstem
            99 50 return
          </CharString>
          <CharString index="131">
            136 -111 140 -165 -159 -119 -131 -144 return
          </CharString>
          <CharString index="132">
            rlineto
            -28 -141 -37 141 -205 51 205 142 37 return
          </CharString>
          <CharString index="133">
            647 -84 callgsubr
            return
          </CharString>
          <CharString index="134">
            33 205 30 101 33 hstem
            41 34 255 34 vstem
            364 return
          </CharString>
          <CharString index="135">
            50 479 205 -479 50 520 -255 18 hlineto
            73 return
          </CharString>
          <CharString index="136">
            -76 callsubr
            138 88 hstem
            return
          </CharString>
          <CharString index="137">
            -5 callgsubr
            325 50 return
          </CharString>
          <CharString index="138">
            561 -21 190 -20 hstem
            return
          </CharString>
          <CharString index="139">
            -22 callgsubr
            hstem
            return
          </CharString>
          <CharString index="140">
            46 207 -20 hstem
            return
          </CharString>
          <CharString index="141">
            33 100 31 205 32 hstem
            34 35 254 34 vstem
            34 return
          </CharString>
          <CharString index="142">
            281 rlineto
            302 47 -340 hlineto
            0 -71 -354 -8 return
          </CharString>
          <CharString index="143">
            25 6 10 vhcurveto
            endchar
          </CharString>
          <CharString index="144">
            hhcurveto
            -24 -25 -3 -5 -23 hvcurveto
            81 87 28 55 69 vvcurveto
            return
          </CharString>
          <CharString index="145">
            327 -3 callsubr
            return
          </CharString>
          <CharString index="146">
            rmoveto
            -305 -520 49 481 256 hlineto
            endchar
          </CharString>
          <CharString index="147">
            21 -21 343 47 320 -20 return
          </CharString>
          <CharString index="148">
            5 5 1 1 8 return
          </CharString>
          <CharString index="149">
            35 8 -20 hstemhm
            return
          </CharString>
          <CharString index="150">
            -191 -21 202 -42 callsubr
            hstemhm
            return
          </CharString>
          <CharString index="151">
            99 -76 83 -103 -103 -75 -83 -99 -96 74 -84 104 return
          </CharString>
          <CharString index="152">
            349 44 -349 282 411 46 -462 return
          </CharString>
          <CharString index="153">
            -164 -21 185 57 callgsubr
            return
          </CharString>
          <CharString index="154">
            -10 32 219 32 164 32 219 32 hstem
            return
          </CharString>
          <CharString index="155">
            vlineto
            77 31 -46 -62 -61 -34 -49 -74 hvcurveto
            endchar
          </CharString>
          <CharString index="156">
            -21 475 45 2 -20 return
          </CharString>
          <CharString index="157">
            hlineto
            -53 -212 rlineto
            44 hlineto
            52 212 rlineto
            return
          </CharString>
          <CharString index="158">
            34 365 -20 hstem
            136 35 vstem
            171 return
          </CharString>
          <CharString index="159">
            -107 -81 -73 46 69 -36 hvcurveto
            -37 -21 rlineto
            -84 return
          </CharString>
          <CharString index="160">
            169 -5 47 -21 -21 668 47 -5 -20 return
          </CharString>
          <CharString index="161">
            115 -6 47 300 44 282 47 hstem
            return
          </CharString>
          <CharString index="162">
            42 -69 -84 -85 -49 -72 -113 hvcurveto
            endchar
          </CharString>
          <CharString index="163">
            hstem
            60 52 404 54 vstem
            return
          </CharString>
          <CharString index="164">
            hstem
            42 50 407 51 vstem
            return
          </CharString>
          <CharString index="165">
            -20 hstem
            82 51 return
          </CharString>
          <CharString index="166">
            8 -10 45 -15 -21 485 45 -8 -20 return
          </CharString>
          <CharString index="167">
            hstemhm
            35 48 109 28 81 27 85 50 return
          </CharString>
          <CharString index="168">
            -115 21 -21 247 40 233 -20 return
          </CharString>
          <CharString index="169">
            125 126 return
          </CharString>
        <CharString name=".notdef">
          -584 endchar
        </CharString>
        <CharString name="A">
          -57 callsubr
          hstem
          -103 callsubr
          endchar
        </CharString>
        <CharString name="A.sc">
          0 21 -21 175 41 329 -20 hstem
          72 hmoveto
          81 175 rlineto
          278 hlineto
          80 -175 rlineto
          50 hlineto
          -250 545 rlineto
          -39 hlineto
          -251 -545 rlineto
          396 216 rmoveto
          -252 hlineto
          127 270 rlineto
          endchar
        </CharString>
        <CharString name="AE">
          378 0 46 188 46 59 47 278 46 hstem
          445 53 vstem
          -27 hmoveto
          -34 callgsubr
        </CharString>
        <CharString name="AEacute">
          378 0 46 188 46 59 47 278 33 callsubr
          445 53 vstem
          577 917 -96 callgsubr
          -520 -816 rmoveto
          -34 callgsubr
        </CharString>
        <CharString name="Aacute">
          -57 callsubr
          227 -20 hstem
          -103 callsubr
          -72 641 -24 callsubr
        </CharString>
        <CharString name="Abreve">
          -57 callsubr
          135 5 callgsubr
          249 178 hintmask 11110100
          -103 callsubr
          -155 577 rmoveto
          hintmask 11101100
          -91 callsubr
          hintmask 11110100
          -49 callsubr
        </CharString>
        <CharString name="Acircumflex">
          -57 callsubr
          227 -20 hstem
          -103 callsubr
          -240 543 -47 callsubr
        </CharString>
        <CharString name="Adblgrave">
          -57 callsubr
          228 -20 hstem
          -103 callsubr
          -106 541 16 callgsubr
        </CharString>
        <CharString name="Adieresis">
          -57 callsubr
          138 88 hstem
          248 44 92 44 vstem
          -103 callsubr
          -201 552 -19 callsubr
        </CharString>
        <CharString name="Agrave">
          -57 callsubr
          228 -20 hstem
          -103 callsubr
          -154 541 -78 callsubr
        </CharString>
        <CharString name="Ainvertedbreve">
          -57 callsubr
          199 28 hstem
          249 178 vstem
          -103 callsubr
          -155 613 rmoveto
          -91 callgsubr
          -23 callsubr
          endchar
        </CharString>
        <CharString name="Amacron">
          -57 callsubr
          169 37 hstem
          -103 callsubr
          -12 583 -36 callgsubr
        </CharString>
        <CharString name="Aogonek">
          90 -148 -21 190 -40 callsubr
          hstem
          543 34 vstem
          610 -169 rmoveto
          -51 callgsubr
          -300 710 rlineto
          -44 hlineto
          -302 -710 rlineto
          55 hlineto
          99 234 rlineto
          339 hlineto
          99 -234 rlineto
          11 hlineto
          -51 -36 -22 -32 -33 -39 callgsubr
          -431 445 rmoveto
          158 372 155 -372 rlineto
          endchar
        </CharString>
        <CharString name="Aring">
          -57 callsubr
          102 23 79 23 hstem
          269 28 81 27 vstem
          -103 callsubr
          -224 579 -89 callsubr
          endchar
        </CharString>
        <CharString name="Aringacute">
          -57 callsubr
          99 23 106 -20 hstem
          269 28 81 27 vstem
          269 750 rmoveto
          -27 15 -22 24 -9 vhcurveto
          -294 -692 rlineto
          55 hlineto
          99 234 rlineto
          339 hlineto
          99 -234 rlineto
          54 hlineto
          -293 693 rlineto
          23 9 15 21 27 vvcurveto
          36 -29 26 -39 -39 -29 -26 -36 vhcurveto
          -89 -474 rmoveto
          158 372 155 -372 rlineto
          -156 513 rmoveto
          23 18 -15 -24 -23 -20 -17 -21 -23 -17 18 22 24 18 15 22 hvcurveto
          87 129 rmoveto
          -58 hlineto
          -61 -83 35 -16 rlineto
          endchar
        </CharString>
        <CharString name="Atilde">
          -57 callsubr
          144 -23 callgsubr
          hintmask 11110100
          -103 callsubr
          -94 558 -84 callgsubr
          hintmask 11111000
          -97 callgsubr
        </CharString>
        <CharString name="B">
          78 0 46 291 43 284 46 hstemhm
          93 51 392 50 -21 51 hintmask 11110100
          616 -60 callgsubr
        </CharString>
        <CharString name="B.sc">
          -9 0 41 214 40 208 42 hstemhm
          88 46 320 46 -22 47 hintmask 11110100
          525 141 rmoveto
          65 -42 55 -67 19 vhcurveto
          hintmask 11111000
          52 21 32 50 55 vvcurveto
          68 -51 71 -83 vhcurveto
          -278 -545 277 hlineto
          hintmask 11110100
          88 72 60 81 hvcurveto
          -47 7 rmoveto
          -55 -50 -52 -63 vhcurveto
          -231 214 237 hlineto
          61 46 -51 -56 hvcurveto
          -125 355 rmoveto
          hintmask 11111000
          59 42 -47 -57 -54 -45 -50 -61 hvcurveto
          -214 208 hlineto
          endchar
        </CharString>
        <CharString name="C">
          106 -6 -6 callgsubr
          hstem
          44 51 vstem
          44 360 -102 callsubr
          endchar
        </CharString>
        <CharString name="C.sc">
          12 -5 43 467 43 hstem
          47 47 vstem
          47 277 rmoveto
          -139 114 -143 162 91 104 45 82 40 vhcurveto
          -40 20 rlineto
          -73 -40 -82 -31 -70 hhcurveto
          -131 -101 111 124 113 82 119 148 68 75 -25 -74 40 hvcurveto
          39 23 rlineto
          69 -37 -77 50 -105 hhcurveto
          -178 -102 -141 -130 hvcurveto
          endchar
        </CharString>
        <CharString name="CR">
          -584 endchar
        </CharString>
        <CharString name="Cacute">
          -12 callgsubr
          vstem
          462 917 -96 callgsubr
          -334 -456 -102 callsubr
          endchar
        </CharString>
        <CharString name="Ccaron">
          -12 callgsubr
          vstem
          264 900 -92 callgsubr
          -250 -557 -102 callsubr
          endchar
        </CharString>
        <CharString name="Ccedilla">
          103 34 callgsubr
          42 46 626 47 hstem
          40 51 350 31 vstem
          282 -80 callgsubr
          29 48 104 5 115 58 45 101 rlinecurve
          -44 21 rlineto
          -97 -49 -99 -42 -86 hhcurveto
          -160 -124 149 167 150 101 160 180 83 91 -34 -98 50 hvcurveto
          42 24 rlineto
          90 -44 -92 65 -126 hhcurveto
          -213 -123 -183 -171 -175 129 -181 186 -9 hvcurveto
          -44 -80 -79 callsubr
        </CharString>
        <CharString name="Ccircumflex">
          -12 callgsubr
          vstem
          294 819 -100 callgsubr
          -220 -476 -102 callsubr
          endchar
        </CharString>
        <CharString name="Cdotaccent">
          -12 callgsubr
          261 46 vstem
          44 360 -102 callsubr
          358 467 -70 callgsubr
        </CharString>
        <CharString name="D">
          129 0 46 618 41 callgsubr
          329 hmoveto
          -95 callgsubr
        </CharString>
        <CharString name="D.sc">
          34 0 42 460 43 hstem
          88 46 387 47 vstem
          286 hmoveto
          172 110 108 166 150 -94 121 -188 hvcurveto
          -198 -545 hlineto
          433 274 rmoveto
          -132 -81 -100 -154 vhcurveto
          -152 460 152 hlineto
          151 84 -95 -133 hvcurveto
          endchar
        </CharString>
        <CharString name="Dcaron">
          129 -8 callsubr
          93 51 471 51 vstem
          232 900 -92 callgsubr
          67 -917 rmoveto
          -95 callgsubr
        </CharString>
        <CharString name="Dcroat">
          -63 callsubr
        </CharString>
        <CharString name="Ddotbelow">
          129 -130 -21 151 46 618 46 hstem
          93 51 171 46 254 51 vstem
          361 1 callgsubr
          14 151 rmoveto
          -95 callgsubr
        </CharString>
        <CharString name="Delta">
          27 20 callsubr
          327 12 callgsubr
          -42 hlineto
          -280 -669 rlineto
          -41 601 41 vlineto
          -544 5 rmoveto
          244 602 244 -602 rlineto
          endchar
        </CharString>
        <CharString name="E">
          -64 callsubr
          hstem
          93 51 vstem
          -81 callgsubr
          endchar
        </CharString>
        <CharString name="E.sc">
          -53 0 42 216 40 204 43 hstem
          88 46 vstem
          134 42 rmoveto
          216 299 40 -299 204 342 43 -388 -545 396 42 vlineto
          endchar
        </CharString>
        <CharString name="Eacute">
          -64 callsubr
          207 -20 hstem
          93 51 vstem
          423 917 -96 callgsubr
          -195 -770 -84 callsubr
          endchar
        </CharString>
        <CharString name="Ebreve">
          -64 callsubr
          115 5 callgsubr
          93 51 107 178 hintmask 11110110
          -81 callgsubr
          -226 807 rmoveto
          hintmask 11101110
          -91 callsubr
          hintmask 11110110
          -49 callsubr
        </CharString>
        <CharString name="Ecaron">
          -64 callsubr
          207 -20 hstem
          93 51 vstem
          225 900 -92 callgsubr
          -111 -871 -84 callsubr
          endchar
        </CharString>
        <CharString name="Ecircumflex">
          -64 callsubr
          207 -20 hstem
          93 51 vstem
          255 819 -100 callgsubr
          -81 -790 -84 callsubr
          endchar
        </CharString>
        <CharString name="Edblgrave">
          -64 callsubr
          208 -20 hstem
          93 51 vstem
          388 817 -90 callgsubr
          -45 -872 -84 callsubr
          endchar
        </CharString>
        <CharString name="Edieresis">
          -64 callsubr
          118 88 hstem
          93 51 105 44 92 44 vstem
          293 828 -88 callgsubr
          -241 -782 -84 callsubr
          endchar
        </CharString>
        <CharString name="Edotaccent">
          -64 callsubr
          207 -20 hstem
          93 51 172 46 vstem
          -81 callgsubr
          -204 781 -70 callgsubr
        </CharString>
        <CharString name="Edotbelow">
          28 -130 -21 151 -45 callsubr
          hstem
          93 51 164 46 vstem
          -81 callgsubr
          -212 -197 -70 callgsubr
        </CharString>
        <CharString name="Egrave">
          -64 callsubr
          208 -20 hstem
          93 51 vstem
          -81 callgsubr
          -225 771 -78 callsubr
        </CharString>
        <CharString name="Einvertedbreve">
          -64 callsubr
          115 9 callgsubr
          93 51 98 178 hintmask 11101110
          331 889 rmoveto
          hintmask 11110110
          -91 callgsubr
          hintmask 11101110
          -23 callsubr
          -187 -843 -84 callsubr
          endchar
        </CharString>
        <CharString name="Emacron">
          -64 callsubr
          149 37 hstem
          93 51 vstem
          -81 callgsubr
          -83 813 -36 callgsubr
        </CharString>
        <CharString name="Eng">
          186 -177 46 152 -21 709 -20 21 -20 hstemhm
          93 51 482 51 hintmask 11101100
          627 4 rmoveto
          -34 vlineto
          -58 -52 -43 -49 -26 -29 5 19 -22 vhcurveto
          -27 -33 rlineto
          -27 29 38 -10 42 hhcurveto
          71 75 61 87 hvcurveto
          738 -51 -622 vlineto
          hintmask 11011100
          -494 623 rlineto
          -39 -710 51 613 hlineto
          endchar
        </CharString>
        <CharString name="Eogonek">
          28 -148 -21 169 -45 callsubr
          hstem
          93 51 306 34 vstem
          144 46 -95 callsubr
          430 vlineto
          -51 -36 -22 -32 -33 -39 callgsubr
          -51 callgsubr
          46 vlineto
          endchar
        </CharString>
        <CharString name="Eth">
          -63 callsubr
        </CharString>
        <CharString name="Etilde">
          -64 callsubr
          124 -23 callgsubr
          93 51 hintmask 11110110
          -81 callgsubr
          -165 788 -84 callgsubr
          hintmask 11111010
          -97 callgsubr
        </CharString>
        <CharString name="Euro">
          223 -6 47 236 34 65 34 257 47 hstem
          81 410 rmoveto
          -15 -34 rlineto
          75 -16 hlineto
          -17 1 -16 2 -16 vhcurveto
          -96 hlineto
          -15 -34 rlineto
          117 hlineto
          -150 34 124 -133 164 hhcurveto
          109 126 58 107 47 hvcurveto
          -44 21 rlineto
          -97 -49 -99 -42 -86 hhcurveto
          -134 -109 104 132 -32 hvcurveto
          301 hlineto
          16 34 rlineto
          -323 hlineto
          -2 15 -1 15 16 vvcurveto
          19 348 vlineto
          15 34 rlineto
          -359 hlineto
          132 20 98 125 159 hhcurveto
          83 91 -34 -98 50 hvcurveto
          42 24 rlineto
          90 -44 -92 65 -126 hhcurveto
          -193 -118 -149 -155 -22 hvcurveto
          endchar
        </CharString>
        <CharString name="F">
          10 21 -21 338 44 282 46 hstem
          93 51 vstem
          144 hmoveto
          338 45 callsubr
          -710 vlineto
          endchar
        </CharString>
        <CharString name="F.sc">
          -69 21 -21 255 41 206 43 hstem
          88 46 vstem
          134 hmoveto
          255 289 41 -289 206 340 43 -386 -545 vlineto
          endchar
        </CharString>
        <CharString name="G">
          -29 callsubr
          hstemhm
          44 51 521 44 hintmask 01111100
          616 hmoveto
          -35 callsubr
          hintmask 10111100
          -98 callgsubr
          endchar
        </CharString>
        <CharString name="G.alt">
          149 -5 47 253 46 327 47 hstem
          44 52 vstem
          379 -5 rmoveto
          177 131 148 165 18 hvcurveto
          8 1 20 5 vvcurveto
          -277 -46 222 hlineto
          -130 -20 -106 -123 -148 hhcurveto
          -167 -114 154 157 157 111 158 169 106 82 -65 -76 46 hvcurveto
          39 33 rlineto
          92 -56 -96 63 -118 hhcurveto
          -193 -142 -171 -187 -185 140 -177 195 hvcurveto
          endchar
        </CharString>
        <CharString name="G.sc">
          34 -4 43 -18 -21 229 37 240 42 hstemhm
          47 47 425 41 hintmask 01111100
          519 hmoveto
          41 266 -174 -37 133 -98 hlineto
          hintmask 10111100
          -63 -59 -64 -29 -69 hhcurveto
          -131 -102 108 125 118 86 116 137 82 68 -31 -69 39 hvcurveto
          38 24 rlineto
          69 -37 -71 49 -117 hhcurveto
          -158 -114 -130 -144 -139 116 -139 160 73 66 27 58 57 hvcurveto
          endchar
        </CharString>
        <CharString name="Gacute">
          -29 callsubr
          202 -20 hstemhm
          44 51 521 44 hintmask 01111110
          455 917 -96 callgsubr
          245 -816 rmoveto
          -35 callsubr
          hintmask 10111110
          -98 callgsubr
          endchar
        </CharString>
        <CharString name="Gbreve">
          -29 callsubr
          110 5 callgsubr
          44 51 186 178 157 44 hintmask 0111101110000000
          616 hmoveto
          -35 callsubr
          hintmask 1011101110000000
          -98 callgsubr
          hintmask 0111101110000000
          -246 742 rmoveto
          hintmask 1011011110000000
          -91 callsubr
          hintmask 1011101110000000
          -49 callsubr
        </CharString>
        <CharString name="Gcircumflex">
          -29 callsubr
          202 -20 hstemhm
          44 51 521 44 hintmask 01111110
          285 819 -100 callgsubr
          361 -836 rmoveto
          -35 callsubr
          hintmask 10111110
          -98 callgsubr
          endchar
        </CharString>
        <CharString name="Gcommaaccent">
          133 -166 -21 182 47 -21 -21 304 41 323 47 hstemhm
          44 51 256 49 216 44 hintmask 10111111
          379 -85 callgsubr
          264 187 rmoveto
          -35 callsubr
          hintmask 11011111
          -98 callgsubr
          endchar
        </CharString>
        <CharString name="Gdotaccent">
          -29 callsubr
          202 -20 hstemhm
          44 51 251 46 224 44 hintmask 01111111
          616 hmoveto
          -35 callsubr
          hintmask 10111111
          -98 callgsubr
          hintmask 01111111
          -224 716 -70 callgsubr
        </CharString>
        <CharString name="H">
          60 callgsubr
          hstem
          93 51 448 51 vstem
          592 710 -47 callgsubr
          endchar
        </CharString>
        <CharString name="H.sc">
          53 21 -21 257 43 245 -20 hstem
          88 46 368 47 vstem
          502 545 rmoveto
          -245 -368 245 -46 -545 46 257 368 -257 47 545 vlineto
          endchar
        </CharString>
        <CharString name="Hbar">
          161 21 -21 340 46 165 32 127 -20 hstem
          98 51 448 51 vstem
          597 12 callgsubr
          -127 -448 127 -51 -127 -50 -32 50 -551 51 340 448 -340 51 551 50 32 -50 127 vlineto
          -499 -324 rmoveto
          165 448 -165 vlineto
          endchar
        </CharString>
        <CharString name="Hcircumflex">
          60 callgsubr
          227 -20 hstem
          93 51 448 51 vstem
          285 819 -100 callgsubr
          337 -126 -47 callgsubr
          endchar
        </CharString>
        <CharString name="Hdotbelow">
          151 21 callsubr
          340 46 324 -20 hstem
          93 51 204 46 198 51 vstem
          592 710 -47 callgsubr
          -249 -861 -70 callgsubr
        </CharString>
        <CharString name="I">
          -347 21 -21 710 -48 callgsubr
          endchar
        </CharString>
        <CharString name="I.sc">
          -362 21 -21 544 -20 hstem
          88 46 vstem
          134 hmoveto
          544 -46 -544 vlineto
          endchar
        </CharString>
        <CharString name="IJ">
          131 -11 47 -15 -46 callsubr
          hstemhm
          93 51 436 51 hintmask 01111000
          -64 callgsubr
          160 33 rmoveto
          hintmask 10111000
          -85 callsubr
          endchar
        </CharString>
        <CharString name="Iacute">
          -347 21 -21 710 -20 227 -48 callgsubr
          108 917 -24 callsubr
        </CharString>
        <CharString name="Ibreve">
          -347 -76 callsubr
          135 5 callgsubr
          30 178 -115 51 hintmask 11100100
          -64 callgsubr
          26 853 rmoveto
          hintmask 11011000
          -91 callsubr
          hintmask 11101000
          -49 callsubr
        </CharString>
        <CharString name="Icircumflex">
          -347 21 -21 710 -20 227 -48 callgsubr
          -60 819 -47 callsubr
        </CharString>
        <CharString name="Idblgrave">
          -347 -76 callsubr
          228 -48 callgsubr
          85 817 16 callgsubr
        </CharString>
        <CharString name="Idieresis">
          -347 29 callsubr
          28 44 21 51 20 44 vstem
          -64 callgsubr
          -21 828 -19 callsubr
        </CharString>
        <CharString name="Idotaccent">
          -347 21 -21 710 -20 227 -48 callgsubr
          48 827 -70 callgsubr
        </CharString>
        <CharString name="Idotbelow">
          -347 21 callsubr
          710 -48 callgsubr
          47 1 callgsubr
          endchar
        </CharString>
        <CharString name="Igrave">
          -347 -76 callsubr
          228 -48 callgsubr
          26 817 -78 callsubr
        </CharString>
        <CharString name="Iinvertedbreve">
          -347 -76 callsubr
          135 9 callgsubr
          28 178 -113 51 hintmask 11010100
          -64 callgsubr
          24 889 rmoveto
          hintmask 11101000
          -91 callgsubr
          hintmask 11011000
          -23 callsubr
          endchar
        </CharString>
        <CharString name="Imacron">
          -347 -76 callsubr
          169 37 hstem
          93 51 vstem
          -64 callgsubr
          168 859 -36 callgsubr
        </CharString>
        <CharString name="Iogonek">
          -347 -148 -21 190 -46 callsubr
          hstem
          28 34 31 51 vstem
          95 -169 rmoveto
          -51 callgsubr
          710 -26 callgsubr
          8 vlineto
          -51 -36 -22 -32 -33 -39 callgsubr
          endchar
        </CharString>
        <CharString name="Itilde">
          -347 38 callgsubr
          93 51 hintmask 11101100
          -64 callgsubr
          86 834 -84 callgsubr
          hintmask 11110100
          -97 callgsubr
        </CharString>
        <CharString name="J">
          -106 -11 47 674 -20 hstem
          343 51 vstem
          16 33 rmoveto
          -85 callsubr
          endchar
        </CharString>
        <CharString name="J.sc">
          -163 -8 42 510 -20 hstem
          294 46 vstem
          23 25 rmoveto
          -22 35 43 -11 51 hhcurveto
          168 20 110 166 hvcurveto
          276 -46 -276 vlineto
          -149 -15 -85 -127 -48 -40 13 16 -26 vhcurveto
          endchar
        </CharString>
        <CharString name="Jcircumflex">
          -106 -11 47 674 -20 227 -20 hstem
          343 51 vstem
          284 819 -100 callgsubr
          -238 -803 rmoveto
          -85 callsubr
          endchar
        </CharString>
        <CharString name="K">
          51 40 callgsubr
          vstem
          144 hmoveto
          -25 callsubr
        </CharString>
        <CharString name="K.sc">
          -30 21 -21 544 -20 21 -20 hstemhm
          88 46 hintmask 10110000
          134 hmoveto
          168 vlineto
          120 109 234 -277 rlineto
          52 hlineto
          -257 306 245 239 rlineto
          -54 hlineto
          -340 -324 rlineto
          hintmask 11010000
          323 -46 -544 vlineto
          endchar
        </CharString>
        <CharString name="Kcommaaccent">
          51 4 callgsubr
          710 -20 hstem
          93 51 153 49 vstem
          325 -85 callgsubr
          -154 187 rmoveto
          -25 callsubr
        </CharString>
        <CharString name="L">
          -3 20 callsubr
          93 51 vstem
          568 hmoveto
          -30 callsubr
          endchar
        </CharString>
        <CharString name="L.sc">
          -86 0 42 503 -20 hstem
          88 46 vstem
          477 hmoveto
          42 -343 503 -46 -545 vlineto
          endchar
        </CharString>
        <CharString name="Lacute">
          -3 0 46 664 -20 227 -20 hstem
          93 51 vstem
          422 917 -96 callgsubr
          230 -816 rmoveto
          -30 callsubr
          endchar
        </CharString>
        <CharString name="Lcaron">
          -3 0 46 684 -20 hstem
          93 51 vstem
          456 730 -96 callgsubr
          196 -629 rmoveto
          -30 callsubr
          endchar
        </CharString>
        <CharString name="Lcommaaccent">
          -3 -166 -21 187 42 callgsubr
          93 51 161 49 vstem
          333 -85 callgsubr
          262 187 rmoveto
          -30 callsubr
          endchar
        </CharString>
        <CharString name="Ldot">
          -3 20 callsubr
          93 51 222 44 vstem
          568 hmoveto
          -30 callsubr
          317 353 rmoveto
          101 -44 -101 vlineto
          endchar
        </CharString>
        <CharString name="Lslash">
          4 20 callsubr
          100 51 vstem
          575 hmoveto
          46 -424 279 vlineto
          186 167 -19 30 -167 -149 rlineto
          337 -51 -383 vlineto
          -79 -70 19 -31 60 53 rlineto
          -279 vlineto
          endchar
        </CharString>
        <CharString name="M">
          296 40 callgsubr
          592 51 vstem
          787 hmoveto
          710 -51 vlineto
          -296 -508 -296 508 rlineto
          -26 callgsubr
          51 614 hlineto
          280 -479 rlineto
          32 hlineto
          280 479 rlineto
          -614 vlineto
          endchar
        </CharString>
        <CharString name="M.sc">
          172 33 callgsubr
          88 46 487 47 vstem
          668 hmoveto
          545 -47 vlineto
          -243 -381 -243 381 rlineto
          -47 -545 46 459 hlineto
          230 -357 rlineto
          28 hlineto
          229 357 rlineto
          -459 vlineto
          endchar
        </CharString>
        <CharString name="N">
          189 40 callgsubr
          486 51 vstem
          634 hmoveto
          -77 callgsubr
          endchar
        </CharString>
        <CharString name="N.sc">
          83 21 -21 544 -20 21 -20 hstemhm
          88 46 399 46 hintmask 11011000
          537 hmoveto
          42 544 -46 -464 hlineto
          hintmask 10111000
          -409 465 rlineto
          -36 -545 46 457 hlineto
          endchar
        </CharString>
        <CharString name="NULL">
          -584 endchar
        </CharString>
        <CharString name="Nacute">
          7 callgsubr
          486 51 vstem
          473 917 -96 callgsubr
          245 -816 rmoveto
          -77 callgsubr
          endchar
        </CharString>
        <CharString name="Ncaron">
          7 callgsubr
          486 51 vstem
          276 900 -92 callgsubr
          328 -917 rmoveto
          -77 callgsubr
          endchar
        </CharString>
        <CharString name="Ncommaaccent">
          189 4 callgsubr
          710 -20 hstem
          93 51 220 49 217 51 vstem
          392 -85 callgsubr
          269 187 rmoveto
          -77 callgsubr
          endchar
        </CharString>
        <CharString name="Ndotaccent">
          7 callgsubr
          223 46 217 51 vstem
          413 827 rmoveto
          90 -46 -90 vlineto
          267 -827 rmoveto
          -77 callgsubr
          endchar
        </CharString>
        <CharString name="Ntilde">
          189 38 callgsubr
          93 51 486 51 hintmask 11101110
          634 hmoveto
          -77 callgsubr
          308 220 -84 callgsubr
          hintmask 11110110
          -97 callgsubr
        </CharString>
        <CharString name="O">
          -45 callgsubr
          19 callsubr
          -83 callgsubr
          endchar
        </CharString>
        <CharString name="O.sc">
          64 -4 43 466 43 hstem
          47 47 460 47 vstem
          324 -4 rmoveto
          158 119 130 146 24 callsubr
          -141 112 -136 165 hvcurveto
          -230 276 rmoveto
          115 91 118 139 133 97 -111 -121 -115 -90 -119 -139 -136 -95 112 121 vhcurveto
          endchar
        </CharString>
        <CharString name="OE">
          589 -5 51 -25 -21 339 47 278 46 5 -20 hstemhm
          44 51 564 50 hintmask 10110110
          709 46 rmoveto
          293 356 47 -356 278 410 46 -460 -201 vlineto
          hintmask 10101110
          113 -44 -104 93 -134 hhcurveto
          -189 -144 -171 -189 -182 136 -178 198 128 107 90 115 46 hvcurveto
          hintmask 01110110
          -200 469 vlineto
          hintmask 10110110
          46 vlineto
          -751 -4 rmoveto
          -166 -116 150 163 155 112 158 170 162 118 -150 -162 -156 -110 -158 -170 hvcurveto
          endchar
        </CharString>
        <CharString name="Oacute">
          -45 callgsubr
          202 -20 19 callsubr
          460 917 -96 callgsubr
          -821 -60 callsubr
        </CharString>
        <CharString name="Obreve">
          -45 callgsubr
          110 5 callgsubr
          44 51 194 178 190 52 hintmask 11101110
          -83 callgsubr
          283 498 rmoveto
          hintmask 11011110
          -91 callsubr
          hintmask 11101110
          -49 callsubr
        </CharString>
        <CharString name="Ocircumflex">
          -45 callgsubr
          202 -20 19 callsubr
          292 819 -100 callgsubr
          114 -841 rmoveto
          -59 callsubr
        </CharString>
        <CharString name="Odblgrave">
          -45 callgsubr
          -47 250 32 callgsubr
          hintmask 10111000
          431 817 -90 callgsubr
          144 -923 rmoveto
          189 144 169 191 hvcurveto
          hintmask 11011000
          177 -134 183 -198 -189 -144 -171 -189 -182 135 -177 197 -1 vhcurveto
          -27 callgsubr
        </CharString>
        <CharString name="Odieresis">
          -45 callgsubr
          113 88 hstem
          44 51 192 44 92 44 190 52 vstem
          331 828 -88 callgsubr
          -47 -833 rmoveto
          -59 callsubr
        </CharString>
        <CharString name="Odotbelow">
          169 -130 -21 146 -6 callgsubr
          hstem
          44 51 258 46 258 52 vstem
          399 1 callgsubr
          23 146 rmoveto
          -59 callsubr
        </CharString>
        <CharString name="Ograve">
          169 -5 2 callgsubr
          562 52 vstem
          -83 callgsubr
          283 462 -78 callsubr
        </CharString>
        <CharString name="Ohungarumlaut">
          -45 callgsubr
          -47 250 32 callgsubr
          hintmask 10111000
          397 918 -54 callgsubr
          -54 -822 rmoveto
          189 144 169 191 hvcurveto
          hintmask 11011000
          177 -134 183 -198 -189 -144 -171 -189 -182 135 -177 197 -1 vhcurveto
          -27 callgsubr
        </CharString>
        <CharString name="Oinvertedbreve">
          -45 callgsubr
          110 9 callgsubr
          44 51 192 178 192 52 hintmask 11011110
          376 889 rmoveto
          hintmask 11101110
          -91 callgsubr
          hintmask 11011110
          -23 callsubr
          -894 -60 callsubr
        </CharString>
        <CharString name="Omacron">
          -45 callgsubr
          144 37 19 callsubr
          520 859 rmoveto
          37 -285 -37 vlineto
          141 -864 rmoveto
          -59 callsubr
        </CharString>
        <CharString name="Omega">
          -70 callsubr
        </CharString>
        <CharString name="Oogonek">
          169 -151 -21 168 46 626 47 hstem
          44 51 185 34 343 52 vstem
          347 -172 -9 callsubr
          180 10 135 164 185 vvcurveto
          177 -134 183 -198 -189 -144 -171 -189 -175 124 -170 184 -14 vhcurveto
          -50 -36 -22 -31 -33 -39 callgsubr
          -252 527 rmoveto
          155 112 158 170 162 118 -150 -163 -154 -110 -159 -170 -166 -116 150 163 vhcurveto
          endchar
        </CharString>
        <CharString name="Oslash">
          53 callsubr
          32 callgsubr
          hintmask 10011100
          581 12 callgsubr
          -32 -48 rlineto
          hintmask 01101100
          -2 callsubr
          hintmask 10011100
          0 callgsubr
          hintmask 10101100
          155 112 158 170 54 50 -17 -29 42 vhcurveto
          -331 -504 rlineto
          -61 59 -36 87 91 vvcurveto
          562 hmoveto
          -154 -110 -159 -170 -56 -50 17 28 -42 vhcurveto
          331 504 rlineto
          60 -59 37 -87 -90 vvcurveto
          endchar
        </CharString>
        <CharString name="Oslashacute">
          53 callsubr
          227 -20 32 callgsubr
          hintmask 10011110
          581 12 callgsubr
          -32 -48 rlineto
          hintmask 01101110
          -2 callsubr
          hintmask 10011110
          0 callgsubr
          hintmask 10101110
          155 112 158 170 54 50 -17 -29 42 vhcurveto
          -331 -504 rlineto
          -61 59 -36 87 91 vvcurveto
          562 hmoveto
          -154 -110 -159 -170 -56 -50 17 28 -42 vhcurveto
          331 504 rlineto
          60 -59 37 -87 -90 vvcurveto
          -197 562 -24 callsubr
        </CharString>
        <CharString name="Otilde">
          -45 callgsubr
          119 35 5 35 8 -20 32 callgsubr
          hintmask 11101110
          -83 callgsubr
          343 479 -84 callgsubr
          hintmask 11110110
          -97 callgsubr
        </CharString>
        <CharString name="P">
          37 20 callgsubr
          hstem
          93 51 396 52 vstem
          144 -36 callsubr
        </CharString>
        <CharString name="P.sc">
          -44 21 -21 203 42 257 43 hstem
          88 46 324 47 vstem
          134 hmoveto
          203 204 vlineto
          100 67 84 87 84 -72 87 -101 hvcurveto
          -244 -545 hlineto
          46 502 rmoveto
          196 hlineto
          71 57 -59 -69 -67 -47 -62 -76 hvcurveto
          -201 hlineto
          endchar
        </CharString>
        <CharString name="Q">
          168 -5 47 -21 -21 668 47 32 callgsubr
          hintmask 01111000
          632 hmoveto
          53 hlineto
          -79 95 rlineto
          64 67 39 93 100 vvcurveto
          177 -134 183 -198 -189 -144 -171 -189 vhcurveto
          hintmask 10111000
          -182 135 -177 197 -1 vhcurveto
          76 69 27 45 55 hvcurveto
          hintmask 01111000
          hintmask 10111000
          -199 -25 rmoveto
          -166 -116 150 163 155 112 158 170 162 118 -150 -163 -81 -30 -81 -53 -60 hvcurveto
          -60 73 rlineto
          -53 hlineto
          84 -102 rlineto
          -38 -45 -57 -24 -66 hhcurveto
          endchar
        </CharString>
        <CharString name="Q.sc">
          63 -4 43 -18 -21 506 42 hstemhm
          47 47 460 47 hintmask 01111000
          536 hmoveto
          48 hlineto
          -67 75 rlineto
          52 51 32 71 75 vvcurveto
          24 callsubr
          vhcurveto
          hintmask 10111000
          -141 112 -136 165 63 58 21 34 45 vhcurveto
          hintmask 01111000
          hintmask 10111000
          -165 -12 rmoveto
          -136 -95 112 121 115 91 119 139 133 97 -112 -121 -60 -24 -60 -43 -45 hvcurveto
          -49 56 rlineto
          -48 hlineto
          71 -80 rlineto
          -28 -37 -46 -17 -53 hhcurveto
          endchar
        </CharString>
        <CharString name="R">
          -7 callsubr
          hstem
          93 51 400 51 vstem
          144 hmoveto
          -101 callgsubr
          endchar
        </CharString>
        <CharString name="R.sc">
          -20 0 245 -42 42 257 43 hstemhm
          88 46 328 47 hintmask 10111000
          134 hmoveto
          hintmask 01111000
          203 189 vlineto
          hintmask 10111000
          141 -203 rlineto
          54 hlineto
          -146 211 rlineto
          81 13 56 71 79 vvcurveto
          84 -73 87 -100 vhcurveto
          -248 -545 hlineto
          46 502 rmoveto
          199 hlineto
          72 57 -60 -68 -66 -49 -63 -75 hvcurveto
          -204 hlineto
          endchar
        </CharString>
        <CharString name="Racute">
          -7 callsubr
          210 -20 hstem
          93 51 400 51 vstem
          400 920 -96 callgsubr
          -172 -819 rmoveto
          -101 callgsubr
          endchar
        </CharString>
        <CharString name="Rcaron">
          -7 callsubr
          210 -20 hstem
          93 51 400 51 vstem
          202 903 -92 callgsubr
          -88 -920 rmoveto
          -101 callgsubr
          endchar
        </CharString>
        <CharString name="Rcommaaccent">
          65 -166 -21 208 -11 callgsubr
          hstem
          93 51 152 49 199 51 vstem
          324 -85 callgsubr
          -153 187 rmoveto
          -101 callgsubr
          endchar
        </CharString>
        <CharString name="Rdblgrave">
          -7 callsubr
          208 -20 hstem
          93 51 400 51 vstem
          379 817 -90 callgsubr
          -36 -918 rmoveto
          -101 callgsubr
          endchar
        </CharString>
        <CharString name="Rdotbelow">
          65 -130 -21 172 -11 callgsubr
          hstem
          93 51 159 46 195 51 vstem
          144 hmoveto
          -101 callgsubr
          205 -466 -70 callgsubr
        </CharString>
        <CharString name="Rinvertedbreve">
          -7 callsubr
          115 9 callgsubr
          93 51 89 178 133 51 hintmask 11101111
          322 889 rmoveto
          hintmask 11110111
          -91 callgsubr
          hintmask 11101111
          -23 callsubr
          -178 -889 rmoveto
          -101 callgsubr
          endchar
        </CharString>
        <CharString name="S">
          21 -6 45 630 46 56 callsubr
          532 632 -105 callsubr
          endchar
        </CharString>
        <CharString name="S.sc">
          -60 -5 41 471 41 hstem
          61 48 326 49 vstem
          453 485 rmoveto
          42 -47 -60 21 -76 hhcurveto
          -123 -86 -53 -99 -90 66 -28 125 -25 hvcurveto
          123 -24 60 -24 -69 vvcurveto
          -67 -63 -33 -97 -89 -72 30 47 -49 vhcurveto
          -25 -38 rlineto
          -53 65 77 -27 92 hhcurveto
          125 85 48 98 98 -79 28 -126 25 hvcurveto
          -118 24 -52 18 66 vvcurveto
          66 48 41 113 69 53 -20 -39 39 vhcurveto
          endchar
        </CharString>
        <CharString name="Sacute">
          -9 callgsubr
          395 936 -96 callgsubr
          221 -203 -105 callsubr
          endchar
        </CharString>
        <CharString name="Scaron">
          -9 callgsubr
          197 919 -92 callgsubr
          305 -304 -105 callsubr
          endchar
        </CharString>
        <CharString name="Schwa">
          154 -8 48 289 46 292 48 hstem
          30 56 551 56 vstem
          365 -8 rmoveto
          183 145 158 199 202 -148 164 -182 -121 -118 -72 -99 -44 hvcurveto
          49 -23 rlineto
          87 32 97 59 100 hhcurveto
          145 121 -125 -167 13 hvcurveto
          -605 hlineto
          -1 -3 -1 -14 -7 vvcurveto
          -199 1 146 -160 188 hhcurveto
          48 vmoveto
          -150 -118 123 166 -11 hvcurveto
          552 hlineto
          -166 -9 -116 -123 -148 hhcurveto
          endchar
        </CharString>
        <CharString name="Scircumflex">
          -9 callgsubr
          227 838 -100 callgsubr
          335 -223 -105 callsubr
          endchar
        </CharString>
        <CharString name="Sdotbelow">
          21 -130 -21 145 45 630 46 hstem
          60 52 174 46 184 54 vstem
          532 632 -105 callsubr
          -174 -743 -70 callgsubr
        </CharString>
        <CharString name="T">
          22 21 -21 664 46 hstem
          278 51 vstem
          589 710 -42 callgsubr
        </CharString>
        <CharString name="T.sc">
          -59 21 -21 502 43 hstem
          240 46 vstem
          501 545 rmoveto
          -477 -43 216 -502 46 502 215 hlineto
          endchar
        </CharString>
        <CharString name="Tbar">
          57 21 -21 380 32 252 46 hstem
          295 51 vstem
          606 12 callgsubr
          -571 -46 260 -252 -228 -32 228 -380 51 380 228 32 -228 252 260 hlineto
          endchar
        </CharString>
        <CharString name="Tcaron">
          22 21 -21 664 33 callsubr
          278 51 vstem
          190 900 -92 callgsubr
          369 -207 -42 callgsubr
        </CharString>
        <CharString name="Tdotbelow">
          22 21 callsubr
          664 46 hstem
          278 51 vstem
          325 1 callgsubr
          310 861 -42 callgsubr
        </CharString>
        <CharString name="Thorn">
          17 21 -21 124 47 348 47 144 -20 hstem
          93 51 378 50 vstem
          366 566 rmoveto
          -222 144 -26 callgsubr
          51 124 228 hlineto
          120 80 107 114 109 -86 112 -120 hvcurveto
          5 -395 rmoveto
          -227 348 220 hlineto
          87 71 -82 -92 -87 -58 -87 -93 hvcurveto
          endchar
        </CharString>
        <CharString name="U">
          172 -5 47 668 -43 callgsubr
          endchar
        </CharString>
        <CharString name="U.sc">
          66 -4 43 506 -20 hstem
          79 46 400 46 vstem
          324 39 rmoveto
          -153 -46 114 118 hvcurveto
          274 -46 -274 vlineto
          -139 60 -136 186 182 64 128 147 vhcurveto
          274 -46 -274 vlineto
          -115 -44 -117 -157 vhcurveto
          endchar
        </CharString>
        <CharString name="Uacute">
          -39 callsubr
          227 58 callsubr
          490 51 vstem
          462 917 -96 callgsubr
          -774 -66 callsubr
        </CharString>
        <CharString name="Ubreve">
          -39 callsubr
          135 5 callgsubr
          82 51 157 178 155 51 hintmask 11101110
          -93 callgsubr
          1 811 rmoveto
          hintmask 11011110
          -91 callsubr
          hintmask 11101110
          -49 callsubr
        </CharString>
        <CharString name="Ucircumflex">
          -39 callsubr
          227 58 callsubr
          490 51 vstem
          294 819 -100 callgsubr
          114 -794 rmoveto
          -65 callgsubr
        </CharString>
        <CharString name="Udblgrave">
          -39 callsubr
          228 58 callsubr
          490 51 vstem
          438 817 -90 callgsubr
          139 -876 rmoveto
          -65 callgsubr
        </CharString>
        <CharString name="Udieresis">
          -39 callsubr
          138 88 hstem
          82 51 155 44 92 44 155 51 vstem
          332 828 -88 callgsubr
          -46 -786 rmoveto
          -65 callgsubr
        </CharString>
        <CharString name="Udotbelow">
          172 -130 -21 146 47 668 58 callsubr
          225 46 219 51 vstem
          -93 callgsubr
          26 -193 -70 callgsubr
        </CharString>
        <CharString name="Ugrave">
          -50 callsubr
          2 775 -78 callsubr
        </CharString>
        <CharString name="Uhungarumlaut">
          -50 callsubr
          20 876 -54 callgsubr
          endchar
        </CharString>
        <CharString name="Uinvertedbreve">
          -39 callsubr
          135 9 callgsubr
          82 51 156 178 156 51 cntrmask 00001110
          hintmask 11011110
          378 889 rmoveto
          hintmask 11101110
          -91 callgsubr
          hintmask 11011110
          -23 callsubr
          -847 -66 callsubr
        </CharString>
        <CharString name="Umacron">
          -39 callsubr
          169 37 -73 callgsubr
          143 817 -36 callgsubr
        </CharString>
        <CharString name="Uogonek">
          172 -151 -21 168 46 668 58 callsubr
          148 34 308 51 vstem
          378 42 rmoveto
          -189 -56 154 157 hvcurveto
          357 -51 -357 vlineto
          -173 65 -171 206 -13 vhcurveto
          -50 -36 -22 -31 -33 -39 callgsubr
          -62 callsubr
          21 25 58 38 vhcurveto
          206 7 74 164 186 vvcurveto
          357 -51 -357 vlineto
          -153 -53 -158 -192 vhcurveto
          endchar
        </CharString>
        <CharString name="Uring">
          -39 callsubr
          102 23 79 23 hstem
          82 51 177 28 81 27 177 51 vstem
          310 855 -89 callsubr
          -852 -66 callsubr
        </CharString>
        <CharString name="Utilde">
          -39 callsubr
          144 -23 callgsubr
          82 51 490 51 hintmask 11101110
          -93 callgsubr
          62 792 -84 callgsubr
          hintmask 11110110
          -97 callgsubr
        </CharString>
        <CharString name="V">
          95 -33 callsubr
          15 12 callgsubr
          301 -710 rlineto
          47 hlineto
          300 710 rlineto
          -54 hlineto
          -270 -646 -270 646 rlineto
          endchar
        </CharString>
        <CharString name="V.sc">
          1 33 callgsubr
          22 545 rmoveto
          250 -545 rlineto
          42 hlineto
          250 545 rlineto
          -50 hlineto
          -221 -481 -222 481 rlineto
          endchar
        </CharString>
        <CharString name="W">
          459 -33 callsubr
          490 406 -94 callgsubr
          endchar
        </CharString>
        <CharString name="W.alt">
          465 -33 callsubr
          968 12 callgsubr
          -201 -637 -219 637 rlineto
          -56 hlineto
          -210 -637 -202 637 rlineto
          -56 hlineto
          227 -710 rlineto
          54 hlineto
          216 627 223 -627 rlineto
          54 hlineto
          227 710 rlineto
          endchar
        </CharString>
        <CharString name="W.sc">
          308 33 callgsubr
          417 309 rmoveto
          -118 -252 -226 488 rlineto
          -51 hlineto
          252 -545 rlineto
          43 hlineto
          129 274 129 -274 rlineto
          42 hlineto
          253 545 rlineto
          -51 hlineto
          -225 -488 -121 252 105 232 rlineto
          -45 hlineto
          -88 -196 -87 196 rlineto
          -44 hlineto
          endchar
        </CharString>
        <CharString name="Wacute">
          459 -7 callgsubr
          604 917 -96 callgsubr
          -30 -410 -94 callgsubr
          endchar
        </CharString>
        <CharString name="Wcircumflex">
          459 -7 callgsubr
          436 819 -100 callgsubr
          84 -430 -94 callgsubr
          endchar
        </CharString>
        <CharString name="Wdieresis">
          459 29 callsubr
          431 44 92 44 vstem
          475 828 -88 callgsubr
          -77 -422 -94 callgsubr
          endchar
        </CharString>
        <CharString name="Wgrave">
          459 -76 callsubr
          228 -20 hstem
          490 406 -94 callgsubr
          157 112 -78 callsubr
        </CharString>
        <CharString name="X">
          -43 callsubr
        </CharString>
        <CharString name="X.sc">
          -38 33 callgsubr
          16 545 rmoveto
          231 -276 -224 -269 rlineto
          53 hlineto
          197 234 198 -234 rlineto
          52 hlineto
          -224 269 231 276 rlineto
          -53 hlineto
          -204 -242 -204 242 rlineto
          endchar
        </CharString>
        <CharString name="Y">
          63 -33 callsubr
          298 51 vstem
          -83 callsubr
          endchar
        </CharString>
        <CharString name="Y.sc">
          -26 33 callgsubr
          255 47 vstem
          24 545 rmoveto
          231 -340 rlineto
          -205 47 204 vlineto
          233 341 rlineto
          -52 hlineto
          -204 -298 -204 298 rlineto
          endchar
        </CharString>
        <CharString name="Yacute">
          63 -7 callgsubr
          298 51 vstem
          -83 callsubr
          331 207 -24 callsubr
        </CharString>
        <CharString name="Ycircumflex">
          63 -7 callgsubr
          298 51 vstem
          -83 callsubr
          163 109 -47 callsubr
        </CharString>
        <CharString name="Ydieresis">
          63 29 callsubr
          233 44 21 51 20 44 vstem
          -83 callsubr
          202 118 -19 callsubr
        </CharString>
        <CharString name="Ygrave">
          63 -76 callsubr
          228 -20 hstem
          298 51 vstem
          -83 callsubr
          249 107 -78 callsubr
        </CharString>
        <CharString name="Ytilde">
          63 38 callgsubr
          298 51 hintmask 11101100
          -83 callsubr
          309 124 -84 callgsubr
          hintmask 11110100
          -97 callgsubr
        </CharString>
        <CharString name="Z">
          43 0 46 618 46 hstem
          30 hmoveto
          -80 callsubr
          endchar
        </CharString>
        <CharString name="Z.sc">
          -36 0 42 460 43 hstem
          37 hmoveto
          470 42 -411 hlineto
          413 465 rlineto
          38 -466 -43 410 vlineto
          -416 -464 rlineto
          endchar
        </CharString>
        <CharString name="Zacute">
          43 -8 callsubr
          414 917 -96 callgsubr
          -300 -816 rmoveto
          -80 callsubr
          endchar
        </CharString>
        <CharString name="Zcaron">
          43 -8 callsubr
          216 -31 callgsubr
          endchar
        </CharString>
        <CharString name="Zdotaccent">
          43 -8 callsubr
          307 46 vstem
          30 hmoveto
          -80 callsubr
          323 785 -70 callgsubr
        </CharString>
        <CharString name="Zdotbelow">
          43 -130 -21 151 46 618 46 hstem
          298 46 vstem
          30 hmoveto
          -80 callsubr
          314 -193 -70 callgsubr
        </CharString>
        <CharString name="a">
          -66 callgsubr
          3 callsubr
          hintmask 10111100
          -78 callgsubr
          hintmask 01111100
          -107 callsubr
          hintmask 10111100
          -103 callgsubr
          endchar
        </CharString>
        <CharString name="a.alt">
          31 -10 45 -14 -21 484 45 hstemhm
          42 51 394 50 hintmask 10111000
          289 -10 rmoveto
          86 72 49 71 40 hvcurveto
          hintmask 01111000
          -110 50 517 -50 -111 vlineto
          71 -40 -71 52 -90 hhcurveto
          -136 -108 -123 -147 hvcurveto
          hintmask 10111000
          -140 101 -129 146 vhcurveto
          198 184 rmoveto
          -77 -31 -67 -62 -91 hhcurveto
          -119 -86 105 118 109 82 117 122 86 73 -61 -81 31 hvcurveto
          endchar
        </CharString>
        <CharString name="a.alt2">
          -48 -10 40 -9 -21 270 35 184 40 hstemhm
          36 48 330 50 hintmask 01111100
          464 hmoveto
          324 vlineto
          119 -70 86 -132 -69 -65 -30 -38 -57 vhcurveto
          20 -34 rlineto
          40 57 58 22 52 hhcurveto
          96 60 -65 -96 hvcurveto
          -51 vlineto
          11 -27 -58 17 -77 hhcurveto
          -98 -118 -43 -111 hvcurveto
          hintmask 10111100
          -91 74 -70 97 78 81 29 65 49 vhcurveto
          hintmask 01111100
          -84 vlineto
          -18 110 rmoveto
          hintmask 10111100
          -55 -36 -78 -25 -66 hhcurveto
          -70 -63 50 74 86 96 30 78 51 54 -9 -19 51 hvcurveto
          -92 vlineto
          -12 -6 -14 -11 -14 vhcurveto
          endchar
        </CharString>
        <CharString name="aacute">
          -66 callgsubr
          201 -20 3 callsubr
          hintmask 10111110
          -78 callgsubr
          hintmask 01111110
          -107 callsubr
          hintmask 10111110
          -103 callgsubr
          128 700 -24 callsubr
        </CharString>
        <CharString name="abreve">
          -66 callgsubr
          109 5 callgsubr
          35 48 89 178 63 50 hintmask 1011101110000000
          -78 callgsubr
          hintmask 0111101110000000
          -107 callsubr
          hintmask 1011101110000000
          -103 callgsubr
          45 636 rmoveto
          hintmask 1011011110000000
          -91 callsubr
          hintmask 1011101110000000
          -49 callsubr
        </CharString>
        <CharString name="acircumflex">
          -66 callgsubr
          201 -20 3 callsubr
          hintmask 10111110
          -78 callgsubr
          hintmask 01111110
          -107 callsubr
          hintmask 10111110
          -103 callgsubr
          -40 602 -47 callsubr
        </CharString>
        <CharString name="acute">
          -371 21 callgsubr
          168 730 -24 callsubr
        </CharString>
        <CharString name="adblgrave">
          -66 callgsubr
          -40 241 3 callsubr
          hintmask 10110110
          -78 callgsubr
          hintmask 01110110
          -107 callsubr
          hintmask 10101110
          -103 callgsubr
          107 599 16 callgsubr
        </CharString>
        <CharString name="adieresis">
          -66 callgsubr
          111 88 hstemhm
          35 48 88 44 92 44 62 50 hintmask 1011111110000000
          -78 callgsubr
          hintmask 0111111110000000
          -107 callsubr
          hintmask 1011111110000000
          -103 callgsubr
          -1 610 -19 callsubr
        </CharString>
        <CharString name="ae">
          47 callgsubr
          hstemhm
          35 48 306 48 413 49 hintmask 11011110
          4 callsubr
          82 103 34 83 43 hvcurveto
          -70 46 77 -47 89 hhcurveto
          97 88 54 74 31 hvcurveto
          -44 12 rlineto
          -59 -26 -71 -41 -73 hhcurveto
          -110 -92 90 120 -9 hvcurveto
          461 hlineto
          3 1 13 4 vvcurveto
          148 -1 -109 121 -147 hhcurveto
          -85 -74 -45 -66 -43 hvcurveto
          70 -29 -63 41 -87 hhcurveto
          -61 -63 -23 -45 -67 hvcurveto
          20 -34 rlineto
          40 58 58 22 51 hhcurveto
          81 56 -46 -74 14 hvcurveto
          -11 -26 -6 -30 -2 -28 rrcurveto
          hintmask 10111110
          -41 callsubr
          hintmask 11011110
          10 callgsubr
        </CharString>
        <CharString name="aeacute">
          47 callgsubr
          201 -20 hstemhm
          35 48 306 48 413 49 hintmask 11011111
          523 730 -96 callgsubr
          -233 -639 rmoveto
          82 103 34 83 43 hvcurveto
          -70 46 77 -47 89 hhcurveto
          97 88 54 74 31 hvcurveto
          -44 12 rlineto
          -59 -26 -71 -41 -73 hhcurveto
          -110 -92 90 120 -9 hvcurveto
          461 hlineto
          3 1 13 4 vvcurveto
          148 -1 -109 121 -147 hhcurveto
          -85 -74 -45 -66 -43 hvcurveto
          70 -29 -63 41 -87 hhcurveto
          -61 -63 -23 -45 -67 hvcurveto
          20 -34 rlineto
          40 58 58 22 51 hhcurveto
          81 56 -46 -74 14 hvcurveto
          -11 -26 -6 -30 -2 -28 rrcurveto
          hintmask 10111111
          -41 callsubr
          hintmask 11011111
          10 callgsubr
        </CharString>
        <CharString name="afii61352">
          540 21 -21 351 37 286 39 -3 -20 hstemhm
          93 51 486 51 67 44 269 44 hintmask 11011111
          634 hmoveto
          47 709 -51 -624 hlineto
          -498 625 rlineto
          -39 -710 51 614 hlineto
          782 -263 rmoveto
          104 75 84 96 hvcurveto
          hintmask 11101111
          44 callsubr
          vhcurveto
          6 callsubr
        </CharString>
        <CharString name="agrave">
          -66 callgsubr
          201 -20 3 callsubr
          hintmask 10111110
          -78 callgsubr
          hintmask 01111110
          -107 callsubr
          hintmask 10111110
          -103 callgsubr
          46 599 -78 callsubr
        </CharString>
        <CharString name="ainvertedbreve">
          -66 callgsubr
          109 9 callgsubr
          35 48 91 178 61 50 hintmask 1011101110000000
          -78 callgsubr
          hintmask 0111101110000000
          -107 callsubr
          hintmask 1011011110000000
          -103 callgsubr
          47 672 rmoveto
          hintmask 1011101110000000
          -91 callgsubr
          hintmask 1011011110000000
          -23 callsubr
          endchar
        </CharString>
        <CharString name="amacron">
          -66 callgsubr
          143 37 3 callsubr
          hintmask 10111110
          -78 callgsubr
          hintmask 01111110
          -107 callsubr
          hintmask 10111110
          -103 callgsubr
          188 642 -36 callgsubr
        </CharString>
        <CharString name="ampersand">
          71 -10 41 -10 -21 678 41 hstemhm
          49 49 6 47 240 46 98 44 hintmask 01111110
          648 hmoveto
          -129 134 38 61 21 74 1 79 rlinecurve
          -44 hlineto
          -66 -17 -64 -29 -52 vhcurveto
          -214 222 rlineto
          86 58 76 56 81 vvcurveto
          78 -69 58 -90 -99 -75 -69 -83 -49 27 -44 75 -81 vhcurveto
          -85 -57 -72 -61 -97 vvcurveto
          hintmask 10111110
          -116 105 -72 118 89 75 41 64 54 vhcurveto
          hintmask 01111110
          91 -95 rlineto
          hintmask 10111110
          -303 31 rmoveto
          -86 -94 49 96 79 61 55 76 52 hvcurveto
          226 -237 rlineto
          -57 -45 -63 -37 -75 hhcurveto
          -127 537 rmoveto
          60 54 50 72 66 48 -41 -56 -61 -58 -44 -88 -57 vhcurveto
          -78 83 -16 32 34 vvcurveto
          endchar
        </CharString>
        <CharString name="aogonek">
          -47 -148 -21 159 40 240 35 184 40 hstem
          35 48 286 34 10 50 vstem
          436 -169 rmoveto
          -51 callgsubr
          45 vlineto
          -15 -7 8 17 hvcurveto
          254 vlineto
          127 -77 78 -125 -61 -63 -23 -45 -66 vhcurveto
          19 -34 rlineto
          40 58 58 22 51 hhcurveto
          96 60 -63 -98 hvcurveto
          -51 vlineto
          17 -45 -61 11 -55 hhcurveto
          -128 -89 -64 -90 -91 75 -70 96 86 79 35 62 48 hvcurveto
          -43 vlineto
          1 -18 10 -17 15 -7 rrcurveto
          -53 -37 -23 -32 -34 -39 callgsubr
          -220 199 rmoveto
          -75 -58 54 70 69 71 47 103 55 53 -10 -18 48 hvcurveto
          -92 vlineto
          -12 -6 -15 -10 -13 vhcurveto
          -48 -35 -69 -32 -77 hhcurveto
          endchar
        </CharString>
        <CharString name="apostrophe">
          -38 21 callgsubr
          342 51 callgsubr
          endchar
        </CharString>
        <CharString name="approxequal">
          -155 188 40 2 40 15 40 2 39 hstem
          339 340 rmoveto
          -11 -12 -15 -4 -24 -56 -35 41 -60 hhcurveto
          -33 -23 -14 -17 -15 hvcurveto
          25 -28 rlineto
          10 10 15 10 22 45 40 -42 66 hhcurveto
          33 24 13 16 17 hvcurveto
          -24 -70 rmoveto
          -12 -12 -15 -4 -24 -56 -35 42 -60 hhcurveto
          -33 -23 -15 -17 -15 hvcurveto
          25 -28 rlineto
          11 10 15 9 22 45 40 -42 66 hhcurveto
          33 24 12 15 17 hvcurveto
          endchar
        </CharString>
        <CharString name="aring">
          -66 callgsubr
          76 23 79 23 60 callsubr
          hintmask 1011111111000000
          -78 callgsubr
          hintmask 0111111111000000
          -107 callsubr
          hintmask 1011111111000000
          -103 callgsubr
          -24 638 -89 callsubr
          endchar
        </CharString>
        <CharString name="aringacute">
          -66 callgsubr
          76 23 79 23 144 -20 60 callsubr
          hintmask 1011111111100000
          -78 callgsubr
          hintmask 0111111111100000
          -107 callsubr
          hintmask 1011111111100000
          -103 callgsubr
          128 844 -96 callgsubr
          -68 -105 -89 callsubr
          endchar
        </CharString>
        <CharString name="asciicircum">
          -58 324 -21 407 -20 hstem
          88 303 rmoveto
          176 356 172 -356 rlineto
          46 hlineto
          -197 407 rlineto
          -43 hlineto
          -198 -407 rlineto
          endchar
        </CharString>
        <CharString name="asciitilde">
          -91 245 35 24 36 hstem
          68 245 rmoveto
          34 hlineto
          2 19 57 45 vhcurveto
          46 45 -59 65 hhcurveto
          79 25 84 4 hvcurveto
          -34 hlineto
          -5 -20 -48 -50 vhcurveto
          -54 -43 60 -59 hhcurveto
          -72 -26 -86 -9 hvcurveto
          endchar
        </CharString>
        <CharString name="asterisk">
          -270 556 -21 177 -20 hstem
          141 31 vstem
          115 535 rmoveto
          42 61 42 -61 26 18 -43 60 68 22 -9 29 -69 -24 rlineto
          72 -31 -72 vlineto
          -68 24 -9 -29 68 -22 -42 -60 rlineto
          endchar
        </CharString>
        <CharString name="at">
          250 -146 29 101 31 -7 34 196 32 148 35 121 29 hstemhm
          48 30 157 37 277 36 162 30 hintmask 1101111111000000
          416 603 rmoveto
          -191 -177 -150 -223 -215 164 -161 199 56 56 13 27 53 hvcurveto
          -12 27 rlineto
          -25 -48 -50 -13 -55 hhcurveto
          -187 -146 154 193 200 156 144 181 186 146 -155 -196 -76 -24 -132 -86 -46 -6 37 59 hvcurveto
          138 vlineto
          97 -17 107 -142 -60 -54 -21 -31 -47 vhcurveto
          16 -31 rlineto
          30 40 50 18 51 hhcurveto
          100 27 -70 -101 hvcurveto
          8 -22 -49 15 -59 hhcurveto
          -87 -97 -31 -100 hvcurveto
          hintmask 1011111111000000
          -76 57 -55 92 69 63 32 39 36 vhcurveto
          hintmask 1101111111000000
          -51 5 10 -44 66 hhcurveto
          132 12 180 58 221 -164 160 -197 hvcurveto
          64 -539 rmoveto
          hintmask 1011111111000000
          -12 -25 -36 -10 -33 hhcurveto
          -64 -50 38 61 74 71 23 73 68 48 -21 -2 16 hvcurveto
          -42 vlineto
          -39 -8 -42 -60 -28 vhcurveto
          endchar
        </CharString>
        <CharString name="atilde">
          -66 callgsubr
          118 35 5 35 8 -20 3 callsubr
          hintmask 1011110110000000
          -78 callgsubr
          hintmask 0111110110000000
          -107 callsubr
          hintmask 1011101110000000
          -103 callgsubr
          106 617 -84 callgsubr
          hintmask 1011110110000000
          -97 callgsubr
        </CharString>
        <CharString name="b">
          28 -10 45 -14 -21 484 45 201 -5 callgsubr
          391 51 hintmask 10111100
          321 -10 rmoveto
          141 108 125 143 134 -90 137 -148 -88 -67 -50 -72 -49 hvcurveto
          323 -50 vlineto
          hintmask 01111100
          -730 46 104 vlineto
          hintmask 10111100
          -66 40 76 -48 81 hhcurveto
          -10 45 rmoveto
          -73 -101 62 77 -9 hvcurveto
          172 vlineto
          73 36 68 65 88 hhcurveto
          118 81 -109 -117 -112 -86 -111 -122 hvcurveto
          endchar
        </CharString>
        <CharString name="backslash">
          -36 -33 callsubr
          27 12 callgsubr
          436 -710 rlineto
          58 hlineto
          -435 710 rlineto
          endchar
        </CharString>
        <CharString name="bar">
          -361 -109 -21 905 -20 hstem
          89 45 vstem
          134 -130 rmoveto
          905 -45 -905 vlineto
          endchar
        </CharString>
        <CharString name="braceleft">
          -336 -10 -21 771 -20 hstemhm
          94 47 -47 102 hintmask 11010000
          196 697 rmoveto
          43 -79 vlineto
          -6 -17 -4 -26 hvcurveto
          -279 vlineto
          -14 -7 -36 -28 vhcurveto
          -40 vlineto
          24 -3 11 -25 -24 vvcurveto
          -290 vlineto
          -22 12 -8 11 vhcurveto
          79 43 hlineto
          hintmask 11100000
          -55 288 hlineto
          12 -4 30 -21 18 vhcurveto
          21 19 4 28 13 vvcurveto
          277 vlineto
          endchar
        </CharString>
        <CharString name="braceright">
          -336 -10 -21 771 -20 hstemhm
          52 102 -47 47 hintmask 11010000
          107 697 rmoveto
          -277 vlineto
          -13 4 -28 21 -19 vhcurveto
          -21 -18 -4 -30 -12 vvcurveto
          -288 vlineto
          hintmask 11100000
          -55 -43 79 hlineto
          10 13 8 22 hvcurveto
          290 vlineto
          24 10 25 25 3 vhcurveto
          40 vlineto
          -28 -7 36 14 hvcurveto
          279 vlineto
          26 -18 4 -5 vhcurveto
          -79 -43 hlineto
          endchar
        </CharString>
        <CharString name="bracketleft">
          -337 -19 -21 780 -20 hstemhm
          91 48 -48 101 hintmask 11010000
          192 -40 rmoveto
          43 vlineto
          hintmask 11100000
          -53 694 hlineto
          hintmask 11010000
          53 43 -101 -780 hlineto
          endchar
        </CharString>
        <CharString name="bracketright">
          -337 -19 -21 780 -20 hstemhm
          54 101 -47 47 hintmask 11100000
          155 -40 rmoveto
          780 -101 -43 vlineto
          hintmask 11010000
          54 -694 hlineto
          hintmask 11100000
          -54 -43 hlineto
          endchar
        </CharString>
        <CharString name="breve">
          -315 638 5 callgsubr
          46 178 hintmask 10100000
          135 666 rmoveto
          hintmask 01100000
          -91 callsubr
          hintmask 10100000
          -49 callsubr
        </CharString>
        <CharString name="brokenbar">
          -358 -109 -21 905 -20 hstem
          91 45 vstem
          91 280 rmoveto
          -410 45 410 vlineto
          -45 495 rmoveto
          -410 45 410 vlineto
          endchar
        </CharString>
        <CharString name="bullet">
          -237 259 171 hstem
          88 171 vstem
          259 345 rmoveto
          46 -38 39 -47 -47 -39 -39 -46 -48 39 -38 47 47 38 38 48 vhcurveto
          endchar
        </CharString>
        <CharString name="c">
          -39 -41 callgsubr
          hstem
          42 50 vstem
          42 262 -99 callsubr
          endchar
        </CharString>
        <CharString name="c_t">
          276 -10 51 -26 -21 490 45 -9 -20 218 31 hstemhm
          42 50 300 30 217 50 hintmask 10011111
          835 65 rmoveto
          -3 -6 -33 -21 -42 hhcurveto
          -33 -29 19 39 -3 hvcurveto
          380 121 41 -121 vlineto
          136 -1 2 93 -154 hhcurveto
          -93 -51 -60 -77 hvcurveto
          hintmask 10101111
          -51 27 -43 21 -34 vhcurveto
          28 -37 -45 17 -66 hhcurveto
          -151 -99 -130 -140 -135 104 -134 152 85 97 45 82 30 hvcurveto
          -49 14 rlineto
          -59 -17 -87 -37 -59 hhcurveto
          -115 -91 104 120 109 74 116 125 70 59 -28 -64 35 hvcurveto
          49 16 rlineto
          -16 34 -66 98 70 vvcurveto
          59 33 49 71 vhcurveto
          hintmask 01011111
          110 2 -43 -155 1 hvcurveto
          -73 -41 73 -392 hlineto
          -60 48 -33 54 56 44 26 5 9 vhcurveto
          endchar
        </CharString>
        <CharString name="cacute">
          -39 -41 callgsubr
          -10 callsubr
          50 vstem
          379 730 -96 callgsubr
          -253 -367 -99 callsubr
          endchar
        </CharString>
        <CharString name="caron">
          -264 653 -21 98 -20 hstem
          45 713 -92 callgsubr
          endchar
        </CharString>
        <CharString name="caron.alt">
          -371 21 callgsubr
          168 730 -24 callsubr
        </CharString>
        <CharString name="ccaron">
          -39 -41 callgsubr
          -10 callsubr
          50 vstem
          181 713 -92 callgsubr
          -169 -468 -99 callsubr
          endchar
        </CharString>
        <CharString name="ccedilla">
          -39 34 callgsubr
          38 44 449 45 hstem
          42 50 275 31 vstem
          208 -80 callgsubr
          26 44 92 4 80 52 26 70 rlinecurve
          -49 14 rlineto
          -51 -16 -76 -45 -72 hhcurveto
          -112 -93 102 62 callsubr
          90 96 114 68 60 -35 -57 31 hvcurveto
          49 16 rlineto
          75 -36 -76 46 -94 hhcurveto
          -149 -107 -119 -148 -142 101 -119 136 -10 hvcurveto
          -42 -76 -79 callsubr
        </CharString>
        <CharString name="ccircumflex">
          -39 -41 callgsubr
          -10 callsubr
          50 vstem
          211 632 -100 callgsubr
          -139 -387 -99 callsubr
          endchar
        </CharString>
        <CharString name="cdotaccent">
          -39 -41 callgsubr
          -10 callsubr
          50 181 46 vstem
          42 262 -99 callsubr
          277 378 -70 callgsubr
        </CharString>
        <CharString name="cedilla">
          -313 34 callgsubr
          62 -20 hstem
          182 31 vstem
          23 -80 callgsubr
          34 56 -27 12 -56 -100 -79 callsubr
        </CharString>
        <CharString name="cent">
          -30 -99 -21 110 46 445 47 117 -20 hstem
          44 51 181 31 vstem
          307 -120 rmoveto
          110 vlineto
          73 103 43 84 30 hvcurveto
          -49 14 -16 -56 -84 -38 -57 -1 rlinecurve
          447 vlineto
          63 -3 55 -28 33 -60 48 16 rcurveline
          -35 71 -63 46 -101 3 rrcurveto
          117 -31 -117 vlineto
          -140 -11 -92 -124 -135 vvcurveto
          -127 96 -129 136 -11 vhcurveto
          -111 vlineto
          -181 378 rmoveto
          104 66 111 115 8 vhcurveto
          -443 vlineto
          -104 13 -77 99 108 vvcurveto
          endchar
        </CharString>
        <CharString name="circumflex">
          -264 653 -21 98 -20 hstem
          75 632 -47 callsubr
        </CharString>
        <CharString name="colon">
          -407 21 -21 517 -20 hstem
          67 43 vstem
          110 432 rmoveto
          85 -43 -85 vlineto
          43 -432 rmoveto
          85 -43 -85 vlineto
          endchar
        </CharString>
        <CharString name="colonmonetary">
          -38 -120 155 -24 -21 494 161 -116 -20 hstemhm
          41 51 138 31 65 31 hintmask 10101110
          230 -120 rmoveto
          31 113 hlineto
          hintmask 01101110
          -2 12 13 -1 13 hhcurveto
          9 9 1 1 9 hvcurveto
          hintmask 10101110
          -112 31 117 vlineto
          72 16 59 46 22 58 -49 14 rcurveline
          -51 -16 -76 -45 -73 hhcurveto
          -111 -93 102 62 callsubr
          90 96 113 68 61 -35 -57 31 hvcurveto
          49 16 -28 58 -53 41 -66 15 rlinecurve
          123 -31 -118 vlineto
          hintmask 10011110
          1 -9 -10 1 -9 hhcurveto
          -13 -12 -1 -2 -12 hvcurveto
          hintmask 10101110
          119 -31 -125 vlineto
          -113 -30 -76 -104 -124 vvcurveto
          -124 78 -106 111 -32 vhcurveto
          endchar
        </CharString>
        <CharString name="comma">
          -346 -60 -21 100 -21 87 7 callsubr
          vstem
          124 -81 rmoveto
          21 79 rlineto
          87 -51 -87 18 vlineto
          -15 -79 rlineto
          endchar
        </CharString>
        <CharString name="commaaccent">
          -443 -166 -21 138 -20 hstem
          56 49 vstem
          84 -85 callgsubr
          endchar
        </CharString>
        <CharString name="copyright">
          245 -7 28 103 45 374 45 99 28 hstem
          49 30 114 51 506 30 vstem
          -28 callgsubr
          -142 143 190 191 143 142 192 194 142 -142 -193 -196 -146 -135 -190 hvcurveto
          7 103 rmoveto
          99 71 69 44 15 hvcurveto
          -48 14 rlineto
          -51 -22 -66 -31 -52 hhcurveto
          -77 -97 67 119 89 55 99 116 40 67 -13 -65 28 hvcurveto
          48 16 rlineto
          70 -28 -73 37 -82 hhcurveto
          -152 -70 -123 -110 -142 114 -89 114 hvcurveto
          endchar
        </CharString>
        <CharString name="currency">
          -49 149 -21 28 37 287 38 27 -20 hstem
          89 43 270 44 vstem
          83 545 rmoveto
          -26 -26 69 -70 rlineto
          -24 -31 -13 -40 -42 vvcurveto
          -43 14 -39 25 -32 vhcurveto
          -71 -70 24 -24 71 69 rlineto
          -26 31 39 -15 45 hhcurveto
          45 40 16 26 31 hvcurveto
          73 -70 24 24 -73 71 rlineto
          25 32 14 39 42 vvcurveto
          42 -14 39 -23 31 vhcurveto
          71 71 -27 26 -70 -71 rlineto
          27 -31 -40 17 -45 hhcurveto
          -45 -40 -16 -27 -30 hvcurveto
          -20 -140 rmoveto
          81 61 64 74 74 61 -63 -80 -79 -61 -65 -74 -74 -61 63 79 vhcurveto
          endchar
        </CharString>
        <CharString name="d">
          31 -10 14 callgsubr
          391 50 hintmask 10111100
          292 -10 -22 callsubr
          hintmask 01111100
          -23 21 -25 27 41 callsubr
          vhcurveto
          -73 callsubr
          hintmask 10111100
          -90 callsubr
        </CharString>
        <CharString name="d.alt">
          28 -10 45 -14 -21 484 45 201 -11 callsubr
          hintmask 01111100
          534 hmoveto
          730 -50 -323 vlineto
          66 -45 -68 56 -90 hhcurveto
          -138 -101 -125 -145 hvcurveto
          hintmask 10111100
          -138 105 -131 145 77 74 45 66 41 vhcurveto
          hintmask 01111100
          -101 vlineto
          175 vmoveto
          hintmask 10111100
          -76 -6 -104 -64 -73 hhcurveto
          -116 -92 104 119 113 78 113 121 76 90 -61 -77 26 hvcurveto
          endchar
        </CharString>
        <CharString name="dagger">
          -191 -109 -21 378 46 481 -20 hstem
          173 48 vstem
          221 -130 rmoveto
          378 131 46 -131 481 -48 -481 -132 -46 132 -378 vlineto
          endchar
        </CharString>
        <CharString name="daggerdbl">
          -186 -109 -21 305 46 111 46 397 -20 hstem
          176 48 vstem
          224 -130 rmoveto
          305 131 46 -131 111 131 46 -131 397 -48 -397 -132 -46 132 -111 -132 -46 132 -305 vlineto
          endchar
        </CharString>
        <CharString name="dcaron">
          31 -10 14 callgsubr
          391 50 hintmask 10111100
          691 730 -96 callgsubr
          -315 -639 -22 callsubr
          hintmask 01111100
          -23 21 -25 27 41 callsubr
          vhcurveto
          -73 callsubr
          hintmask 10111100
          -90 callsubr
        </CharString>
        <CharString name="dcroat">
          31 -10 45 -16 -21 486 45 94 36 71 -11 callsubr
          hintmask 10111110
          292 -10 -22 callsubr
          hintmask 01111110
          -23 21 -25 27 41 callsubr
          -69 callsubr
          553 72 36 -72 71 -50 -71 -118 -36 118 -216 vlineto
          66 -40 -73 56 -90 hhcurveto
          -138 -101 -125 -145 hvcurveto
          hintmask 10111110
          -90 callsubr
        </CharString>
        <CharString name="ddotbelow">
          31 -130 -21 141 14 callgsubr
          180 46 165 50 hintmask 11011111
          319 1 callgsubr
          19 141 -22 callsubr
          hintmask 10111111
          -23 21 -25 27 41 callsubr
          vhcurveto
          -73 callsubr
          hintmask 11011111
          -90 callsubr
        </CharString>
        <CharString name="degree">
          -323 568 32 92 32 hstem
          53 155 vstem
          53 647 rmoveto
          -44 34 -35 43 44 34 34 45 43 -34 34 -44 -43 -34 -34 -43 vhcurveto
          45 32 rmoveto
          9 8 11 4 13 hhcurveto
          13 12 -4 -9 8 hvcurveto
          8 -9 5 -11 -13 vvcurveto
          -12 -5 -12 -8 -8 vhcurveto
          -8 -8 -12 -6 -13 hhcurveto
          -13 -11 6 8 -8 hvcurveto
          -8 8 -5 12 12 vvcurveto
          13 5 11 8 9 vhcurveto
          endchar
        </CharString>
        <CharString name="dieresis">
          -290 640 88 hstem
          57 44 92 44 vstem
          101 640 -19 callsubr
        </CharString>
        <CharString name="divide">
          -44 102 -21 176 43 175 -20 hstem
          248 44 vstem
          292 394 rmoveto
          81 -44 -81 vlineto
          44 -313 rmoveto
          80 -44 -80 vlineto
          224 176 rmoveto
          43 -403 -43 vlineto
          endchar
        </CharString>
        <CharString name="dollar">
          33 -78 -21 93 45 629 46 101 -20 hstem
          67 52 179 26 199 54 vstem
          539 632 rmoveto
          -56 53 -69 28 -87 2 rrcurveto
          100 -31 -101 vlineto
          -137 -6 -92 -71 -121 vvcurveto
          -116 81 -34 150 -32 vhcurveto
          -295 vlineto
          -96 6 -79 39 -54 57 -27 -41 rcurveline
          70 -65 85 -35 99 -5 rrcurveto
          -94 31 93 vlineto
          149 1 101 63 124 vvcurveto
          126 -97 38 -153 32 vhcurveto
          -3 291 hlineto
          82 -1 62 -26 45 -50 rrcurveto
          10 -416 rmoveto
          -91 -75 -46 -123 vhcurveto
          -1 290 hlineto
          133 -31 66 -33 -89 vvcurveto
          -404 347 rmoveto
          84 54 56 125 5 vhcurveto
          -284 vlineto
          -126 28 -53 26 85 vvcurveto
          endchar
        </CharString>
        <CharString name="dotaccent">
          -438 661 -21 90 -20 hstem
          50 46 vstem
          96 640 -70 callgsubr
        </CharString>
        <CharString name="dotbelow">
          -438 -130 -21 90 -20 hstem
          50 46 vstem
          96 1 callgsubr
          endchar
        </CharString>
        <CharString name="dotlessi">
          32 callsubr
          78 50 vstem
          -30 callgsubr
          endchar
        </CharString>
        <CharString name="dotlessj">
          -177 46 651 -20 hstem
          78 50 vstem
          -18 -177 rmoveto
          73 73 45 callgsubr
          -49 -27 -29 5 19 -21 vhcurveto
          -27 -33 rlineto
          -27 28 38 -10 42 hhcurveto
          endchar
        </CharString>
        <CharString name="e">
          -71 callgsubr
          -88 callsubr
          endchar
        </CharString>
        <CharString name="eacute">
          -20 callsubr
          378 730 -96 callgsubr
          5 -639 -107 callgsubr
          endchar
        </CharString>
        <CharString name="ebreve">
          -71 callgsubr
          109 5 callgsubr
          42 52 112 178 119 48 hintmask 11110111
          -104 callgsubr
          -208 386 rmoveto
          hintmask 11101111
          -91 callsubr
          hintmask 11110111
          -49 callsubr
        </CharString>
        <CharString name="ecaron">
          -20 callsubr
          180 713 -92 callgsubr
          89 -740 -107 callgsubr
          endchar
        </CharString>
        <CharString name="ecircumflex">
          -20 callsubr
          210 632 -100 callgsubr
          119 -659 -107 callgsubr
          endchar
        </CharString>
        <CharString name="edblgrave">
          -71 callgsubr
          -41 242 hstemhm
          42 52 409 48 hintmask 11011100
          351 629 -90 callgsubr
          147 -740 rmoveto
          96 89 54 74 30 hvcurveto
          -44 12 rlineto
          -102 callgsubr
          hintmask 11101100
          145 -108 122 -147 -145 -109 -120 -147 -148 111 -124 146 vhcurveto
          -206 290 rmoveto
          121 7 87 87 110 hhcurveto
          110 87 -86 -122 9 hvcurveto
          endchar
        </CharString>
        <CharString name="edieresis">
          -71 callgsubr
          111 88 hstem
          42 52 111 44 92 44 118 48 vstem
          249 640 -88 callgsubr
          -42 -650 -107 callgsubr
          endchar
        </CharString>
        <CharString name="edotaccent">
          -28 callsubr
          178 46 185 48 vstem
          -104 callgsubr
          -185 360 -70 callgsubr
        </CharString>
        <CharString name="edotbelow">
          -1 -130 -21 141 40 210 40 208 41 hstem
          42 52 182 46 181 48 vstem
          -104 callgsubr
          -181 -431 -70 callgsubr
        </CharString>
        <CharString name="egrave">
          -1 -10 40 210 40 208 41 201 -20 -88 callsubr
          -207 349 -78 callsubr
        </CharString>
        <CharString name="eight">
          -82 callsubr
        </CharString>
        <CharString name="eight.denominator">
          -192 -4 34 -56 callgsubr
          108 12 callsubr
          -36 -63 -41 37 -28 42 -14 vhcurveto
          hintmask 1111000010000000
          -47 -14 -48 -35 -52 vvcurveto
          -62 64 -52 91 85 73 45 67 -18 callgsubr
          -26 -41 -43 62 callgsubr
        </CharString>
        <CharString name="eight.lnum">
          -82 callsubr
        </CharString>
        <CharString name="eight.numerator">
          -192 332 35 -56 callgsubr
          445 -68 callgsubr
        </CharString>
        <CharString name="eightinferior">
          -192 -84 34 -56 callgsubr
          28 12 callsubr
          -36 -63 -41 37 -28 42 -14 vhcurveto
          hintmask 1111000010000000
          -47 -14 -48 -35 -52 vvcurveto
          -62 64 -52 91 85 73 45 67 -18 callgsubr
          -26 -41 -43 62 callgsubr
        </CharString>
        <CharString name="eightsuperior">
          -192 412 35 -56 callgsubr
          525 -68 callgsubr
        </CharString>
        <CharString name="einvertedbreve">
          -71 callgsubr
          109 9 callgsubr
          42 52 113 178 118 48 hintmask 11101111
          296 702 rmoveto
          hintmask 11110111
          -91 callgsubr
          hintmask 11101111
          -23 callsubr
          3 -712 -107 callgsubr
          endchar
        </CharString>
        <CharString name="ellipsis">
          -168 0 85 hstem
          67 44 76 43 76 44 cntrmask 01110000
          111 hmoveto
          85 -44 -85 vlineto
          163 hmoveto
          85 -43 -85 vlineto
          163 hmoveto
          85 -44 -85 vlineto
          endchar
        </CharString>
        <CharString name="emacron">
          -71 callgsubr
          143 37 -88 callsubr
          -65 392 -36 callgsubr
        </CharString>
        <CharString name="emdash">
          308 249 46 hstem
          825 249 rmoveto
          46 -758 -46 vlineto
          endchar
        </CharString>
        <CharString name="emspace">
          328 endchar
        </CharString>
        <CharString name="endash">
          23 callgsubr
        </CharString>
        <CharString name="eng">
          -8 -177 46 152 8 callgsubr
          -9 30 callsubr
          hintmask 11101100
          358 -177 rmoveto
          72 73 62 87 hvcurveto
          327 vlineto
          -62 callgsubr
          hintmask 11011100
          -50 callgsubr
          hintmask 11101100
          92 27 91 69 88 hhcurveto
          82 37 -59 -134 hvcurveto
          -320 vlineto
          -58 -51 -43 -49 -27 -28 5 19 -22 vhcurveto
          -27 -33 rlineto
          -27 28 38 -10 43 hhcurveto
          endchar
        </CharString>
        <CharString name="enspace">
          -11 endchar
        </CharString>
        <CharString name="eogonek">
          -1 -155 -21 167 39 210 40 208 41 hstem
          42 52 121 34 254 48 vstem
          282 -176 -9 callsubr
          84 9 74 51 27 66 -44 12 rcurveline
          -102 callgsubr
          145 -108 122 -147 -145 -109 -120 -147 -143 103 -120 139 -8 vhcurveto
          -48 -36 -21 -30 -33 -39 callgsubr
          -189 456 rmoveto
          121 7 87 87 110 hhcurveto
          110 87 -86 -122 9 hvcurveto
          endchar
        </CharString>
        <CharString name="equal">
          -147 208 38 60 38 hstem
          368 208 rmoveto
          38 -299 -38 vlineto
          299 98 rmoveto
          38 -299 -38 vlineto
          endchar
        </CharString>
        <CharString name="estimated">
          22 -10 28 237 29 219 28 hstem
          45 87 353 87 vstem
          308 18 rmoveto
          -71 -63 33 54 -42 hvcurveto
          150 440 vlineto
          152 -108 124 -156 -155 -108 -125 -146 -145 106 -125 157 100 68 36 47 47 vhcurveto
          -19 21 rlineto
          -43 -38 -66 -33 -92 hhcurveto
          485 vmoveto
          69 66 -34 -56 42 hvcurveto
          -129 -353 130 vlineto
          55 42 63 34 71 hhcurveto
          endchar
        </CharString>
        <CharString name="eth">
          15 -10 45 396 43 256 -20 hstem
          44 51 407 51 vstem
          469 713 rmoveto
          -91 -58 -30 26 -36 25 -40 24 rlinecurve
          -71 hlineto
          56 -32 45 -32 38 -32 -112 -69 rcurveline
          18 -25 116 74 95 -89 33 -90 12 -88 rlinecurve
          75 -36 -82 52 -94 hhcurveto
          -135 -111 -110 -132 -133 113 -109 139 140 117 116 159 122 -29 130 -124 118 hvcurveto
          86 54 rlineto
          -391 -458 rmoveto
          110 92 90 112 111 92 -84 -104 -112 -92 -96 -113 -112 -90 88 108 vhcurveto
          endchar
        </CharString>
        <CharString name="etilde">
          -71 callgsubr
          118 -23 callgsubr
          42 52 409 48 hintmask 11110111
          -104 callgsubr
          -147 367 -84 callgsubr
          hintmask 11111011
          -97 callgsubr
        </CharString>
        <CharString name="exclam">
          -341 21 -21 717 -20 hstem
          96 51 vstem
          147 218 rmoveto
          499 -51 -499 vlineto
          51 -218 rmoveto
          102 -51 -102 vlineto
          endchar
        </CharString>
        <CharString name="exclamdown">
          -342 20 -21 717 -20 hstem
          96 50 vstem
          96 498 rmoveto
          -499 50 499 vlineto
          -50 218 rmoveto
          -102 50 102 vlineto
          endchar
        </CharString>
        <CharString name="f">
          -266 21 -21 479 41 176 44 hstem
          101 50 vstem
          151 hmoveto
          479 148 41 -148 18 vlineto
          102 38 56 68 29 30 -10 -15 18 vhcurveto
          18 36 rlineto
          20 -24 -40 13 -40 hhcurveto
          -91 -56 -76 -127 hvcurveto
          -17 -73 -41 73 -479 vlineto
          endchar
        </CharString>
        <CharString name="f_f">
          -19 21 -21 479 30 callgsubr
          172 50 hintmask 11011100
          501 695 rmoveto
          43 17 -15 -9 11 hvcurveto
          18 36 rlineto
          6 -9 -25 27 -64 hhcurveto
          -62 -40 -26 -40 -28 hvcurveto
          hintmask 11101100
          13 -21 -39 14 -47 hhcurveto
          -107 -46 -87 -86 -1 hvcurveto
          -8 -73 -41 73 -479 50 479 172 -479 50 479 172 41 -172 18 vlineto
          hintmask 11011100
          73 33 84 95 vhcurveto
          -178 -175 rmoveto
          -172 9 hlineto
          hintmask 11101100
          56 1 24 71 87 hhcurveto
          22 37 -4 -17 23 hvcurveto
          -16 -30 -6 -41 -44 vvcurveto
          endchar
        </CharString>
        <CharString name="f_f_i">
          122 21 -21 479 30 callgsubr
          172 50 205 50 hintmask 11011110
          101 hmoveto
          50 479 172 -479 28 callsubr
          34 84 97 45 46 -16 -16 17 vhcurveto
          26 35 rlineto
          12 -16 -54 30 -69 hhcurveto
          -64 -44 -26 -40 -29 hvcurveto
          hintmask 11101110
          13 -21 -39 14 -46 hhcurveto
          -108 -47 -91 -82 hvcurveto
          -8 -73 -41 73 vlineto
          50 41 rmoveto
          8 vlineto
          55 25 73 87 22 37 -4 -17 23 vhcurveto
          -16 -30 -6 -42 -43 vvcurveto
          endchar
        </CharString>
        <CharString name="f_f_l">
          204 0 40 -25 -21 485 30 callgsubr
          176 50 234 50 hintmask 01110111
          708 -6 rmoveto
          36 45 12 2 1 hvcurveto
          -12 42 rlineto
          hintmask 10101111
          -2 -33 -10 -24 hhcurveto
          -40 -18 34 28 hvcurveto
          493 vlineto
          83 -58 62 -106 -64 -44 -24 -41 -28 vhcurveto
          hintmask 10110111
          12 -21 -30 14 -48 hhcurveto
          -105 -56 -79 -95 hvcurveto
          -7 -73 -41 73 -479 50 479 176 -479 50 479 115 41 -115 14 vlineto
          hintmask 01101111
          81 32 80 91 78 33 -55 -53 vhcurveto
          -503 vlineto
          -48 33 -42 64 vhcurveto
          -557 526 rmoveto
          8 vlineto
          hintmask 10110111
          62 34 66 85 23 29 -3 -17 22 vhcurveto
          -12 -27 -5 -41 -48 vvcurveto
          endchar
        </CharString>
        <CharString name="f_i">
          -100 21 -21 479 41 175 45 hstem
          101 50 205 50 vstem
          101 hmoveto
          28 callsubr
          37 84 91 50 43 -15 -17 19 vhcurveto
          25 35 rlineto
          12 -14 -52 30 -73 hhcurveto
          -126 -50 -111 -92 hvcurveto
          -17 -73 -41 73 vlineto
          endchar
        </CharString>
        <CharString name="f_l">
          -22 -6 46 -19 -21 479 41 175 45 hstemhm
          101 50 235 50 hintmask 10111100
          553 50 rmoveto
          -1 -33 -10 -26 hhcurveto
          -38 -19 34 28 hvcurveto
          493 vlineto
          83 -57 62 -108 -118 -52 -86 -114 vhcurveto
          -20 -73 -41 73 vlineto
          hintmask 01111100
          -479 50 479 116 41 -116 16 vlineto
          82 1 34 77 85 hhcurveto
          85 30 -56 -52 hvcurveto
          -503 vlineto
          hintmask 10111100
          -48 34 -42 59 41 43 12 2 1 vhcurveto
          endchar
        </CharString>
        <CharString name="five">
          -42 -149 46 367 46 214 47 hstem
          454 51 vstem
          274 310 rmoveto
          -64 -58 -24 -43 -40 hvcurveto
          56 35 callsubr
          -40 vhcurveto
          48 hlineto
          56 39 64 31 67 hhcurveto
          103 82 -74 -106 -111 -84 -76 52 callsubr
          40 86 -56 101 hhcurveto
          131 111 93 140 133 -103 93 -128 hvcurveto
          endchar
        </CharString>
        <CharString name="five.denominator">
          -215 -5 -24 callgsubr
          249 -89 callgsubr
          -19 rlineto
          -45 3 callgsubr
          77 75 -66 50 -83 hvcurveto
          endchar
        </CharString>
        <CharString name="five.lnum">
          -30 -10 46 368 45 214 47 hstem
          460 51 vstem
          280 449 rmoveto
          -64 -58 -24 -43 -39 hvcurveto
          55 35 callsubr
          -39 vhcurveto
          49 hlineto
          55 38 64 32 67 hhcurveto
          103 82 -75 -106 -110 -84 -77 52 callsubr
          41 85 -56 101 hhcurveto
          132 110 94 140 132 -103 93 -128 hvcurveto
          endchar
        </CharString>
        <CharString name="five.numerator">
          -215 332 -24 callgsubr
          586 -89 callgsubr
          -18 rlineto
          -46 3 callgsubr
          78 73 -66 51 -83 hvcurveto
          endchar
        </CharString>
        <CharString name="fiveeighths">
          253 -4 34 165 30 107 33 -5 33 164 29 109 35 hstemhm
          303 36 150 -57 callgsubr
          hintmask 1110111100001000
          190 586 -89 callgsubr
          -18 rlineto
          -46 3 callgsubr
          78 73 -66 51 -83 hvcurveto
          -43 -589 -86 callsubr
          682 87 -21 callgsubr
          hintmask 1101111010010000
          -67 callsubr
          hintmask 1110111100001000
          -86 callgsubr
          hintmask 1101111001100000
          -72 callgsubr
          endchar
        </CharString>
        <CharString name="fiveinferior">
          -215 -85 -24 callgsubr
          169 -89 callgsubr
          -19 rlineto
          -45 3 callgsubr
          77 75 -66 50 -83 hvcurveto
          endchar
        </CharString>
        <CharString name="fivesuperior">
          -215 412 -24 callgsubr
          666 -89 callgsubr
          -18 rlineto
          -46 3 callgsubr
          78 73 -66 51 -83 hvcurveto
          endchar
        </CharString>
        <CharString name="florin">
          -65 -177 46 549 41 237 44 hstem
          235 50 vstem
          139 -177 rmoveto
          72 74 61 87 hvcurveto
          447 148 41 -148 79 vlineto
          102 37 56 68 29 31 -10 -15 17 vhcurveto
          19 36 rlineto
          20 -25 -40 13 -39 hhcurveto
          -92 -55 -76 -127 hvcurveto
          -78 -74 -41 74 -448 vlineto
          -58 -51 -43 -50 -26 -29 5 19 -22 vhcurveto
          -27 -33 rlineto
          -27 29 38 -10 42 hhcurveto
          endchar
        </CharString>
        <CharString name="four">
          -48 -106 -21 186 46 466 -20 hstem
          371 46 vstem
          417 -127 rmoveto
          186 88 46 -88 466 -35 vlineto
          -361 -468 rlineto
          -44 346 -186 vlineto
          4 617 rmoveto
          -385 -294 vlineto
          endchar
        </CharString>
        <CharString name="four.denominator">
          -207 21 -21 106 34 2 callsubr
          hmoveto
          -58 callgsubr
          endchar
        </CharString>
        <CharString name="four.lnum">
          -22 21 -21 198 46 466 -20 hstem
          392 46 vstem
          438 hmoveto
          198 88 46 -88 466 -35 vlineto
          -378 -468 rlineto
          -44 363 -198 vlineto
          4 630 rmoveto
          -386 -310 vlineto
          endchar
        </CharString>
        <CharString name="four.numerator">
          -207 358 -21 105 35 2 callsubr
          337 -3 callgsubr
        </CharString>
        <CharString name="fourinferior">
          -207 -59 -21 106 34 2 callsubr
          -80 rmoveto
          -58 callgsubr
          endchar
        </CharString>
        <CharString name="foursuperior">
          -207 438 -21 105 35 2 callsubr
          417 -3 callgsubr
        </CharString>
        <CharString name="fraction">
          -443 18 -21 716 -20 hstem
          -193 -3 13 callgsubr
        </CharString>
        <CharString name="franc">
          29 21 -21 140 42 156 44 282 46 hstem
          121 51 vstem
          172 hmoveto
          140 147 42 -147 156 45 callsubr
          -528 -93 -42 93 -140 vlineto
          endchar
        </CharString>
        <CharString name="g">
          28 -223 41 174 43 37 callgsubr
          -37 callsubr
          hintmask 11101100
          -96 callsubr
          endchar
        </CharString>
        <CharString name="gacute">
          9 callsubr
          384 730 -96 callgsubr
          -12 -637 -92 callsubr
          hintmask 11101110
          -96 callsubr
          endchar
        </CharString>
        <CharString name="gbreve">
          -40 callgsubr
          138 5 callgsubr
          42 51 139 178 74 50 hintmask 1101101110000000
          -37 callsubr
          hintmask 1110101110000000
          -96 callsubr
          21 631 rmoveto
          hintmask 1110011110000000
          -91 callsubr
          hintmask 1110101110000000
          -49 callsubr
        </CharString>
        <CharString name="gcircumflex">
          9 callsubr
          236 632 -100 callgsubr
          82 -657 -92 callsubr
          hintmask 11101110
          -96 callsubr
          endchar
        </CharString>
        <CharString name="gcommaaccent">
          -40 callgsubr
          236 43 callgsubr
          182 49 160 50 hintmask 11011111
          296 736 rmoveto
          -21 -68 rlineto
          -70 49 70 -16 vlineto
          15 68 rlineto
          -35 -744 -92 callsubr
          hintmask 11101111
          -96 callsubr
          endchar
        </CharString>
        <CharString name="gdotaccent">
          -40 callgsubr
          230 43 callgsubr
          205 46 140 50 hintmask 11011111
          -37 callsubr
          hintmask 11101111
          -96 callsubr
          44 605 -70 callgsubr
        </CharString>
        <CharString name="germandbls">
          -35 -6 46 -19 -21 377 47 245 45 hstemhm
          78 49 281 48 1 51 hintmask 10111110
          235 -6 rmoveto
          169 6 104 73 132 vvcurveto
          101 -59 75 -104 22 vhcurveto
          62 14 49 66 72 vvcurveto
          92 -79 67 -105 -113 -81 -82 -119 vhcurveto
          hintmask 01111110
          -513 49 506 vlineto
          94 52 69 92 76 61 -47 -75 -72 -56 -51 -78 vhcurveto
          -16 -47 17 hlineto
          108 74 -68 -101 hvcurveto
          hintmask 10111110
          -109 -85 -56 -137 -3 vhcurveto
          endchar
        </CharString>
        <CharString name="grave">
          -371 21 callgsubr
          134 629 -78 callsubr
        </CharString>
        <CharString name="greater">
          -78 14 -21 531 -20 hstem
          472 273 rmoveto
          -418 251 rlineto
          -54 vlineto
          345 -211 -345 -211 rlineto
          -55 vlineto
          418 250 rlineto
          endchar
        </CharString>
        <CharString name="greaterequal">
          22 callgsubr
          315 306 rmoveto
          -308 155 rlineto
          -49 vlineto
          235 -120 -235 -120 rlineto
          -51 vlineto
          308 155 rlineto
          endchar
        </CharString>
        <CharString name="guillemotleft">
          -32 92 -21 377 -20 hstem
          41 243 -34 callsubr
          202 -30 -34 callsubr
          endchar
        </CharString>
        <CharString name="guillemotright">
          -32 92 -21 377 -20 hstem
          511 273 rmoveto
          -244 175 rlineto
          -45 vlineto
          202 -144 -202 -143 rlineto
          -45 vlineto
          244 172 rlineto
          -201 30 1 callsubr
        </CharString>
        <CharString name="guilsinglleft">
          -233 92 -21 377 -20 hstem
          41 243 -34 callsubr
          endchar
        </CharString>
        <CharString name="guilsinglright">
          -233 92 -21 377 -20 hstem
          310 273 1 callsubr
        </CharString>
        <CharString name="h">
          -8 21 8 callgsubr
          -6 callsubr
          78 50 325 -19 callgsubr
          334 -50 -730 -44 callgsubr
          endchar
        </CharString>
        <CharString name="hbar">
          -8 21 8 callgsubr
          94 36 71 -20 hstem
          78 50 325 -19 callgsubr
          227 125 36 -125 71 -50 -71 -66 -36 66 -623 -44 callgsubr
          endchar
        </CharString>
        <CharString name="hcircumflex">
          -8 21 8 callgsubr
          -46 247 -1 30 callsubr
          hintmask 11011100
          242 631 rmoveto
          82 63 82 -63 29 17 -94 81 rlineto
          -36 hlineto
          -92 -81 rlineto
          290 -349 rmoveto
          142 -50 88 -115 -86 -82 -52 -81 -42 vhcurveto
          hintmask 10101100
          334 -50 -730 -44 callgsubr
          endchar
        </CharString>
        <CharString name="hdotbelow">
          -8 21 callsubr
          483 46 -6 callsubr
          78 50 142 46 137 -19 callgsubr
          334 -50 -730 -44 callgsubr
          -187 1 callgsubr
          endchar
        </CharString>
        <CharString name="hungarumlaut">
          -268 21 callgsubr
          158 730 -54 callgsubr
          endchar
        </CharString>
        <CharString name="hyphen">
          -162 249 46 hstem
          355 249 rmoveto
          46 -288 -46 vlineto
          endchar
        </CharString>
        <CharString name="i">
          21 -1 callsubr
          endchar
        </CharString>
        <CharString name="iacute">
          -12 callsubr
          186 730 -96 callgsubr
          26 -629 rmoveto
          -46 callgsubr
          endchar
        </CharString>
        <CharString name="ibreve">
          -22 callgsubr
          138 5 callgsubr
          15 178 -115 50 hintmask 11100100
          -30 callgsubr
          26 666 rmoveto
          hintmask 11011000
          -91 callsubr
          hintmask 11101000
          -49 callsubr
        </CharString>
        <CharString name="icircumflex">
          -12 callsubr
          18 632 -100 callgsubr
          140 -649 rmoveto
          -46 callgsubr
          endchar
        </CharString>
        <CharString name="idblgrave">
          -12 callsubr
          164 629 -90 callgsubr
          163 -730 rmoveto
          -46 callgsubr
          endchar
        </CharString>
        <CharString name="idieresis">
          -22 callgsubr
          140 88 hstem
          13 44 21 50 21 44 cntrmask 00011100
          57 640 -88 callgsubr
          -21 -640 rmoveto
          -46 callgsubr
          endchar
        </CharString>
        <CharString name="idotbelow">
          -130 -21 172 -1 callsubr
          48 -789 -70 callgsubr
        </CharString>
        <CharString name="igrave">
          -12 callsubr
          -30 callgsubr
          26 629 -78 callsubr
        </CharString>
        <CharString name="iinvertedbreve">
          -22 callgsubr
          138 9 callgsubr
          15 178 -115 50 hintmask 11011000
          104 702 rmoveto
          hintmask 11101000
          -91 callgsubr
          hintmask 11010100
          -23 callsubr
          24 -702 rmoveto
          -46 callgsubr
          endchar
        </CharString>
        <CharString name="ij">
          -163 -177 46 152 -44 callsubr
          138 92 hstem
          78 50 165 50 vstem
          -30 callgsubr
          50 638 rmoveto
          92 -50 -92 vlineto
          119 -815 -94 callsubr
          endchar
        </CharString>
        <CharString name="imacron">
          -22 callgsubr
          172 37 hstem
          78 50 vstem
          -30 callgsubr
          168 672 -36 callgsubr
        </CharString>
        <CharString name="infinity">
          111 186 42 246 43 hstem
          47 43 514 42 vstem
          202 517 rmoveto
          -88 -67 -74 -91 -91 72 -75 83 81 38 52 59 28 hvcurveto
          -59 30 38 -52 75 hhcurveto
          88 66 74 91 91 -59 75 -94 -79 -36 -53 -61 -31 hvcurveto
          61 -30 -37 53 -78 hhcurveto
          -289 vmoveto
          -54 -58 41 83 84 58 38 54 66 33 -56 -68 29 hvcurveto
          -66 -29 -34 -56 -65 hhcurveto
          291 hmoveto
          -64 -34 54 64 -28 hvcurveto
          69 27 31 59 68 hhcurveto
          54 57 -38 -84 -83 -57 -41 -54 hvcurveto
          endchar
        </CharString>
        <CharString name="integral">
          -299 -167 41 905 41 hstemhm
          98 46 -3 45 hintmask 11010000
          141 -44 rmoveto
          -54 3 -24 -28 -36 hhcurveto
          -17 -26 8 8 -19 hvcurveto
          -13 -36 rlineto
          -12 26 36 -9 26 hhcurveto
          58 35 40 70 -4 hvcurveto
          hintmask 11100000
          -42 756 rlineto
          51 -3 24 29 36 hhcurveto
          15 29 -8 -8 18 hvcurveto
          14 36 rlineto
          12 -26 -38 9 -26 hhcurveto
          -58 -35 -47 -63 4 hvcurveto
          endchar
        </CharString>
        <CharString name="iogonek">
          -148 -21 190 -52 callsubr
          13 34 32 50 vstem
          80 -169 rmoveto
          -51 callgsubr
          520 -50 -520 7 vlineto
          -51 -36 -22 -32 -33 -39 callgsubr
          49 807 rmoveto
          92 -50 -92 vlineto
          endchar
        </CharString>
        <CharString name="itilde">
          -22 callgsubr
          147 -23 callgsubr
          78 50 hintmask 11101100
          -30 callgsubr
          86 26 callsubr
          hintmask 11110100
          -97 callgsubr
        </CharString>
        <CharString name="j">
          -370 61 callgsubr
          86 50 vstem
          -10 -177 -94 callsubr
          endchar
        </CharString>
        <CharString name="j.alt">
          -192 -21 932 -20 hstem
          78 50 vstem
          78 -213 rmoveto
          50 730 -50 hlineto
          121 vmoveto
          50 81 -50 hlineto
          endchar
        </CharString>
        <CharString name="jcircumflex">
          61 callgsubr
          78 50 vstem
          -18 -177 rmoveto
          73 73 45 callgsubr
          -49 -27 -29 5 19 -21 vhcurveto
          -27 -33 rlineto
          -27 28 38 -10 42 hhcurveto
          36 809 -47 callsubr
        </CharString>
        <CharString name="k">
          -62 21 -21 730 -20 hstem
          78 50 vstem
          509 hmoveto
          -21 callsubr
        </CharString>
        <CharString name="kcommaaccent">
          -62 4 callgsubr
          730 -20 hstem
          78 50 116 49 vstem
          272 -85 callgsubr
          264 187 rmoveto
          -21 callsubr
        </CharString>
        <CharString name="kgreenlandic">
          -62 21 -21 519 -20 21 -5 callgsubr
          hintmask 11010000
          509 hmoveto
          -224 308 217 211 rlineto
          -58 hlineto
          -316 -299 rlineto
          hintmask 10110000
          300 -50 -520 50 165 vlineto
          123 113 203 -278 rlineto
          endchar
        </CharString>
        <CharString name="l">
          -325 -6 46 690 58 callsubr
          vstem
          82 88 -82 callgsubr
          endchar
        </CharString>
        <CharString name="l.alt">
          -364 21 -21 730 -20 hstem
          85 50 vstem
          85 hmoveto
          50 730 -50 hlineto
          endchar
        </CharString>
        <CharString name="lacute">
          -325 -6 46 690 -20 166 58 callsubr
          vstem
          182 876 -96 callgsubr
          -16 -687 -82 callgsubr
          endchar
        </CharString>
        <CharString name="lcaron">
          -325 -6 46 690 58 callsubr
          vstem
          299 730 -96 callgsubr
          -133 -541 -82 callgsubr
          endchar
        </CharString>
        <CharString name="lcommaaccent">
          -325 -166 -21 181 46 690 58 callsubr
          9 49 vstem
          170 -85 callgsubr
          -61 275 -82 callgsubr
          endchar
        </CharString>
        <CharString name="ldot">
          -292 -6 46 690 58 callsubr
          98 44 vstem
          82 88 -82 callgsubr
          193 -471 rmoveto
          101 -44 -101 vlineto
          endchar
        </CharString>
        <CharString name="less">
          -78 14 -21 531 -20 hstem
          34 243 rmoveto
          418 -250 rlineto
          55 vlineto
          -346 211 346 211 rlineto
          54 vlineto
          -418 -251 rlineto
          endchar
        </CharString>
        <CharString name="lessequal">
          22 callgsubr
          -1 276 rmoveto
          308 -155 rlineto
          51 vlineto
          -235 120 235 120 rlineto
          49 vlineto
          -308 -155 rlineto
          endchar
        </CharString>
        <CharString name="lira">
          -106 -15 45 -23 23 -23 42 203 34 63 34 289 43 hstemhm
          75 48 57 46 hintmask 01011111
          47 349 rmoveto
          110 hlineto
          9 -20 7 -21 4 -22 rrcurveto
          -106 -34 109 hlineto
          -69 -30 -53 -98 -100 vhcurveto
          15 -37 rlineto
          8 31 41 6 31 hhcurveto
          hintmask 10011111
          53 callgsubr
          hintmask 00111111
          -13 40 rlineto
          hintmask 10011111
          -13 -38 -27 -6 -28 hhcurveto
          hintmask 00111111
          -49 -37 19 -58 37 callsubr
          157 34 -160 hlineto
          -3 22 -6 21 -8 20 rrcurveto
          166 34 -182 hlineto
          -30 56 -37 48 57 vvcurveto
          71 56 57 68 57 56 -36 -57 32 vhcurveto
          31 31 rlineto
          64 -38 -66 41 -70 hhcurveto
          -95 -79 -76 -93 -62 35 -47 30 -54 hvcurveto
          -93 hlineto
          endchar
        </CharString>
        <CharString name="logicalnot">
          -10 152 -21 177 46 hstem
          459 45 vstem
          78 354 rmoveto
          -46 381 -177 45 223 vlineto
          endchar
        </CharString>
        <CharString name="lozenge">
          -93 21 -21 730 -20 hstem
          218 730 rmoveto
          -186 -364 186 -366 rlineto
          55 hlineto
          186 366 -186 364 rlineto
          -22 -687 rmoveto
          -165 332 156 314 166 -335 rlineto
          endchar
        </CharString>
        <CharString name="lslash">
          -307 -6 46 690 -20 hstem
          99 51 vstem
          99 88 -76 callgsubr
          293 vlineto
          110 94 -20 30 -90 -77 rlineto
          287 -51 -331 vlineto
          -87 -75 20 -29 67 57 rlineto
          endchar
        </CharString>
        <CharString name="m">
          331 21 8 callgsubr
          -9 -5 callgsubr
          307 50 307 50 cntrmask 00011100
          hintmask 11011100
          842 299 rmoveto
          145 -45 85 -113 -87 -68 -48 -93 -49 vhcurveto
          84 -11 -58 57 -87 hhcurveto
          -83 -73 -49 -84 -43 hvcurveto
          hintmask 10111100
          -50 callgsubr
          hintmask 11011100
          96 28 71 65 85 hhcurveto
          84 39 -60 -133 hvcurveto
          -290 50 321 vlineto
          95 26 71 67 86 hhcurveto
          84 40 -62 -131 58 callgsubr
          endchar
        </CharString>
        <CharString name="macron">
          -194 672 37 hstem
          338 672 -36 callgsubr
        </CharString>
        <CharString name="minus">
          -43 265 42 hstem
          472 265 rmoveto
          42 -403 -42 vlineto
          endchar
        </CharString>
        <CharString name="mu">
          29 43 callsubr
          85 50 334 50 hintmask 11011100
          85 -51 callsubr
        </CharString>
        <CharString name="multiply">
          -133 134 -21 318 -20 hstem
          258 271 rmoveto
          126 127 -32 33 -127 -127 -125 126 -33 -32 125 -127 -125 -125 32 -33 126 126 127 -126 33 32 rlineto
          endchar
        </CharString>
        <CharString name="n">
          -8 21 8 callgsubr
          -9 30 callsubr
          hintmask 11011000
          503 299 rmoveto
          -62 callgsubr
          hintmask 10111000
          -50 callgsubr
          hintmask 11011000
          -72 callsubr
          endchar
        </CharString>
        <CharString name="nacute">
          -8 21 -29 callgsubr
          325 50 hintmask 11011100
          373 730 -96 callgsubr
          214 -330 -63 callgsubr
        </CharString>
        <CharString name="napostrophe">
          -8 21 -29 callgsubr
          325 50 hintmask 11011100
          121 51 callgsubr
          467 -330 -63 callgsubr
        </CharString>
        <CharString name="ncaron">
          -8 21 -29 callgsubr
          325 50 hintmask 11011100
          175 713 -92 callgsubr
          298 -431 -63 callgsubr
        </CharString>
        <CharString name="ncommaaccent">
          -8 4 callgsubr
          483 46 -9 -5 callgsubr
          130 49 146 50 hintmask 11101110
          286 -85 callgsubr
          244 486 rmoveto
          -62 callgsubr
          hintmask 11011110
          -50 callgsubr
          hintmask 11101110
          -72 callsubr
          endchar
        </CharString>
        <CharString name="ndotaccent">
          -8 21 -29 callgsubr
          139 46 140 50 hintmask 11011110
          313 640 rmoveto
          90 -46 -90 vlineto
          236 -341 rmoveto
          -62 callgsubr
          hintmask 10111110
          -50 callgsubr
          hintmask 11011110
          -72 callsubr
          endchar
        </CharString>
        <CharString name="nine">
          -1 -154 45 195 43 397 45 hstem
          37 48 405 49 vstem
          37 328 rmoveto
          -134 108 -108 135 96 84 58 86 30 vhcurveto
          -215 -1 -83 -124 -125 hhcurveto
          -79 -69 48 72 -27 hvcurveto
          46 callgsubr
          138 298 180 -107 109 -146 -140 -109 -108 -135 hvcurveto
          248 198 rmoveto
          109 91 -90 -108 -109 -90 -90 -110 -109 -91 90 109 109 90 89 110 hvcurveto
          endchar
        </CharString>
        <CharString name="nine.denominator">
          -185 -5 34 callsubr
          261 -55 callsubr
        </CharString>
        <CharString name="nine.lnum">
          16 -10 46 194 43 398 44 hstem
          43 49 405 49 vstem
          43 472 rmoveto
          -134 108 -108 136 96 84 58 86 30 vhcurveto
          -215 -84 -123 -125 -79 -69 47 72 -27 vhcurveto
          46 callgsubr
          139 297 180 -107 109 -146 -140 -110 -108 -135 hvcurveto
          248 199 rmoveto
          110 92 -91 -108 -108 -91 -91 -110 -108 -92 91 109 108 90 90 109 hvcurveto
          endchar
        </CharString>
        <CharString name="nine.numerator">
          -186 328 36 callgsubr
          595 -53 callgsubr
        </CharString>
        <CharString name="nineinferior">
          -185 -85 34 callsubr
          181 -55 callsubr
        </CharString>
        <CharString name="ninesuperior">
          -186 408 36 callgsubr
          675 -53 callgsubr
        </CharString>
        <CharString name="notequal">
          -129 118 -21 111 38 60 38 111 -20 hstem
          78 306 rmoveto
          146 hlineto
          -35 -60 rlineto
          -111 -38 89 hlineto
          -60 -102 31 -9 65 111 rlineto
          173 38 -150 hlineto
          35 60 rlineto
          115 38 -92 hlineto
          59 101 -31 10 -65 -111 rlineto
          -169 hlineto
          endchar
        </CharString>
        <CharString name="ntilde">
          -8 21 8 callgsubr
          -9 -20 147 35 5 35 8 30 callsubr
          hintmask 11011011
          503 299 rmoveto
          -62 callgsubr
          hintmask 10111011
          -50 callgsubr
          hintmask 11010111
          -72 callsubr
          -152 26 callsubr
          hintmask 11011011
          -97 callgsubr
        </CharString>
        <CharString name="numbersign">
          85 21 -21 212 41 213 39 -39 244 hstemhm
          hintmask 11100000
          631 505 rmoveto
          -115 25 callgsubr
          -208 25 callgsubr
          -143 -39 133 hlineto
          -52 -213 rlineto
          -122 -41 113 50 callsubr
          208 50 callsubr
          144 41 -134 hlineto
          51 213 rlineto
          125 hlineto
          -428 -213 rmoveto
          52 213 rlineto
          208 hlineto
          -51 -213 rlineto
          endchar
        </CharString>
        <CharString name="o">
          -16 callgsubr
          57 callsubr
          -81 callsubr
          endchar
        </CharString>
        <CharString name="oacute">
          -16 callgsubr
          201 -20 57 callsubr
          379 730 -96 callgsubr
          1 -639 -106 callsubr
          endchar
        </CharString>
        <CharString name="obreve">
          -16 callgsubr
          109 5 callgsubr
          42 50 115 178 114 51 hintmask 11101110
          -81 callsubr
          204 409 rmoveto
          hintmask 11011110
          -91 callsubr
          hintmask 11101110
          -49 callsubr
        </CharString>
        <CharString name="ocircumflex">
          -16 callgsubr
          201 -20 57 callsubr
          211 632 -100 callgsubr
          115 -659 -106 callsubr
          endchar
        </CharString>
        <CharString name="odblgrave">
          -16 callgsubr
          -45 246 hstemhm
          42 50 407 51 hintmask 10111000
          353 629 -90 callgsubr
          142 -740 rmoveto
          145 109 124 145 hvcurveto
          hintmask 11011000
          146 -111 124 -143 -144 -110 -124 -146 -145 108 -124 146 vhcurveto
          -14 callgsubr
        </CharString>
        <CharString name="odieresis">
          -16 callgsubr
          111 88 hstem
          42 50 114 44 92 44 113 51 vstem
          250 640 -88 callgsubr
          -46 -650 -106 callsubr
          endchar
        </CharString>
        <CharString name="odotbelow">
          8 -130 -21 141 -27 callsubr
          hstem
          42 50 178 46 183 51 vstem
          316 1 callgsubr
          26 141 -106 callsubr
          endchar
        </CharString>
        <CharString name="oe">
          456 -10 40 210 37 207 45 hstem
          42 50 407 52 408 49 vstem
          294 -10 rmoveto
          104 87 68 107 40 hvcurveto
          -104 39 95 -71 105 hhcurveto
          94 90 52 76 32 hvcurveto
          -43 12 rlineto
          -59 -23 -71 -41 -76 hhcurveto
          -113 -93 93 117 -10 hvcurveto
          457 hlineto
          175 -110 114 -144 -111 -86 -66 -110 -34 vhcurveto
          107 -33 -89 69 -104 hhcurveto
          -143 -112 -120 -151 -150 110 -118 142 hvcurveto
          1 45 rmoveto
          -113 -90 97 124 126 92 102 113 112 90 -100 -125 -125 -90 -99 -114 hvcurveto
          256 242 rmoveto
          122 6 86 89 110 hhcurveto
          110 88 -88 -123 8 hvcurveto
          endchar
        </CharString>
        <CharString name="ogonek">
          -358 -148 -21 185 -20 hstem
          52 34 vstem
          119 -169 rmoveto
          -51 callgsubr
          -19 16 rlineto
          -68 -44 -29 -35 -38 -39 callgsubr
          endchar
        </CharString>
        <CharString name="ograve">
          -16 callgsubr
          201 -20 57 callsubr
          -81 callsubr
          205 372 -78 callsubr
        </CharString>
        <CharString name="ohungarumlaut">
          -16 callgsubr
          -45 246 hstemhm
          42 50 407 51 hintmask 10111000
          315 730 -54 callgsubr
          -52 -639 rmoveto
          145 109 124 145 hvcurveto
          hintmask 11011000
          146 -111 124 -143 -144 -110 -124 -146 -145 108 -124 146 vhcurveto
          -14 callgsubr
        </CharString>
        <CharString name="oinvertedbreve">
          -16 callgsubr
          109 9 callgsubr
          42 50 113 178 116 51 hintmask 11011110
          294 702 rmoveto
          hintmask 11101110
          -91 callgsubr
          hintmask 11011110
          -23 callsubr
          2 -712 -106 callsubr
          endchar
        </CharString>
        <CharString name="omacron">
          -16 callgsubr
          143 37 57 callsubr
          439 672 rmoveto
          37 -285 -37 vlineto
          142 -682 -106 callsubr
          endchar
        </CharString>
        <CharString name="one">
          -176 0 46 380 50 95 -20 hstem
          210 50 vstem
          260 46 rmoveto
          525 -50 vlineto
          -9 -5 -94 -86 -66 hhcurveto
          -50 vlineto
          54 88 51 31 23 hvcurveto
          -462 -142 -46 319 46 vlineto
          endchar
        </CharString>
        <CharString name="one.denominator">
          -310 0 51 callsubr
          34 -4 callsubr
        </CharString>
        <CharString name="one.lnum">
          -190 0 46 528 47 98 -20 hstem
          198 50 vstem
          248 46 rmoveto
          673 -50 vlineto
          -4 -2 -85 -94 -70 hhcurveto
          -47 vlineto
          54 81 55 31 22 hvcurveto
          -614 -134 -46 311 46 vlineto
          endchar
        </CharString>
        <CharString name="one.numerator">
          -320 332 55 callgsubr
          367 -4 callgsubr
        </CharString>
        <CharString name="oneeighth">
          247 -4 34 165 30 107 35 -7 33 338 -20 hstemhm
          143 36 304 -57 callgsubr
          hintmask 1110111000010000
          131 -3 -86 callsubr
          75 346 -79 callgsubr
          541 -259 -21 callgsubr
          hintmask 1101110100100000
          -67 callsubr
          hintmask 1110111000010000
          -86 callgsubr
          hintmask 1101110011000000
          -72 callgsubr
          endchar
        </CharString>
        <CharString name="onehalf">
          254 0 34 -16 -21 335 35 -6 37 333 -20 hstemhm
          144 36 317 53 205 40 hintmask 10011111
          796 hmoveto
          34 -246 vlineto
          48 10 45 96 29 vhcurveto
          55 17 84 28 82 vvcurveto
          64 -46 51 -92 -97 -50 -57 -10 -8 vhcurveto
          26 -28 rlineto
          23 19 37 35 68 hhcurveto
          71 32 -34 -43 -65 -75 -16 -59 -23 hvcurveto
          -80 -31 -44 -47 -102 vvcurveto
          hintmask 01101111
          -381 -3 -86 callsubr
          91 346 -4 callgsubr
        </CharString>
        <CharString name="oneinferior">
          -310 -80 51 callsubr
          -46 -4 callsubr
        </CharString>
        <CharString name="onequarter">
          211 18 -21 24 -21 106 34 192 35 364 -20 hstemhm
          142 36 490 35 hintmask 01111110
          703 hmoveto
          -58 callgsubr
          hintmask 10111110
          -331 -143 rmoveto
          275 348 279 345 -28 23 -274 -348 rlineto
          hintmask 01111110
          -279 -344 rlineto
          hintmask 10111110
          58 346 -4 callgsubr
        </CharString>
        <CharString name="onesuperior">
          -320 412 55 callgsubr
          447 -4 callgsubr
        </CharString>
        <CharString name="onethird">
          249 -5 35 155 32 115 35 -1 32 333 -20 hstemhm
          144 36 567 38 -24 24 -24 36 hintmask 1110110010000000
          120 -3 -86 callsubr
          87 346 -79 callgsubr
          385 -372 -2 callgsubr
          hintmask 1101111000000000
          -75 callsubr
          hintmask 1110110100000000
          -68 callsubr
          -20 rlineto
          -56 8 62 -36 83 hhcurveto
          endchar
        </CharString>
        <CharString name="oogonek">
          8 -155 -21 167 44 449 45 hstem
          42 50 121 34 252 51 vstem
          280 -176 -9 callsubr
          129 16 94 116 135 vvcurveto
          146 -111 124 -143 -144 -110 -124 -146 -141 101 -120 139 -7 vhcurveto
          -48 -36 -21 -30 -33 -39 callgsubr
          -188 433 rmoveto
          124 93 103 111 111 92 -102 -122 -124 -92 -101 -112 -112 -91 99 123 vhcurveto
          endchar
        </CharString>
        <CharString name="ordfeminine">
          -153 348 38 145 32 111 36 hstem
          49 47 209 49 vstem
          168 348 rmoveto
          57 53 23 42 33 hvcurveto
          1 -26 2 -19 12 -13 21 -2 rlinecurve
          7 7 0 1 10 hvcurveto
          43 vlineto
          -12 1 -5 6 13 vvcurveto
          153 vlineto
          89 -56 51 -91 -44 -44 -15 -31 -47 vhcurveto
          17 -31 rlineto
          27 41 38 14 36 hhcurveto
          63 38 -39 -59 hvcurveto
          -31 vlineto
          12 -29 -40 6 -38 hhcurveto
          -87 -62 -44 -62 -62 52 -47 67 hvcurveto
          12 38 rmoveto
          -48 -36 32 42 43 44 28 66 34 35 -4 -13 30 hvcurveto
          -55 vlineto
          -8 -4 -10 -8 -9 vhcurveto
          -28 -21 -45 -18 -47 hhcurveto
          endchar
        </CharString>
        <CharString name="ordmasculine">
          -135 348 37 286 39 hstem
          46 44 269 44 vstem
          224 348 rmoveto
          104 75 84 96 44 callsubr
          hvcurveto
          6 callsubr
        </CharString>
        <CharString name="oslash">
          59 callsubr
          hstemhm
          42 50 407 51 hintmask 01101100
          142 -1 rmoveto
          22 29 rlineto
          hintmask 10011100
          -1 callgsubr
          hintmask 01101100
          -37 callgsubr
          hintmask 10101100
          -5 callsubr
          endchar
        </CharString>
        <CharString name="oslashacute">
          59 callsubr
          229 -20 hstemhm
          42 50 407 51 hintmask 01101110
          142 -1 rmoveto
          22 29 rlineto
          hintmask 10011110
          -1 callgsubr
          hintmask 01101110
          -37 callgsubr
          hintmask 10101110
          -5 callsubr
          84 695 -24 callsubr
        </CharString>
        <CharString name="otilde">
          -16 callgsubr
          118 -23 callgsubr
          42 50 407 51 hintmask 11101110
          -81 callsubr
          265 390 -84 callgsubr
          hintmask 11110110
          -97 callgsubr
        </CharString>
        <CharString name="p">
          28 48 callgsubr
          78 50 391 51 hintmask 11101100
          332 -59 callgsubr
        </CharString>
        <CharString name="paragraph">
          4 -59 -21 317 42 390 41 hstem
          33 45 223 45 80 45 vstem
          33 473 rmoveto
          -146 103 -87 165 -3 vhcurveto
          -317 45 317 80 -317 45 749 70 41 -226 vlineto
          -177 -105 -89 -148 hvcurveto
          45 1 rmoveto
          121 78 73 145 1 vhcurveto
          -390 vlineto
          -120 6 -103 56 133 vvcurveto
          348 -195 rmoveto
          -80 390 80 hlineto
          endchar
        </CharString>
        <CharString name="parenleft">
          -328 -12 -21 767 -20 hstem
          46 47 vstem
          46 345 rmoveto
          -124 53 -129 85 -125 vhcurveto
          38 22 rlineto
          -81 119 -48 131 103 vvcurveto
          126 71 160 58 86 vhcurveto
          -39 20 rlineto
          -75 -127 -62 -126 -136 vvcurveto
          endchar
        </CharString>
        <CharString name="parenright">
          -329 -12 -21 767 -20 hstem
          162 47 vstem
          209 345 rmoveto
          136 -61 126 -76 127 vhcurveto
          -39 -20 rlineto
          58 -86 71 -160 -126 vvcurveto
          -103 -48 -131 -80 -119 vhcurveto
          38 -22 rlineto
          85 125 52 129 124 vvcurveto
          endchar
        </CharString>
        <CharString name="partialdiff">
          -15 -10 45 356 43 236 45 hstemhm
          30 48 367 72 -48 48 hintmask 11110100
          249 -10 rmoveto
          159 109 140 269 224 -75 92 -145 -77 -74 -26 -52 -44 hvcurveto
          29 -30 rlineto
          37 31 64 26 67 hhcurveto
          107 69 -64 -190 -36 -3 -54 -5 -32 hvcurveto
          89 -21 -74 51 -89 hhcurveto
          -134 -113 -112 -127 -114 91 -91 128 hvcurveto
          45 vmoveto
          -100 -71 73 90 104 94 89 104 hvcurveto
          hintmask 11111000
          95 74 -73 -87 -88 -75 -108 -121 hvcurveto
          endchar
        </CharString>
        <CharString name="percent">
          114 47 callsubr
          43 40 211 39 32 40 211 39 vstem
          188 -61 callsubr
          -424 10 callsubr
        </CharString>
        <CharString name="period">
          -407 21 -21 85 -20 hstem
          67 44 vstem
          111 hmoveto
          85 -44 -85 vlineto
          endchar
        </CharString>
        <CharString name="periodcentered">
          13 callsubr
        </CharString>
        <CharString name="perthousand">
          455 47 callsubr
          49 40 211 39 32 40 211 39 54 40 211 39 vstem
          194 -61 callsubr
          344 -32 rmoveto
          81 64 63 79 78 -64 63 -81 -80 -65 -63 -78 -79 65 -63 80 hvcurveto
          32 vmoveto
          -58 -47 49 61 57 46 52 59 56 50 -49 -60 -59 -47 -51 -59 hvcurveto
          -768 10 callsubr
        </CharString>
        <CharString name="pi">
          -13 -6 46 -19 -21 474 46 hstemhm
          105 49 217 49 hintmask 10111000
          371 474 rmoveto
          -386 vlineto
          -57 36 -37 55 24 38 7 9 23 vhcurveto
          -10 40 rlineto
          -6 -17 -22 -4 -15 hhcurveto
          -39 -24 24 39 hvcurveto
          371 110 46 -505 -46 80 vlineto
          hintmask 01111000
          -474 49 474 vlineto
          endchar
        </CharString>
        <CharString name="plus">
          -170 214 -21 141 42 141 -20 hstem
          184 46 vstem
          230 376 rmoveto
          141 -46 -141 -131 -42 131 -141 46 141 130 42 vlineto
          endchar
        </CharString>
        <CharString name="plusminus">
          -116 70 43 226 43 144 -20 hstem
          211 46 vstem
          391 70 rmoveto
          43 -314 -43 vlineto
          180 312 rmoveto
          144 -46 -144 -134 -43 134 -144 46 144 134 43 vlineto
          endchar
        </CharString>
        <CharString name="product">
          77 -69 -21 754 46 hstem
          115 48 337 49 vstem
          500 -90 rmoveto
          49 754 80 46 -600 -46 86 -754 48 754 337 hlineto
          endchar
        </CharString>
        <CharString name="q">
          28 -191 -21 202 5 callsubr
          -271 vlineto
          -32 24 -21 30 5 6 0 1 6 vhcurveto
          44 vlineto
          -15 1 -6 8 17 vvcurveto
          661 -48 callsubr
        </CharString>
        <CharString name="q.alt">
          28 -192 -21 203 5 callsubr
          -325 50 733 -48 callsubr
        </CharString>
        <CharString name="question">
          -111 21 -21 676 43 hstem
          163 44 183 45 vstem
          207 193 rmoveto
          105 29 25 55 26 vhcurveto
          70 33 74 36 112 vvcurveto
          126 -94 63 -98 -85 -87 -46 -83 -36 vhcurveto
          36 -22 rlineto
          63 31 66 45 75 hhcurveto
          74 73 -46 -97 -104 -85 -27 -57 -32 hvcurveto
          -54 -31 -31 -43 -103 vvcurveto
          45 -193 rmoveto
          98 -44 -98 vlineto
          endchar
        </CharString>
        <CharString name="questiondown">
          -118 -213 43 676 -20 hstem
          34 45 183 44 vstem
          262 313 rmoveto
          -105 -29 -25 -55 -26 vhcurveto
          -70 -33 -74 -36 -112 vvcurveto
          -126 94 -63 98 85 87 46 83 36 vhcurveto
          -36 22 rlineto
          -63 -31 -66 -45 -75 hhcurveto
          -74 -73 46 97 104 85 27 57 32 hvcurveto
          54 31 31 43 103 vvcurveto
          -45 193 rmoveto
          -98 44 98 vlineto
          endchar
        </CharString>
        <CharString name="quotedbl">
          -320 540 174 hstem
          70 45 34 44 vstem
          115 540 rmoveto
          174 -45 -174 vlineto
          123 hmoveto
          174 -44 -174 vlineto
          endchar
        </CharString>
        <CharString name="quotedblbase">
          -246 -72 -21 114 -21 92 7 callsubr
          49 51 vstem
          124 -93 rmoveto
          17 callgsubr
          127 hmoveto
          17 callgsubr
          endchar
        </CharString>
        <CharString name="quotedblleft">
          -293 31 callsubr
          66 52 54 52 vstem
          87 730 rmoveto
          18 callgsubr
          79 hmoveto
          18 callgsubr
          endchar
        </CharString>
        <CharString name="quotedblright">
          -298 31 callsubr
          67 52 53 52 vstem
          98 540 rmoveto
          18 callsubr
          132 hmoveto
          18 callsubr
          endchar
        </CharString>
        <CharString name="quoteleft">
          -399 31 callsubr
          66 52 vstem
          87 730 rmoveto
          18 callgsubr
          endchar
        </CharString>
        <CharString name="quoteright">
          -404 31 callsubr
          67 52 vstem
          98 540 rmoveto
          18 callsubr
          endchar
        </CharString>
        <CharString name="quotesinglbase">
          -346 -72 -21 114 -21 92 7 callsubr
          vstem
          124 -93 rmoveto
          17 callgsubr
          endchar
        </CharString>
        <CharString name="quotesingle">
          -399 560 -21 175 -20 hstem
          70 45 vstem
          115 539 rmoveto
          175 -45 -175 vlineto
          endchar
        </CharString>
        <CharString name="r">
          -243 21 49 callsubr
          hstemhm
          78 50 hintmask 10110000
          324 522 -58 callsubr
          hintmask 11010000
          -65 callsubr
          endchar
        </CharString>
        <CharString name="racute">
          -14 callsubr
          275 730 -96 callgsubr
          133 -107 -58 callsubr
          hintmask 11011000
          -65 callsubr
          endchar
        </CharString>
        <CharString name="radical">
          -152 21 -21 326 39 425 -20 hstem
          12 326 rmoveto
          82 hlineto
          92 -326 rlineto
          58 hlineto
          143 790 rlineto
          -48 hlineto
          -124 -741 -79 316 rlineto
          -124 hlineto
          endchar
        </CharString>
        <CharString name="rcaron">
          -14 callsubr
          77 713 -92 callgsubr
          217 -208 -58 callsubr
          hintmask 11011000
          -65 callsubr
          endchar
        </CharString>
        <CharString name="rcommaaccent">
          -243 -166 -21 208 49 callsubr
          hstemhm
          78 50 hintmask 11011000
          103 -85 callgsubr
          248 709 -58 callsubr
          hintmask 11101000
          -65 callsubr
          endchar
        </CharString>
        <CharString name="rdblgrave">
          -14 callsubr
          256 629 -90 callgsubr
          267 -208 -58 callsubr
          hintmask 11011000
          -65 callsubr
          endchar
        </CharString>
        <CharString name="rdotbelow">
          -243 -130 -21 172 49 callsubr
          hstemhm
          78 50 hintmask 11011000
          324 522 -58 callsubr
          hintmask 11101000
          -65 callsubr
          hintmask 11011000
          -198 -626 -70 callgsubr
        </CharString>
        <CharString name="registered">
          245 -7 28 104 209 -36 36 209 38 106 28 hstemhm
          49 31 185 40 243 39 163 30 hintmask 1101111110000000
          -28 callgsubr
          -141 143 191 189 141 143 193 194 142 -143 -189 -200 -146 -134 -190 hvcurveto
          -149 104 rmoveto
          40 hlineto
          hintmask 1011111110000000
          173 132 vlineto
          hintmask 1101111110000000
          110 -173 rlineto
          45 hlineto
          -113 178 rlineto
          64 9 44 60 67 vvcurveto
          70 -55 72 -77 vhcurveto
          -190 hlineto
          40 -247 rmoveto
          209 147 vlineto
          56 40 -45 -59 -57 -32 -48 -60 hvcurveto
          endchar
        </CharString>
        <CharString name="ring">
          -340 605 23 79 23 hstem
          54 28 81 27 vstem
          54 668 -89 callsubr
          endchar
        </CharString>
        <CharString name="rinvertedbreve">
          -243 21 49 callsubr
          136 9 callgsubr
          78 50 -21 178 hintmask 11001100
          196 702 rmoveto
          hintmask 11010010
          -91 callgsubr
          hintmask 10101100
          -23 callsubr
          128 -180 -58 callsubr
          hintmask 11010100
          -65 callsubr
          endchar
        </CharString>
        <CharString name="s">
          -103 -10 40 459 40 hstem
          56 48 290 -61 callgsubr
          endchar
        </CharString>
        <CharString name="s_t">
          211 -10 51 -26 -21 495 31 9 -20 209 31 hstemhm
          49 47 231 30 43 47 127 50 hintmask 1010111110000000
          770 65 rmoveto
          -4 -6 -36 -20 -37 hhcurveto
          -36 -31 19 39 hvcurveto
          380 121 41 -121 vlineto
          153 -6 76 -135 -117 -39 -62 -73 -50 17 -26 18 -40 vhcurveto
          hintmask 1001111110000000
          21 -32 -45 10 -46 hhcurveto
          -90 -100 -40 -112 -106 90 -24 97 -8 hvcurveto
          61 -5 103 -7 -90 vvcurveto
          -79 -82 -28 -70 -66 -62 24 48 -56 vhcurveto
          -25 -34 rlineto
          -43 48 75 -35 85 hhcurveto
          95 105 41 110 112 -113 17 -87 9 hvcurveto
          -58 6 -93 9 90 vvcurveto
          hintmask 0110111110000000
          80 74 25 71 50 56 -12 -48 39 vhcurveto
          27 28 rlineto
          -2 5 -54 72 81 vvcurveto
          59 29 44 90 85 13 -33 -165 vhcurveto
          -73 -41 73 -392 hlineto
          -60 46 -33 59 49 47 36 callsubr
        </CharString>
        <CharString name="sacute">
          -8 callgsubr
          327 730 -96 callgsubr
          -639 vmoveto
          -99 callgsubr
        </CharString>
        <CharString name="scaron">
          -8 callgsubr
          129 713 -92 callgsubr
          84 -740 -93 callsubr
        </CharString>
        <CharString name="schwa">
          -1 -10 40 211 37 210 41 hstem
          31 50 408 52 vstem
          288 -10 rmoveto
          145 108 120 146 149 -111 124 -146 -97 -88 -55 -73 -31 hvcurveto
          44 -12 rlineto
          58 26 71 41 73 hhcurveto
          108 90 -89 -121 9 hvcurveto
          -457 hlineto
          -3 -1 -13 -3 vvcurveto
          -148 1 110 -121 146 hhcurveto
          40 vmoveto
          -110 -89 88 123 -8 hvcurveto
          409 hlineto
          -121 -7 -85 -90 -110 hhcurveto
          endchar
        </CharString>
        <CharString name="scircumflex">
          -8 callgsubr
          159 632 -100 callgsubr
          114 -659 -93 callsubr
        </CharString>
        <CharString name="sdotbelow">
          -103 -130 -21 141 40 459 40 hstem
          56 48 112 46 132 -61 callgsubr
          19 -141 -70 callgsubr
        </CharString>
        <CharString name="section">
          -87 -88 48 433 43 233 46 hstemhm
          46 51 -25 25 -25 49 269 48 -35 35 -35 51 hintmask 1111000100000000
          405 190 rmoveto
          19 20 14 36 38 vvcurveto
          111 -101 41 -96 -83 -61 30 83 75 73 45 70 49 62 -13 -47 24 vhcurveto
          40 18 rlineto
          49 -33 -49 39 -95 hhcurveto
          -93 -99 -65 -101 -54 23 -44 32 -21 hvcurveto
          hintmask 1110100010000000
          -16 -19 -13 -34 -36 vvcurveto
          -104 84 -49 108 -5 vhcurveto
          65 -3 74 -13 -84 vvcurveto
          -77 -76 -46 -70 -60 -49 23 48 -51 vhcurveto
          -33 -31 rlineto
          -43 42 61 -45 91 hhcurveto
          88 108 57 115 51 -16 35 -33 20 hvcurveto
          hintmask 1110011000000000
          -284 146 rmoveto
          28 11 30 16 16 vhcurveto
          -11 26 34 -6 35 hhcurveto
          64 83 -25 -84 -31 -13 -31 -20 -17 hvcurveto
          -73 30 -163 -37 138 vvcurveto
          endchar
        </CharString>
        <CharString name="semicolon">
          -393 -60 -21 100 -21 519 -20 hstem
          70 51 vstem
          115 432 rmoveto
          85 -44 -85 vlineto
          30 -513 rmoveto
          20 79 rlineto
          87 -51 -87 18 vlineto
          -14 -79 rlineto
          endchar
        </CharString>
        <CharString name="servicemark">
          111 424 34 223 29 5 -20 hstemhm
          65 39 138 40 56 37 210 38 hintmask 11011110
          480 515 rmoveto
          -93 195 rlineto
          -49 -283 37 226 hlineto
          90 -184 rlineto
          31 hlineto
          89 184 rlineto
          -226 38 283 -51 vlineto
          -306 -29 rmoveto
          hintmask 10111110
          23 -25 -30 11 -39 hhcurveto
          -63 -44 -29 -52 -51 35 -16 64 -14 hvcurveto
          58 -13 20 -11 -32 vvcurveto
          -26 -25 -13 -42 -44 -33 14 24 -23 vhcurveto
          -19 -29 rlineto
          -29 33 38 -14 47 hhcurveto
          64 44 25 51 56 -42 19 -64 13 hvcurveto
          -55 12 -17 10 27 vvcurveto
          hintmask 11011110
          28 20 16 48 32 26 -11 -20 16 vhcurveto
          endchar
        </CharString>
        <CharString name="seven">
          -49 -106 -21 663 47 hstem
          101 -127 rmoveto
          57 hlineto
          361 710 rlineto
          -479 -47 399 hlineto
          endchar
        </CharString>
        <CharString name="seven.denominator">
          -239 21 50 callgsubr
          hmoveto
          -17 callsubr
          253 hlineto
          endchar
        </CharString>
        <CharString name="seven.lnum">
          -74 21 -21 663 47 hstem
          92 hmoveto
          56 hlineto
          362 710 rlineto
          -480 -47 400 hlineto
          endchar
        </CharString>
        <CharString name="seven.numerator">
          -238 358 50 callgsubr
          337 rmoveto
          -17 callsubr
          252 hlineto
          endchar
        </CharString>
        <CharString name="seveneighths">
          243 -4 34 165 30 135 33 302 35 hstemhm
          479 -57 callgsubr
          hintmask 1111100001000000
          88 -3 -86 callsubr
          731 87 -21 callgsubr
          hintmask 1111010010000000
          -67 callsubr
          hintmask 1111100001000000
          -86 callgsubr
          hintmask 1111001100000000
          -72 callgsubr
          -450 45 rmoveto
          -17 callsubr
          252 hlineto
          endchar
        </CharString>
        <CharString name="seveninferior">
          -239 -59 50 callgsubr
          -80 rmoveto
          -17 callsubr
          253 hlineto
          endchar
        </CharString>
        <CharString name="sevensuperior">
          -238 438 50 callgsubr
          417 rmoveto
          -17 callsubr
          252 hlineto
          endchar
        </CharString>
        <CharString name="six">
          -75 callgsubr
        </CharString>
        <CharString name="six.denominator">
          -186 -5 27 callgsubr
          130 -55 callgsubr
        </CharString>
        <CharString name="six.lnum">
          -75 callgsubr
        </CharString>
        <CharString name="six.numerator">
          -186 328 27 callsubr
          464 -56 callsubr
        </CharString>
        <CharString name="sixinferior">
          -186 -85 27 callgsubr
          50 -55 callgsubr
        </CharString>
        <CharString name="sixsuperior">
          -186 408 27 callsubr
          544 -56 callsubr
        </CharString>
        <CharString name="slash">
          -5 -33 callsubr
          493 12 callgsubr
          -466 -710 rlineto
          57 hlineto
          467 710 rlineto
          endchar
        </CharString>
        <CharString name="space">
          -327 endchar
        </CharString>
        <CharString name="sterling">
          -97 -15 45 -23 23 -23 42 280 41 302 43 hstemhm
          78 48 57 46 hintmask 01011110
          50 329 rmoveto
          118 hlineto
          9 -24 6 -27 -29 vvcurveto
          -66 -30 -53 -98 -100 vhcurveto
          15 -37 rlineto
          8 32 40 6 31 hhcurveto
          hintmask 10011110
          53 callgsubr
          hintmask 00111110
          -13 40 rlineto
          hintmask 10011110
          -13 -38 -27 -6 -27 hhcurveto
          hintmask 00111110
          -50 -36 19 -59 37 callsubr
          28 -5 25 -8 24 vhcurveto
          159 41 -176 hlineto
          -30 62 -43 50 62 vvcurveto
          71 56 57 69 56 56 -36 -57 32 vhcurveto
          32 31 rlineto
          64 -38 -66 41 -70 hhcurveto
          -96 -79 -76 -93 -67 41 -50 31 -59 hvcurveto
          -100 hlineto
          endchar
        </CharString>
        <CharString name="summation">
          -71 0 49 618 43 hstem
          463 12 callgsubr
          -426 -37 hlineto
          224 -309 -229 -323 rlineto
          -41 446 49 -384 4 vlineto
          222 316 -213 294 rlineto
          4 360 vlineto
          endchar
        </CharString>
        <CharString name="t">
          -264 -6 23 callsubr
          vstem
          295 65 -77 callsubr
        </CharString>
        <CharString name="t.alt">
          -285 21 -21 474 46 179 -20 hstem
          103 51 vstem
          154 hmoveto
          474 124 46 -124 179 -51 -179 -75 -46 75 -474 vlineto
          endchar
        </CharString>
        <CharString name="tbar">
          -262 -6 47 278 36 124 41 178 -20 hstem
          100 50 vstem
          296 65 rmoveto
          -4 -6 -34 -20 -41 hhcurveto
          -33 -32 19 39 hvcurveto
          220 121 36 -121 124 121 41 -121 178 -50 -178 -73 -41 73 -124 -73 -36 73 -232 vlineto
          -60 47 -33 55 56 43 36 callsubr
        </CharString>
        <CharString name="tcaron">
          -264 -6 47 438 41 210 -20 hstem
          99 50 vstem
          338 730 -96 callgsubr
          41 -564 -77 callsubr
        </CharString>
        <CharString name="tdotbelow">
          -264 -130 -21 145 23 callsubr
          22 46 vstem
          217 1 callgsubr
          124 216 -77 callsubr
        </CharString>
        <CharString name="thorn">
          19 -192 -21 199 47 451 46 180 -20 hstem
          78 51 382 51 vstem
          562 258 rmoveto
          129 -92 143 -153 -85 -59 -48 -61 -44 vhcurveto
          289 -51 -923 51 300 vlineto
          -55 34 69 -46 76 hhcurveto
          142 109 129 143 3 hvcurveto
          -51 hmoveto
          -114 -85 -111 -119 -73 -105 66 72 vhcurveto
          180 vlineto
          70 35 64 63 87 hhcurveto
          117 79 -109 -117 hvcurveto
          endchar
        </CharString>
        <CharString name="three">
          -55 -147 46 314 44 273 46 hstemhm
          415 52 -39 52 hintmask 11110000
          330 236 rmoveto
          84 12 53 66 82 vvcurveto
          106 -87 74 -119 -95 -83 -48 -72 -31 vhcurveto
          34 -28 rlineto
          62 28 64 40 79 hhcurveto
          91 67 -52 -87 -81 -60 -53 -107 hvcurveto
          -26 -44 24 hlineto
          hintmask 11101000
          115 67 -62 -97 -97 -66 -58 -105 -89 -64 41 63 -26 hvcurveto
          -37 -30 rlineto
          -74 34 81 -46 100 hhcurveto
          133 91 80 119 97 -59 73 -91 14 hvcurveto
          endchar
        </CharString>
        <CharString name="three.denominator">
          -197 -5 35 155 32 149 32 -13 callgsubr
          -5 -2 callgsubr
          hintmask 11110000
          -75 callsubr
          hintmask 11101000
          -68 callsubr
          -20 rlineto
          -56 8 62 -36 83 hhcurveto
          endchar
        </CharString>
        <CharString name="three.lnum">
          0 -9 47 301 45 289 46 hstemhm
          480 33 -33 52 hintmask 11101000
          289 -9 rmoveto
          133 110 77 114 89 -64 73 -96 19 hvcurveto
          hintmask 11110000
          92 23 49 54 82 vvcurveto
          112 -99 85 -134 -98 -89 -46 -74 -35 vhcurveto
          37 -32 rlineto
          62 26 70 44 89 hhcurveto
          101 80 -62 -91 -89 -79 -47 -136 hvcurveto
          -35 -45 35 hlineto
          142 92 -58 -94 -87 -82 -62 -109 -116 -84 71 78 -5 hvcurveto
          -34 -23 rlineto
          -102 11 98 -71 130 hhcurveto
          endchar
        </CharString>
        <CharString name="three.numerator">
          -198 327 36 155 32 148 33 -13 callgsubr
          38 callsubr
          hintmask 11110000
          -74 callgsubr
          hintmask 11101000
          -68 callsubr
          -21 rlineto
          -55 8 62 -37 83 hhcurveto
          endchar
        </CharString>
        <CharString name="threeeighths">
          253 -4 34 165 30 102 36 -3 33 125 32 148 33 hstemhm
          303 38 -24 24 -24 36 135 -57 callgsubr
          hintmask 1110110011001000
          197 38 callsubr
          hintmask 1110111001001000
          -74 callgsubr
          hintmask 1110110101000010
          -68 callsubr
          -21 rlineto
          -55 8 62 -37 83 hhcurveto
          -42 -330 -86 callsubr
          673 87 -21 callgsubr
          hintmask 1101111000100100
          -67 callsubr
          hintmask 1110111001000010
          -86 callgsubr
          hintmask 1101111000011000
          -72 callgsubr
          endchar
        </CharString>
        <CharString name="threeinferior">
          -197 -85 35 155 32 149 32 -13 callgsubr
          -85 -2 callgsubr
          hintmask 11110000
          -75 callsubr
          hintmask 11101000
          -68 callsubr
          -20 rlineto
          -56 8 62 -36 83 hhcurveto
          endchar
        </CharString>
        <CharString name="threequarters">
          226 18 -21 24 -21 106 34 187 36 155 32 148 33 hstemhm
          302 38 -24 24 -24 36 327 35 hintmask 0111110011000000
          196 38 callsubr
          hintmask 0111111001000000
          -74 callgsubr
          hintmask 0111110101000000
          -68 callsubr
          -21 rlineto
          -55 8 62 -37 83 hhcurveto
          518 -327 rmoveto
          -58 callgsubr
          hintmask 1011111001000000
          -307 -143 rmoveto
          275 348 279 345 -28 23 -274 -348 rlineto
          hintmask 0111111001000000
          -279 -344 rlineto
          endchar
        </CharString>
        <CharString name="threesuperior">
          -198 407 36 155 32 148 33 -13 callgsubr
          407 -3 callsubr
          hintmask 11110000
          -74 callgsubr
          hintmask 11101000
          -68 callsubr
          -21 rlineto
          -55 8 62 -37 83 hhcurveto
          endchar
        </CharString>
        <CharString name="tilde">
          -187 647 35 -22 -21 48 42 callsubr
          hintmask 10010000
          258 26 callsubr
          hintmask 01100000
          -51 -22 40 -54 hhcurveto
          -72 -13 -72 -11 hvcurveto
          34 hlineto
          5 7 43 44 vhcurveto
          hintmask 10100000
          41 26 -40 59 hhcurveto
          endchar
        </CharString>
        <CharString name="trademark">
          113 448 -21 247 38 -2 -20 hstemhm
          156 37 141 38 210 37 hintmask 11011100
          288 712 rmoveto
          -227 -38 95 -247 37 247 95 hlineto
          188 -159 rmoveto
          hintmask 10111100
          -92 195 rlineto
          -50 -283 38 226 hlineto
          89 -184 rlineto
          31 hlineto
          90 184 rlineto
          -226 37 283 -50 vlineto
          endchar
        </CharString>
        <CharString name="two">
          -76 0 46 489 46 hstem
          45 57 293 54 vstem
          460 hmoveto
          46 -358 vlineto
          2 91 57 58 104 44 rrcurveto
          61 26 123 52 108 vvcurveto
          83 -69 73 -121 -120 -75 -84 -11 -10 vhcurveto
          34 -35 rlineto
          21 17 55 63 92 hhcurveto
          96 47 -58 -54 -90 -106 -34 -76 -37 hvcurveto
          -150 -71 -18 -116 -75 vvcurveto
          endchar
        </CharString>
        <CharString name="two.denominator">
          -201 0 34 327 37 hstem
          37 53 209 40 vstem
          340 hmoveto
          34 -250 vlineto
          48 11 45 97 29 vhcurveto
          56 17 85 28 44 callgsubr
          26 -28 rlineto
          23 19 38 35 69 hhcurveto
          72 33 -34 -43 -65 -76 49 callgsubr
        </CharString>
        <CharString name="two.lnum">
          -10 0 46 626 47 hstem
          49 60 354 55 vstem
          519 hmoveto
          46 -410 vlineto
          84 21 99 161 61 vhcurveto
          95 36 132 50 141 vvcurveto
          105 -72 97 -145 -155 -80 -110 -14 -9 vhcurveto
          34 -31 rlineto
          40 29 65 68 111 hhcurveto
          114 53 -75 -80 -124 -124 -27 -94 -43 hvcurveto
          -118 -54 -78 -78 -172 vvcurveto
          -19 vlineto
          endchar
        </CharString>
        <CharString name="two.numerator">
          -203 333 29 callgsubr
          337 333 rmoveto
          34 -254 vlineto
          38 19 56 96 30 vhcurveto
          55 17 86 27 81 -26 callsubr
        </CharString>
        <CharString name="twoinferior">
          -201 -80 29 callgsubr
          340 -80 rmoveto
          34 -255 vlineto
          38 17 55 95 30 vhcurveto
          56 18 86 26 44 callgsubr
          24 -25 rlineto
          23 19 40 35 69 hhcurveto
          72 34 -37 -43 -65 -77 49 callgsubr
        </CharString>
        <CharString name="twosuperior">
          -203 413 29 callgsubr
          337 413 rmoveto
          34 -247 vlineto
          38 9 52 98 31 vhcurveto
          55 17 87 29 82 -26 callsubr
        </CharString>
        <CharString name="twothirds">
          262 -5 35 155 32 116 34 -1 32 299 34 hstemhm
          303 39 417 38 -24 24 -24 36 hintmask 1110110010000000
          340 333 rmoveto
          34 -250 vlineto
          38 18 56 95 30 vhcurveto
          54 17 85 27 81 vvcurveto
          63 -46 52 -92 -97 -51 -57 -10 -7 vhcurveto
          24 -24 rlineto
          22 19 39 35 68 hhcurveto
          71 33 -37 -43 -65 -75 -17 -61 -23 hvcurveto
          -79 -31 -44 -47 -101 vvcurveto
          129 -336 -86 callsubr
          507 -26 -2 callgsubr
          hintmask 1101111000000000
          -75 callsubr
          hintmask 1110110100000000
          -68 callsubr
          -20 rlineto
          -56 8 62 -36 83 hhcurveto
          endchar
        </CharString>
        <CharString name="u">
          -52 callgsubr
          hstemhm
          73 50 333 50 hintmask 10111000
          -13 callsubr
          hintmask 01111000
          -97 callsubr
          hintmask 10111000
          -71 callsubr
        </CharString>
        <CharString name="u.alt">
          0 -10 45 -14 -21 520 31 callgsubr
          hintmask 01111000
          506 hmoveto
          520 -50 -328 vlineto
          hintmask 10111000
          -84 -27 -80 -73 -92 hhcurveto
          -110 -24 87 105 hvcurveto
          293 -50 -300 vlineto
          -118 30 -112 141 87 85 51 80 41 vhcurveto
          hintmask 01111000
          -121 vlineto
          endchar
        </CharString>
        <CharString name="uacute">
          -20 callgsubr
          370 730 -96 callgsubr
          -47 -639 -100 callsubr
          endchar
        </CharString>
        <CharString name="ubreve">
          -52 callgsubr
          138 5 callgsubr
          73 50 76 178 79 50 hintmask 10110111
          -13 callsubr
          hintmask 01110111
          -38 callsubr
          49 676 rmoveto
          hintmask 10101111
          -91 callsubr
          hintmask 10110111
          -49 callsubr
        </CharString>
        <CharString name="ucircumflex">
          -20 callgsubr
          202 632 -100 callgsubr
          67 -659 -100 callsubr
          endchar
        </CharString>
        <CharString name="udblgrave">
          -20 callgsubr
          343 629 -90 callgsubr
          95 -740 -100 callsubr
          endchar
        </CharString>
        <CharString name="udieresis">
          -52 callgsubr
          140 88 hstemhm
          73 50 74 44 92 44 79 50 hintmask 10111111
          241 640 -88 callgsubr
          -94 -650 -67 callgsubr
          hintmask 01111111
          -97 callsubr
          hintmask 10111111
          -71 callsubr
        </CharString>
        <CharString name="udotbelow">
          3 -130 -21 141 -42 callsubr
          hstemhm
          73 50 137 46 150 50 hintmask 11011110
          -13 callsubr
          hintmask 10111110
          -97 callsubr
          hintmask 11011110
          -101 callsubr
          67 -141 -70 callgsubr
        </CharString>
        <CharString name="ugrave">
          -20 callgsubr
          239 -10 -100 callsubr
          50 639 -78 callsubr
        </CharString>
        <CharString name="uhungarumlaut">
          -20 callgsubr
          239 -10 -100 callsubr
          68 740 -54 callgsubr
          endchar
        </CharString>
        <CharString name="uinvertedbreve">
          -52 callgsubr
          138 9 callgsubr
          73 50 74 178 81 50 hintmask 10101111
          286 702 rmoveto
          hintmask 10110111
          -91 callgsubr
          hintmask 10101111
          -23 callsubr
          -47 -712 -67 callgsubr
          hintmask 01110111
          -38 callsubr
          endchar
        </CharString>
        <CharString name="umacron">
          -52 callgsubr
          172 37 -16 callsubr
          hintmask 10111100
          239 -10 -100 callsubr
          191 682 -36 callgsubr
        </CharString>
        <CharString name="underscore">
          -65 -46 46 hstem
          452 -46 rmoveto
          46 -386 -46 vlineto
          endchar
        </CharString>
        <CharString name="uni00A0">
          -327 endchar
        </CharString>
        <CharString name="uni00AD">
          23 callgsubr
        </CharString>
        <CharString name="uni015E">
          22 34 callgsubr
          42 44 630 46 hstem
          61 52 278 31 95 54 vstem
          232 -80 callgsubr
          29 48 rlineto
          139 5 93 63 119 vvcurveto
          126 -97 38 -153 32 vhcurveto
          -146 31 -62 23 91 vvcurveto
          89 60 57 139 85 64 -26 -51 46 vhcurveto
          26 40 rlineto
          55 -58 -71 28 -92 hhcurveto
          -149 -102 -71 -128 -116 82 -34 151 -32 hvcurveto
          150 -32 73 -32 -94 vvcurveto
          -91 -75 -46 -123 -108 -89 40 62 -59 vhcurveto
          -27 -41 74 -69 89 -34 106 -3 rlinecurve
          -44 -79 -79 callsubr
        </CharString>
        <CharString name="uni015F">
          -102 34 callgsubr
          38 39 459 40 hstem
          56 48 208 31 51 49 vstem
          153 -80 callgsubr
          26 44 rlineto
          113 4 73 58 90 vvcurveto
          90 -72 23 -131 31 vhcurveto
          -96 23 -40 12 60 vvcurveto
          75 63 32 77 62 60 -20 -40 34 vhcurveto
          28 27 rlineto
          43 -34 -66 30 -81 hhcurveto
          -104 -87 -50 -104 -82 54 -19 118 -28 hvcurveto
          109 -26 57 -17 -65 vvcurveto
          -68 -61 -40 -90 -71 -59 24 50 -56 vhcurveto
          -25 -34 50 -49 69 -26 73 -4 rlinecurve
          -42 -76 -79 callsubr
        </CharString>
        <CharString name="uni0162">
          21 34 callgsubr
          68 -21 664 46 hstem
          277 51 42 31 vstem
          211 -80 callgsubr
          32 53 rlineto
          7 664 260 46 -571 -46 260 -664 10 hlineto
          -47 -85 -79 callsubr
        </CharString>
        <CharString name="uni0163">
          -264 34 callgsubr
          -24 112 438 41 178 -20 hstemhm
          99 50 120 31 hintmask 11011110
          110 -80 callgsubr
          29 48 48 4 36 20 9 6 rlinecurve
          -15 40 rlineto
          hintmask 10111110
          -4 -6 -34 -20 -41 hhcurveto
          -33 -32 19 39 hvcurveto
          380 121 41 -121 178 -50 -178 -73 -41 73 -392 vlineto
          -54 37 -32 48 -6 vhcurveto
          -45 -80 -79 callsubr
        </CharString>
        <CharString name="uni01C4">
          756 -8 callsubr
          93 51 471 51 vstem
          929 -31 callgsubr
          -414 -42 rmoveto
          -95 callgsubr
        </CharString>
        <CharString name="uni01C5">
          619 0 39 442 39 144 46 20 -20 hstemhm
          93 51 471 51 hintmask 11011100
          855 -32 callgsubr
          -416 -36 rmoveto
          206 131 141 215 196 -112 158 -225 hvcurveto
          -236 -710 hlineto
          522 356 rmoveto
          -176 -99 -134 -187 vhcurveto
          -185 hlineto
          hintmask 11101100
          618 185 vlineto
          183 103 -129 -179 hvcurveto
          endchar
        </CharString>
        <CharString name="uni01C6">
          6 callgsubr
          757 -32 callgsubr
          hintmask 01010111
          -355 -46 -22 callsubr
          hintmask 00110111
          -23 21 -25 27 vhcurveto
          hintmask 10001111
          41 callsubr
          hvcurveto
          -73 callsubr
          hintmask 01010111
          -90 callsubr
        </CharString>
        <CharString name="uni01C7">
          476 -11 47 -15 -46 callsubr
          hstemhm
          93 51 780 51 hintmask 10111000
          597 33 rmoveto
          -85 callsubr
          hintmask 01111000
          -45 -74 rmoveto
          -30 callsubr
          endchar
        </CharString>
        <CharString name="uni01C8">
          211 -177 46 131 46 474 -20 230 -20 hstem
          93 51 523 50 vstem
          571 -177 -94 callsubr
          -99 -638 rmoveto
          -30 callsubr
          endchar
        </CharString>
        <CharString name="uni01C9">
          -111 -177 46 125 46 480 -20 230 58 callsubr
          212 50 vstem
          249 -177 -94 callsubr
          -263 -550 -82 callgsubr
          endchar
        </CharString>
        <CharString name="uni01CA">
          668 -11 47 -15 -46 callsubr
          hstemhm
          93 51 486 51 435 51 hintmask 10111100
          789 33 rmoveto
          -85 callsubr
          hintmask 01111100
          -171 -74 rmoveto
          -77 callgsubr
          endchar
        </CharString>
        <CharString name="uni01CB">
          403 -177 46 152 -52 callsubr
          93 51 486 51 178 50 vstem
          763 -177 -94 callsubr
          -225 -638 rmoveto
          -77 callgsubr
          endchar
        </CharString>
        <CharString name="uni01CC">
          206 -177 46 152 -29 callgsubr
          325 50 159 50 hintmask 11011111
          566 -177 -94 callsubr
          -159 -339 rmoveto
          hintmask 11101111
          -62 callgsubr
          hintmask 11011111
          -50 callgsubr
          hintmask 11101111
          -72 callsubr
          endchar
        </CharString>
        <CharString name="uni01F1">
          741 0 46 618 41 callgsubr
          727 hmoveto
          -80 callsubr
          -398 -42 rmoveto
          -95 callgsubr
        </CharString>
        <CharString name="uni01F2">
          619 0 39 442 39 144 41 callgsubr
          745 -53 callsubr
          -416 -36 rmoveto
          -95 callgsubr
        </CharString>
        <CharString name="uni01F3">
          6 callgsubr
          647 -53 callsubr
          hintmask 01010111
          -355 -46 -22 callsubr
          hintmask 00110111
          -23 21 -25 27 vhcurveto
          hintmask 10001111
          41 callsubr
          hvcurveto
          -73 callsubr
          hintmask 01010111
          -90 callsubr
        </CharString>
        <CharString name="uni0218">
          21 -166 -21 181 45 630 46 hstem
          60 52 179 49 176 54 vstem
          319 -85 callgsubr
          240 819 -105 callsubr
          endchar
        </CharString>
        <CharString name="uni0219">
          -103 -166 -21 177 40 459 40 hstem
          56 48 112 49 129 49 vstem
          244 -85 callgsubr
          26 177 -93 callsubr
        </CharString>
        <CharString name="uni021A">
          22 4 callgsubr
          664 46 hstem
          278 51 vstem
          305 -85 callgsubr
          311 897 -42 callgsubr
        </CharString>
        <CharString name="uni021B">
          -264 -166 -21 181 23 callsubr
          24 49 vstem
          201 -85 callgsubr
          121 252 -77 callsubr
        </CharString>
        <CharString name="uni02C9">
          -194 672 37 hstem
          338 672 -36 callgsubr
        </CharString>
        <CharString name="uni030F">
          -268 21 callgsubr
          241 629 16 callgsubr
        </CharString>
        <CharString name="uni0311">
          -315 638 9 callgsubr
          46 178 hintmask 01100000
          135 702 rmoveto
          hintmask 10100000
          -91 callgsubr
          hintmask 01100000
          -23 callsubr
          endchar
        </CharString>
        <CharString name="uni0394">
          63 20 callsubr
          345 12 callgsubr
          -42 hlineto
          -280 -669 rlineto
          -41 600 41 vlineto
          -543 5 rmoveto
          244 602 243 -602 rlineto
          endchar
        </CharString>
        <CharString name="uni03A9">
          -70 callsubr
        </CharString>
        <CharString name="uni03BC">
          9 43 callsubr
          79 50 334 50 hintmask 11011100
          79 -51 callsubr
        </CharString>
        <CharString name="uni0400">
          -64 callsubr
          208 7 callsubr
          vstem
          145 46 -84 callsubr
          -226 771 -78 callsubr
        </CharString>
        <CharString name="uni0401">
          -64 callsubr
          118 88 hstem
          94 51 105 44 92 44 vstem
          294 828 -88 callgsubr
          -241 -782 -84 callsubr
          endchar
        </CharString>
        <CharString name="uni0402">
          108 -10 45 -14 -21 396 47 221 46 hstemhm
          205 51 353 54 hintmask 01111100
          205 hmoveto
          51 323 hlineto
          50 51 57 23 68 hhcurveto
          116 61 -63 -118 hvcurveto
          hintmask 10111100
          -117 -56 -63 -106 -31 -21 5 18 -38 vhcurveto
          -16 -46 rlineto
          -16 36 31 -6 39 hhcurveto
          141 75 79 146 148 -82 80 -143 -74 -62 -22 -44 -46 hvcurveto
          287 277 46 -517 -46 189 vlineto
          endchar
        </CharString>
        <CharString name="uni0403">
          -60 21 -21 664 33 callsubr
          94 51 vstem
          378 917 -96 callgsubr
          209 -106 rmoveto
          -409 -710 51 664 358 hlineto
          endchar
        </CharString>
        <CharString name="uni0404">
          54 callsubr
          44 52 vstem
          622 180 rmoveto
          -97 -49 -102 -42 -87 hhcurveto
          -161 -120 140 160 -7 hvcurveto
          372 44 -371 hlineto
          141 11 97 141 176 hhcurveto
          85 93 -34 -98 50 hvcurveto
          42 24 rlineto
          90 -44 -89 65 -133 hhcurveto
          -220 -121 -183 -171 -180 135 -186 201 120 118 58 107 48 hvcurveto
          endchar
        </CharString>
        <CharString name="uni0405">
          21 -6 45 630 46 56 callsubr
          532 632 -105 callsubr
          endchar
        </CharString>
        <CharString name="uni0406">
          -346 -33 callsubr
          94 51 vstem
          145 hmoveto
          710 -26 callgsubr
          vlineto
          endchar
        </CharString>
        <CharString name="uni0407">
          -346 29 callsubr
          29 44 21 51 20 44 vstem
          145 hmoveto
          710 -26 callgsubr
          vlineto
          -21 828 -19 callsubr
        </CharString>
        <CharString name="uni0408">
          -105 -11 47 674 -20 hstem
          343 51 vstem
          16 33 rmoveto
          -85 callsubr
          endchar
        </CharString>
        <CharString name="uni0409">
          410 0 46 -28 -21 359 45 263 46 hstemhm
          498 51 365 51 hintmask 01111100
          13 -3 rmoveto
          128 63 149 385 32 hvcurveto
          11 133 rlineto
          251 hlineto
          hintmask 10111100
          -664 254 vlineto
          132 81 84 119 122 -79 76 -136 hvcurveto
          -201 309 -349 hlineto
          -14 -172 -35 -419 -68 -71 -77 -2 rlinecurve
          hintmask 01111100
          hintmask 10111100
          543 hmoveto
          310 201 vlineto
          122 55 callsubr
        </CharString>
        <CharString name="uni040A">
          455 0 46 309 46 309 7 callsubr
          386 51 376 52 vstem
          94 hmoveto
          51 355 386 -355 266 hlineto
          132 54 callgsubr
          -213 309 -51 -309 -386 309 -51 hlineto
          488 -664 rmoveto
          310 213 vlineto
          121 42 -69 -84 -85 -49 -72 -112 hvcurveto
          endchar
        </CharString>
        <CharString name="uni040B">
          115 21 -21 390 46 228 46 hstem
          205 51 353 49 vstem
          609 hmoveto
          49 216 hlineto
          152 -72 68 -142 -69 -67 -19 -33 -52 vhcurveto
          280 277 46 -517 -46 189 -664 51 334 vlineto
          34 48 71 22 70 hhcurveto
          115 49 -54 -130 hvcurveto
          endchar
        </CharString>
        <CharString name="uni040C">
          4 40 callsubr
          227 7 callsubr
          vstem
          399 917 -96 callgsubr
          -170 -106 -25 callgsubr
        </CharString>
        <CharString name="uni040D">
          153 -76 callsubr
          228 7 callsubr
          458 51 vstem
          378 817 rmoveto
          34 16 -62 85 11 callsubr
          -148 -208 -35 callgsubr
        </CharString>
        <CharString name="uni040E">
          36 -8 46 672 -20 131 31 -31 95 hstemhm
          173 34 hintmask 11011000
          -17 callgsubr
          -99 -48 -29 -30 -52 hhcurveto
          -24 39 callgsubr
          151 829 rmoveto
          90 51 39 56 hvcurveto
          -33 hlineto
          hintmask 11101000
          -37 -3 -44 -27 -61 hhcurveto
          hintmask 11011000
          -63 -45 31 33 hvcurveto
          -34 hlineto
          -56 51 -39 91 vhcurveto
          endchar
        </CharString>
        <CharString name="uni040F">
          107 -165 -21 186 57 callgsubr
          175 51 175 51 cntrmask 00011100
          94 hmoveto
          226 -186 51 186 226 710 -51 -664 -401 664 -51 hlineto
          endchar
        </CharString>
        <CharString name="uni0410">
          -57 callsubr
          hstem
          -103 callsubr
          endchar
        </CharString>
        <CharString name="uni0411">
          65 0 46 310 45 263 46 hstem
          94 51 416 52 vstem
          94 hmoveto
          305 hlineto
          133 54 callgsubr
          -253 263 420 46 -471 hlineto
          51 -664 rmoveto
          310 253 vlineto
          121 55 callsubr
        </CharString>
        <CharString name="uni0412">
          79 0 46 291 43 284 46 hstemhm
          85 51 392 50 -21 51 hintmask 11110100
          608 -60 callgsubr
        </CharString>
        <CharString name="uni0413">
          -60 21 -21 664 46 hstem
          94 51 vstem
          503 12 callgsubr
          -409 -710 51 664 358 hlineto
          endchar
        </CharString>
        <CharString name="uni0414">
          112 -185 231 -46 46 618 46 hstemhm
          17 46 466 51 47 46 hintmask 10111100
          17 -185 rmoveto
          46 hlineto
          hintmask 01111100
          185 564 vlineto
          hintmask 10111100
          -185 46 231 -93 664 -369 vlineto
          -15 -172 -37 -424 -45 -55 -76 -13 rlinecurve
          -21 hlineto
          107 hmoveto
          67 45 32 146 24 294 11 133 rcurveline
          271 -618 hlineto
          endchar
        </CharString>
        <CharString name="uni0415">
          -64 callsubr
          hstem
          94 51 vstem
          145 46 -84 callsubr
          endchar
        </CharString>
        <CharString name="uni0416">
          337 40 callsubr
          hstem
          433 55 vstem
          4 hmoveto
          60 hlineto
          218 343 rlineto
          151 -343 55 343 151 hlineto
          217 -343 rlineto
          60 hlineto
          -240 369 212 341 rlineto
          -60 hlineto
          -194 -320 rlineto
          -146 320 -55 -320 -146 hlineto
          -194 320 rlineto
          -60 hlineto
          211 -341 rlineto
          endchar
        </CharString>
        <CharString name="uni0417">
          -57 -5 47 326 46 255 46 hstemhm
          400 50 -20 51 hintmask 11110000
          91 595 rmoveto
          42 28 61 32 71 hhcurveto
          90 59 -42 -79 -85 -67 -49 -119 hvcurveto
          -43 -46 43 hlineto
          hintmask 11101000
          136 80 -64 -103 -97 -72 -62 -106 -81 -70 41 59 -32 hvcurveto
          -41 -32 rlineto
          -69 39 83 -46 98 hhcurveto
          138 95 85 123 97 -56 74 -100 16 hvcurveto
          hintmask 11110000
          84 20 41 58 82 vvcurveto
          105 -74 60 -126 -87 -71 -37 -51 -36 vhcurveto
          endchar
        </CharString>
        <CharString name="uni0418">
          164 -33 callsubr
          94 51 458 51 vstem
          145 710 -35 callgsubr
        </CharString>
        <CharString name="uni0419">
          164 -76 callsubr
          131 31 -31 95 hstemhm
          94 51 89 34 335 51 hintmask 11011110
          485 916 rmoveto
          hintmask 11101110
          -37 -3 -45 -27 -61 hhcurveto
          hintmask 11011110
          -62 -46 31 33 hvcurveto
          -34 hlineto
          -56 1 50 -39 91 hhcurveto
          91 50 39 56 1 hvcurveto
          -373 -206 -35 callgsubr
        </CharString>
        <CharString name="uni041A">
          4 40 callsubr
          hstem
          94 51 vstem
          145 710 -25 callgsubr
        </CharString>
        <CharString name="uni041B">
          59 -3 49 -25 -21 664 46 hstemhm
          498 51 hintmask 01110000
          247 664 rmoveto
          251 -664 51 710 -349 hlineto
          -14 -172 rlineto
          hintmask 10110000
          -35 -419 -68 -71 -77 -2 7 -49 rcurveline
          128 63 149 385 32 hvcurveto
          endchar
        </CharString>
        <CharString name="uni041C">
          297 -33 callsubr
          94 51 592 51 vstem
          788 hmoveto
          710 -51 vlineto
          -296 -508 -296 508 rlineto
          -26 callgsubr
          51 614 hlineto
          280 -479 rlineto
          32 hlineto
          280 479 rlineto
          -614 vlineto
          endchar
        </CharString>
        <CharString name="uni041D">
          153 21 -21 340 46 324 7 callsubr
          448 51 vstem
          593 710 -47 callgsubr
          endchar
        </CharString>
        <CharString name="uni041E">
          -45 callgsubr
          19 callsubr
          -83 callgsubr
          endchar
        </CharString>
        <CharString name="uni041F">
          136 21 -21 664 46 hstem
          94 51 430 51 vstem
          94 hmoveto
          51 664 430 -664 51 710 -532 hlineto
          endchar
        </CharString>
        <CharString name="uni0420">
          38 20 callgsubr
          hstem
          94 51 396 52 vstem
          145 -36 callsubr
        </CharString>
        <CharString name="uni0421">
          106 -6 -6 callgsubr
          hstem
          44 51 vstem
          44 360 -102 callsubr
          endchar
        </CharString>
        <CharString name="uni0422">
          21 21 -21 664 46 hstem
          277 51 vstem
          588 710 -42 callgsubr
        </CharString>
        <CharString name="uni0423">
          36 -8 46 672 -20 hstem
          -17 callgsubr
          -100 -48 -30 -29 -50 hhcurveto
          -25 39 callgsubr
          endchar
        </CharString>
</ttFont>
